<?xml version="1.0" encoding="UTF-8" standalone="no"?>
<svg
   xmlns:dc="http://purl.org/dc/elements/1.1/"
   xmlns:cc="http://creativecommons.org/ns#"
   xmlns:rdf="http://www.w3.org/1999/02/22-rdf-syntax-ns#"
   xmlns:svg="http://www.w3.org/2000/svg"
   xmlns="http://www.w3.org/2000/svg"
   version="1.1"
   id="svg4390"
   viewBox="0 0 42.519682 26.034507"
   height="7.3475165mm"
   width="11.999999mm">
  <defs
     id="defs4392" />
  <metadata
     id="metadata4395">
    <rdf:RDF>
      <cc:Work
         rdf:about="">
        <dc:format>image/svg+xml</dc:format>
        <dc:type
           rdf:resource="http://purl.org/dc/dcmitype/StillImage" />
        <dc:title></dc:title>
      </cc:Work>
    </rdf:RDF>
  </metadata>
  <g
     transform="translate(-336.97172,-540.18977)"
     id="layer1">
    <path
       id="path4482"
       d="M 344.1853,566.18007 C 340.56215,565.71548 337.69804,562.96905 337.08154,559.3682 336.69424,557.10604 337.34563,554.6494 338.80943,552.85173 339.11152,552.48074 339.84877,551.76486 340.22595,551.47627 340.93909,550.93063 341.98217,550.40412 342.84325,550.15513 343.83502,549.86836 345.01577,549.75608 345.95557,549.85919 346.24268,549.89068 346.52573,549.91867 346.58458,549.92137 346.70844,549.92707 346.60206,550.23989 347.64026,546.81696 348.69527,543.33861 348.93163,542.65477 349.3731,541.80344 349.55474,541.45315 349.68858,541.2674 349.95004,541.00268 350.63059,540.31367 351.16976,540.19194 353.54734,540.19056 L 354.89774,540.18977 354.89774,541.00222 354.89774,541.81468 353.41116,541.83612 C 351.88655,541.8581 351.68565,541.88007 351.33108,542.06352 351.11514,542.17524 350.88916,542.45481 350.75354,542.77802 350.61805,543.10092 350.13161,544.78065 350.13161,544.9256 350.13161,545.01567 350.15383,545.01605 353.70621,544.9861 355.67224,544.96953 358.9047,544.95579 360.88945,544.95557 L 364.49809,544.95517 364.77396,544.17253 C 365.01105,543.49993 365.03977,543.38527 364.97823,543.35702 364.93884,543.33894 364.46745,543.23272 363.93069,543.12096 362.58805,542.8414 362.37082,542.79022 361.97157,542.65936 361.41368,542.47651 361.27201,542.26557 361.47904,541.926 L 361.56899,541.77848 365.1714,541.77848 368.77381,541.77848 368.8034,542.26216 C 368.81968,542.52818 368.833,542.89544 368.833,543.0783 L 368.833,543.41078 367.87523,543.42303 366.91745,543.43528 366.63571,544.21088 366.35396,544.98647 367.47685,547.47908 C 368.09444,548.85001 368.61648,549.99873 368.63694,550.03178 368.66717,550.08063 368.73781,550.0741 369.01457,549.99685 369.94893,549.73606 371.13784,549.62497 372.02241,549.7158 374.01833,549.92074 375.65376,550.68564 377.02981,552.05778 377.35634,552.38339 377.73612,552.803 377.87375,552.99024 379.35152,555.0006 379.84933,557.54693 379.23239,559.93966 378.58172,562.46323 376.7882,564.50631 374.34361,565.50868 372.77286,566.15275 370.93232,566.27141 369.23083,565.83829 366.80654,565.22119 364.7557,563.46965 363.75975,561.16567 363.62602,560.85631 363.45333,560.37352 363.376,560.0928 L 363.2354,559.5824 363.03201,559.55452 C 362.92015,559.53919 362.11145,559.52634 361.2349,559.52597 359.46594,559.52523 359.27597,559.5032 358.78403,559.24181 358.35321,559.0129 357.72699,558.37259 356.24364,556.64427 354.00554,554.03656 352.54865,552.395 350.80176,550.5126 350.34033,550.01537 349.76077,549.39098 349.51385,549.12506 349.26693,548.85915 349.04564,548.64599 349.02209,548.65138 348.99854,548.65677 348.84927,549.06799 348.69038,549.56521 348.47547,550.23775 348.41669,550.47414 348.46085,550.48836 348.65261,550.55009 349.42705,550.98851 349.84648,551.27279 350.40825,551.65353 351.37296,552.58149 351.77351,553.12641 353.25128,555.13678 353.7491,557.68311 353.13216,560.07584 352.31723,563.23645 349.73481,565.58783 346.47772,566.13494 345.89941,566.23208 344.76505,566.25441 344.1853,566.18007 Z M 346.47758,564.29774 C 349.0325,563.74013 350.93554,561.80407 351.47963,559.2089 351.60088,558.63061 351.58962,557.34467 351.4581,556.74805 351.08538,555.05733 350.10805,553.60904 348.72447,552.69713 348.32309,552.43259 347.89404,552.21331 347.85655,552.25355 347.83959,552.27176 347.50804,553.30798 347.11978,554.55625 346.29945,557.19366 346.09831,557.79307 345.88139,558.24674 345.67432,558.67979 345.54583,558.76539 345.13351,558.74493 344.76575,558.72668 344.54035,558.57852 344.40096,558.26341 344.20824,557.82772 344.27198,557.56655 345.56049,553.51224 345.90244,552.4363 346.10717,551.72416 346.08247,551.69657 346.05794,551.66919 345.70513,551.65226 345.19299,551.65391 344.49632,551.65616 344.26107,551.67456 343.88061,551.75656 341.36956,552.29776 339.47248,554.20257 338.9094,556.74805 338.76883,557.38348 338.76883,558.67395 338.9094,559.30938 339.19086,560.58175 339.7732,561.65344 340.6677,562.54519 341.67644,563.55083 342.95129,564.18352 344.37069,564.38293 344.83326,564.44792 346.00688,564.40047 346.47758,564.29774 Z M 372.57782,564.16156 C 375.13274,563.60396 377.03578,561.6679 377.57987,559.07273 377.70111,558.49443 377.68986,557.2085 377.55833,556.61187 376.99768,554.06863 375.0985,552.16158 372.58745,551.62038 371.91414,551.47526 370.64982,551.4764 369.96779,551.62273 369.70565,551.67898 369.47541,551.74049 369.45615,551.75943 369.43688,551.77838 369.96495,552.99756 370.62964,554.46873 372.49451,558.59625 372.39444,558.35289 372.39542,558.763 372.39643,559.18609 372.31538,559.32277 371.98299,559.45856 371.7677,559.54651 371.65706,559.54932 368.43582,559.54883 366.6071,559.54854 365.11088,559.56554 365.11088,559.58659 365.11088,559.69099 365.37318,560.36777 365.55384,560.72952 366.1654,561.95406 367.20205,562.99923 368.40178,563.60087 369.03486,563.91835 369.77268,564.14866 370.47093,564.24676 370.9335,564.31175 372.10712,564.26429 372.57782,564.16156 Z M 370.19475,557.87171 C 370.19475,557.83078 367.8286,552.60371 367.79453,552.56937 367.77541,552.5501 367.62569,552.63583 367.46181,552.75989 365.95146,553.90325 365.03227,555.58712 364.90157,557.44997 L 364.87052,557.89254 367.53263,557.89254 C 368.9968,557.89254 370.19475,557.88317 370.19475,557.87171 Z M 363.10534,557.22301 C 363.24191,555.64683 363.76468,554.25581 364.69611,552.99024 365.1897,552.31958 366.17634,551.3886 366.77902,551.02484 366.91009,550.94573 367.01733,550.86494 367.01733,550.8453 367.01733,550.79561 365.52199,547.48296 365.48079,547.44138 365.46239,547.4228 364.56623,549.72076 363.48932,552.54794 362.41241,555.37513 361.51747,557.72402 361.50057,557.76771 361.47201,557.8415 361.52603,557.84715 362.26055,557.84715 L 363.05127,557.84715 363.10534,557.22301 Z M 361.75254,552.114 C 362.85629,549.14801 363.74945,546.71137 363.73733,546.69925 363.7252,546.68713 360.56324,546.69333 356.71075,546.71304 L 349.70621,546.74887 354.05814,551.49231 C 356.4517,554.1012 358.69638,556.5474 359.04632,556.92832 359.46341,557.38234 359.69344,557.60123 359.71414,557.5638 359.7315,557.5324 360.64878,555.07999 361.75254,552.114 Z"
       style="fill:#000000" />
  </g>
</svg>
