<?xml version="1.0" encoding="UTF-8" standalone="no"?>
<!-- Created with Inkscape (http://www.inkscape.org/) -->

<svg
   xmlns:dc="http://purl.org/dc/elements/1.1/"
   xmlns:cc="http://creativecommons.org/ns#"
   xmlns:rdf="http://www.w3.org/1999/02/22-rdf-syntax-ns#"
   xmlns:svg="http://www.w3.org/2000/svg"
   xmlns="http://www.w3.org/2000/svg"
   xmlns:sodipodi="http://sodipodi.sourceforge.net/DTD/sodipodi-0.dtd"
   xmlns:inkscape="http://www.inkscape.org/namespaces/inkscape"
   id="svg4190"
   version="1.1"
   inkscape:version="0.91 r13725"
   width="42.51968"
   height="21.741793"
   viewBox="0 0 42.51968 21.741793"
   sodipodi:docname="bridge.svg">
  <metadata
     id="metadata4196">
    <rdf:RDF>
      <cc:Work
         rdf:about="">
        <dc:format>image/svg+xml</dc:format>
        <dc:type
           rdf:resource="http://purl.org/dc/dcmitype/StillImage" />
        <dc:title />
      </cc:Work>
    </rdf:RDF>
  </metadata>
  <defs
     id="defs4194" />
  <sodipodi:namedview
     pagecolor="#ffffff"
     bordercolor="#666666"
     borderopacity="1"
     objecttolerance="10"
     gridtolerance="10"
     guidetolerance="10"
     inkscape:pageopacity="0"
     inkscape:pageshadow="2"
     inkscape:window-width="2560"
     inkscape:window-height="1415"
     id="namedview4192"
     showgrid="false"
     inkscape:zoom="21.613714"
     inkscape:cx="36.901783"
     inkscape:cy="19.906133"
     inkscape:window-x="2560"
     inkscape:window-y="0"
     inkscape:window-maximized="1"
     inkscape:current-layer="svg4190"
     fit-margin-top="0"
     fit-margin-left="0"
     fit-margin-right="0"
     fit-margin-bottom="0" />
  <path
     style="fill:#000000"
     d="M 0.04966,21.726203 C 0.04593,21.717633 0.03323,21.493153 0.02144,21.227373 L 0,20.744123 0.67911,20.744123 1.35823,20.744123 1.39441,20.479123 C 1.44566,20.103723 2.23883,12.031993 2.23883,11.885833 2.23883,11.771473 2.18628,11.765113 1.24116,11.765113 L 0.2435,11.765113 0.2435,10.642733 0.2435,9.5203633 1.70257,9.5203633 3.16164,9.5203633 3.32403,9.0168933 C 3.82961,7.4494333 4.84541,5.9963133 6.31654,4.7360233 10.57833,1.0850433 17.87015,-0.6700067 25.01847,0.2347033 32.19663,1.1431933 37.81869,4.5961733 39.22098,8.9576533 L 39.39187,9.4891833 40.86225,9.5059033 42.33262,9.5226133 42.33262,10.643863 42.33262,11.765113 41.33495,11.765113 C 40.34204,11.765113 40.33728,11.765783 40.33681,11.905413 40.3362,12.085613 41.13771,20.272383 41.18231,20.541473 L 41.21589,20.744123 41.86779,20.744123 42.51968,20.744123 42.51968,21.242963 42.51968,21.741793 39.33962,21.741793 36.15955,21.741793 36.15955,21.242963 36.15955,20.744123 36.81427,20.744123 C 37.17436,20.744123 37.47151,20.737113 37.47459,20.728533 37.50532,20.643083 38.36893,11.812883 38.34856,11.792503 38.33349,11.777443 34.70618,11.765113 30.28786,11.765113 22.80186,11.765113 22.25455,11.772263 22.25455,11.870013 22.25455,11.927703 22.28319,12.215313 22.31819,12.509143 22.35319,12.802973 22.55017,14.751583 22.75593,16.839403 22.96169,18.927213 23.14516,20.659883 23.16363,20.689773 23.18211,20.719673 23.49019,20.744123 23.84826,20.744123 L 24.4993,20.744123 24.4993,21.242963 24.4993,21.741793 21.28806,21.741793 18.07681,21.741793 18.07681,21.242963 18.07681,20.744123 18.73349,20.744123 C 19.20207,20.744123 19.39832,20.721803 19.41865,20.666183 19.44157,20.603443 19.88109,16.255073 20.19858,12.949843 20.23317,12.589743 20.27818,12.175873 20.2986,12.030123 L 20.33573,11.765113 12.28863,11.765113 C 7.86272,11.765113 4.23011,11.786153 4.21615,11.811883 4.20219,11.837603 4.3902,13.850863 4.63395,16.285793 L 5.07713,20.712953 5.74685,20.730643 6.41657,20.748343 6.41657,21.245073 6.41657,21.741793 3.2365,21.741793 C 1.48746,21.741793 0.05338,21.734783 0.04966,21.726203 Z M 6.7422,7.5128533 6.72489,5.5052733 6.28508,5.9383733 C 5.39375,6.8160833 4.6051,8.0226033 4.26058,9.0355433 4.17746,9.2799133 4.10946,9.4889633 4.10946,9.5001033 4.10946,9.5112433 4.70572,9.5203733 5.43449,9.5203933 L 6.75952,9.5204233 Z M 10.113555,6.3350733 10.113555,3.2654606 9.62624,3.6429206 C 8.9409577,4.1737203 8.1817071,4.324921 7.9458065,4.9671133 L 7.9654484,5.2285233 7.9654484,7.3744433 7.9654484,9.5203633 8.6925,9.5203633 10.113555,9.5203633 Z M 13.267426,6.0283752 C 13.276318,4.831567 13.248834,3.6325671 13.15083,2.4397452 12.42909,2.6624652 12.423538,3.0007952 11.940528,3.2159452 L 11.929,3.0286533 11.929,6.2745033 11.929,9.5203633 12.30904,9.5203633 13.267426,9.5203633 Z M 16.360927,6.9482433 C 16.364314,2.5262233 16.356037,1.2035433 16.324717,1.1722233 16.276847,1.1243533 16.1999,1.3246233 15.19293,1.5437433 L 14.735869,1.7438733 14.735869,5.6321133 14.735869,9.5203633 15.89441,9.5203633 16.358957,9.5203633 Z M 20.091164,5.2179133 20.091164,0.9154733 20.4552,0.9154733 C 21.11266,0.9154733 18.25114,1.0146833 17.96769,1.0750333 L 17.8274,1.1049133 17.8274,5.3126333 17.8274,9.5203633 19.942449,9.5203633 20.091164,9.5203633 Z M 23.823382,5.3164033 23.823382,1.1124433 23.651912,1.0770633 C 23.333142,1.0112833 22.80193,0.9154733 22.12079,0.9154733 L 21.44394,0.9154733 21.44394,5.2179133 21.44394,9.5203633 23.09633,9.5203633 23.823382,9.5203633 Z M 27.840241,5.6351633 27.840241,1.7499633 27.53907,1.5805633 C 26.756116,1.1401741 25.761122,1.1659133 25.532202,1.1653033 L 25.376312,1.1648933 25.390932,5.2023333 C 25.398973,7.4229233 25.405982,9.3029033 25.406522,9.3800633 L 25.407492,9.5203633 26.6817,9.5203633 27.840241,9.5203633 Z M 31.326093,6.2657833 31.309943,3.0112033 31.35827,2.7827633 C 30.86621,2.5706733 29.755367,1.9842633 29.364497,1.8898333 L 29.193017,1.8484133 29.193017,5.6843833 29.193017,9.5203633 30.26763,9.5203633 31.342233,9.5203633 Z M 35.045275,7.3690133 35.045275,5.2176633 34.95648,4.7877633 C 34.917174,4.5974653 33.43287,3.7630033 32.72395,3.4065633 L 32.693899,3.1588333 32.693899,6.3395933 32.693899,9.5203633 33.88362,9.5203633 35.045275,9.5203633 Z M 38.46666,9.4894333 C 38.46666,9.4724233 38.4066,9.2830233 38.3332,9.0685433 38.0003,8.0957933 37.33103,7.0439533 36.45804,6.1215233 36.14998,5.7960133 36.106775,5.5296833 36.079285,5.5296833 36.024405,5.5296833 36.006956,8.991473 36.060195,9.3177133 L 36.093265,9.5203633 37.16429,9.5203633 C 37.88059,9.5203633 38.46666,9.5064433 38.46666,9.4894333 Z"
     id="path4200"
     inkscape:connector-curvature="0"
     sodipodi:nodetypes="cscccssscccccsssscccccscccccccccccsccsssscscccccccscsscscscccccscccscssccccsscccccccccccccccssscccccsccsccccccccccsccccccccsccscccccccccccccccccssccccccssssscss" />
</svg>
