<?xml version="1.0" encoding="UTF-8" standalone="no"?>
<!-- Created with Inkscape (http://www.inkscape.org/) -->

<svg
   xmlns:dc="http://purl.org/dc/elements/1.1/"
   xmlns:cc="http://creativecommons.org/ns#"
   xmlns:rdf="http://www.w3.org/1999/02/22-rdf-syntax-ns#"
   xmlns:svg="http://www.w3.org/2000/svg"
   xmlns="http://www.w3.org/2000/svg"
   xmlns:sodipodi="http://sodipodi.sourceforge.net/DTD/sodipodi-0.dtd"
   xmlns:inkscape="http://www.inkscape.org/namespaces/inkscape"
   width="9.75mm"
   height="8.3043098mm"
   viewBox="0 0 34.547243 29.42472"
   id="svg2"
   version="1.1"
   inkscape:version="0.91 r13725"
   sodipodi:docname="DC503.svg">
  <defs
     id="defs4" />
  <sodipodi:namedview
     id="base"
     pagecolor="#ffffff"
     bordercolor="#666666"
     borderopacity="1.0"
     inkscape:pageopacity="0.0"
     inkscape:pageshadow="2"
     inkscape:zoom="11.2"
     inkscape:cx="31.435253"
     inkscape:cy="-0.12278904"
     inkscape:document-units="px"
     inkscape:current-layer="layer1"
     showgrid="false"
     fit-margin-top="0"
     fit-margin-left="0"
     fit-margin-right="0"
     fit-margin-bottom="0"
     inkscape:window-width="2560"
     inkscape:window-height="1390"
     inkscape:window-x="0"
     inkscape:window-y="25"
     inkscape:window-maximized="1"
     inkscape:snap-global="false" />
  <metadata
     id="metadata7">
    <rdf:RDF>
      <cc:Work
         rdf:about="">
        <dc:format>image/svg+xml</dc:format>
        <dc:type
           rdf:resource="http://purl.org/dc/dcmitype/StillImage" />
        <dc:title></dc:title>
      </cc:Work>
    </rdf:RDF>
  </metadata>
  <g
     inkscape:label="Layer 1"
     inkscape:groupmode="layer"
     id="layer1"
     transform="translate(-161.48808,-293.36515)">
    <g
       style="font-style:normal;font-variant:normal;font-weight:normal;font-stretch:normal;font-size:40px;line-height:125%;font-family:'Chintzy CPU (BRK)';-inkscape-font-specification:'Chintzy CPU (BRK)';letter-spacing:0px;word-spacing:0px;fill:#000000;fill-opacity:1;stroke:none;stroke-width:1px;stroke-linecap:butt;stroke-linejoin:miter;stroke-opacity:1"
       id="text4172"
       transform="matrix(0.74537456,0,0,0.78491871,45.487487,63.266579)">
      <path
         d="M 174.14904,293.14955 Q 174.41067,293.14955 174.77696,293.2542 175.1694,293.35885 175.35254,293.54199 L 178.41363,296.60308 Q 178.59677,296.78622 178.70143,297.17867 178.80608,297.54495 178.80608,297.80659 L 178.80608,306.30961 Q 178.80608,306.51891 178.67526,306.91136 178.54445,307.27764 178.41363,307.40846 L 175.35254,310.46955 Q 175.1694,310.65269 174.77696,310.75734 174.41067,310.86199 174.14904,310.86199 L 163.26517,310.86199 Q 162.97738,310.86199 162.61109,310.75734 162.27097,310.62653 161.95702,310.41722 161.64306,310.18175 161.40759,309.89396 161.19828,309.60616 161.19828,309.26604 L 161.19828,294.7455 Q 161.19828,294.53619 161.35526,294.27456 161.51224,294.01293 161.74771,293.80363 161.98318,293.56816 162.21865,293.41118 162.48028,293.2542 162.68958,293.2542 L 174.14904,293.14955 Z M 164.36402,299.76882 166.03847,301.54792 Q 166.19544,301.70489 166.32626,302.1235 166.48324,302.54211 166.48324,302.75142 L 166.48324,306.5974 Q 166.48324,306.85903 166.66638,307.12066 166.87569,307.35613 167.16348,307.56544 167.45128,307.74858 167.76523,307.8794 168.07919,307.98405 168.31466,307.98405 L 174.14904,307.98405 Q 174.463,307.98405 174.77696,307.82707 175.11708,307.67009 175.37871,307.43462 175.64034,307.17299 175.79732,306.85903 175.9543,306.51891 175.9543,306.20495 L 175.9543,297.80659 Q 175.9543,297.57112 175.82348,297.28332 175.71883,296.96937 175.50952,296.7339 175.32638,296.47227 175.06475,296.28912 174.82928,296.10598 174.56765,296.10598 L 165.35822,296.10598 Q 165.17508,296.10598 164.93961,296.26296 164.73031,296.39378 164.521,296.60308 164.33786,296.78622 164.20705,297.02169 164.07623,297.231 164.07623,297.41414 L 164.07623,299.19323 164.36402,299.76882 Z"
         id="path4193"
         inkscape:connector-curvature="0" />
      <path
         d="M 179.67764,307.40846 179.38984,306.80671 179.38984,297.20483 179.67764,296.60308 182.76489,293.54199 183.34048,293.2542 192.36676,293.14955 Q 192.60223,293.14955 192.96852,293.2542 193.36096,293.35885 193.5441,293.54199 L 196.50054,296.49843 Q 196.63136,296.62924 196.63136,296.78622 L 196.63136,297.04786 Q 196.63136,297.51879 196.34356,297.80659 196.05577,298.09438 195.55867,298.09438 195.42785,298.09438 195.27087,298.12054 195.14006,298.12054 195.0354,297.98973 194.93075,297.91124 194.69528,297.70193 194.45981,297.46647 194.17202,297.20483 193.91039,296.9432 193.67492,296.7339 193.43945,296.49843 193.3348,296.41994 193.25631,296.34145 193.07317,296.2368 192.89003,296.10598 192.75921,296.10598 L 183.54978,296.10598 Q 183.36664,296.10598 183.13117,296.26296 182.92187,296.39378 182.71256,296.60308 182.52942,296.78622 182.39861,297.02169 182.26779,297.231 182.26779,297.41414 L 182.26779,299.19323 182.55558,299.76882 184.23003,301.54792 Q 184.387,301.70489 184.51782,302.1235 184.6748,302.54211 184.6748,302.75142 L 184.6748,306.5974 Q 184.6748,306.85903 184.85794,307.12066 185.06725,307.35613 185.35504,307.56544 185.64284,307.74858 185.95679,307.8794 186.27075,307.98405 186.50622,307.98405 L 192.36676,307.98405 Q 192.57607,307.98405 192.86386,307.8794 193.17782,307.74858 193.3348,307.5916 193.43945,307.51311 193.67492,307.30381 193.91039,307.06834 194.17202,306.80671 194.45981,306.54508 194.69528,306.33577 194.93075,306.1003 195.0354,306.02181 195.14006,305.891 195.27087,305.91716 195.42785,305.91716 195.55867,305.91716 196.05577,305.91716 196.34356,306.20495 196.63136,306.46659 196.63136,306.96369 L 196.63136,307.25148 Q 196.63136,307.35613 196.50054,307.48695 L 193.5441,310.46955 Q 193.36096,310.65269 192.96852,310.75734 192.60223,310.86199 192.36676,310.86199 L 183.94223,310.86199 Q 183.70676,310.86199 183.31432,310.75734 182.94803,310.65269 182.76489,310.46955 L 179.67764,307.40846 Z"
         id="path4195"
         inkscape:connector-curvature="0" />
    </g>
    <text
       xml:space="preserve"
       style="font-style:normal;font-variant:normal;font-weight:normal;font-stretch:normal;font-size:18.98970795px;line-height:125%;font-family:'Chintzy CPU (BRK)';-inkscape-font-specification:'Chintzy CPU (BRK)';letter-spacing:0px;word-spacing:0px;fill:#000000;fill-opacity:1;stroke:none;stroke-width:1px;stroke-linecap:butt;stroke-linejoin:miter;stroke-opacity:1"
       x="182.70634"
       y="285.064"
       id="text4176"
       sodipodi:linespacing="125%"
       transform="scale(0.88294912,1.1325681)"><tspan
         sodipodi:role="line"
         id="tspan4178"
         x="182.70634"
         y="285.064">503</tspan></text>
  </g>
</svg>
