<?xml version="1.0" encoding="UTF-8" standalone="no"?>
<!-- Created with Inkscape (http://www.inkscape.org/) -->

<svg
   xmlns:dc="http://purl.org/dc/elements/1.1/"
   xmlns:cc="http://creativecommons.org/ns#"
   xmlns:rdf="http://www.w3.org/1999/02/22-rdf-syntax-ns#"
   xmlns:svg="http://www.w3.org/2000/svg"
   xmlns="http://www.w3.org/2000/svg"
   xmlns:sodipodi="http://sodipodi.sourceforge.net/DTD/sodipodi-0.dtd"
   xmlns:inkscape="http://www.inkscape.org/namespaces/inkscape"
   width="11.999999mm"
   height="9.0906887mm"
   viewBox="0 0 42.519682 32.211102"
   id="svg5159"
   version="1.1"
   inkscape:version="0.91 r13725"
   sodipodi:docname="donut.svg">
  <defs
     id="defs5161" />
  <sodipodi:namedview
     id="base"
     pagecolor="#ffffff"
     bordercolor="#666666"
     borderopacity="1.0"
     inkscape:pageopacity="0.0"
     inkscape:pageshadow="2"
     inkscape:zoom="15.839192"
     inkscape:cx="17.887738"
     inkscape:cy="19.975644"
     inkscape:document-units="px"
     inkscape:current-layer="layer1"
     showgrid="false"
     fit-margin-top="0"
     fit-margin-left="0"
     fit-margin-right="0"
     fit-margin-bottom="0"
     inkscape:window-width="2560"
     inkscape:window-height="1415"
     inkscape:window-x="2560"
     inkscape:window-y="0"
     inkscape:window-maximized="1" />
  <metadata
     id="metadata5164">
    <rdf:RDF>
      <cc:Work
         rdf:about="">
        <dc:format>image/svg+xml</dc:format>
        <dc:type
           rdf:resource="http://purl.org/dc/dcmitype/StillImage" />
        <dc:title></dc:title>
      </cc:Work>
    </rdf:RDF>
  </metadata>
  <g
     inkscape:label="Layer 1"
     inkscape:groupmode="layer"
     id="layer1"
     transform="translate(-226.25176,-455.93536)">
    <path
       style="fill:#000000"
       d="M 243.60843,488.01667 C 241.85233,487.78008 239.13612,487.07324 237.463,486.41746 230.34273,483.62663 226.25176,478.39599 226.25176,472.08295 226.25176,465.36618 230.82277,459.92391 238.66709,457.3012 241.6593,456.30076 244.02547,455.93536 247.5116,455.93536 250.99773,455.93536 253.3639,456.30076 256.35611,457.3012 264.20043,459.92391 268.77144,465.36618 268.77144,472.08295 268.77144,479.71863 262.88764,485.62342 253.20657,487.70334 251.33836,488.10471 245.64216,488.29066 243.60843,488.01667 Z M 244.97191,478.97584 C 247.03885,478.23702 247.89812,478.22155 249.58776,478.89274 250.27764,479.1668 251.08012,479.39102 251.37104,479.39102 251.66558,479.39102 252.71256,479.00459 253.73354,478.51904 L 255.56709,477.64705 257.73656,477.62559 C 260.74908,477.59579 260.83757,477.56748 261.64796,476.37413 262.46522,475.17065 263.40755,474.53743 264.94012,474.16185 265.75044,473.96327 266.21105,473.74376 266.54177,473.39856 266.97143,472.9501 267.00412,472.82183 266.98076,471.67628 266.91694,468.54753 265.67995,465.8421 263.18254,463.36914 260.61329,460.82505 257.09235,459.09283 252.49438,458.11082 249.96722,457.57109 245.05598,457.57109 242.52882,458.11082 236.66723,459.36271 232.34575,461.96693 229.89161,465.72629 229.06174,466.99752 228.54264,468.69633 228.32985,470.83726 228.19292,472.21506 228.38121,472.73916 229.21486,473.30054 229.59887,473.55913 230.31918,474.27972 230.81556,474.90184 231.31195,475.52396 231.98702,476.19919 232.31572,476.40234 232.86313,476.74066 233.04175,476.7622 234.44077,476.65863 236.14843,476.53222 236.34841,476.60152 238.95764,478.22384 241.36513,479.72072 242.49337,479.86179 244.97191,478.97584 Z M 249.46319,477.71679 C 249.27928,477.60968 249.17253,477.34617 249.17253,476.99936 249.17253,476.49553 249.28768,476.37459 250.59707,475.50321 252.09155,474.50865 252.84435,474.34117 253.20798,474.92234 253.57293,475.50563 253.19822,476.01584 251.70587,476.96763 250.20791,477.92301 249.95963,478.00594 249.46319,477.71679 Z M 240.8679,475.76458 C 239.50723,474.92944 239.28406,474.72941 239.24675,474.31152 239.13925,473.10762 239.9503,473.05931 241.78141,474.16055 243.50048,475.1944 243.69147,475.36789 243.69147,475.8956 243.69147,477.02957 242.86652,476.99129 240.8679,475.76458 Z M 245.51849,472.80914 C 244.75301,472.66169 243.44933,472.20661 242.65952,471.81115 240.8959,470.9281 239.87134,469.44841 239.87134,467.78437 239.87134,464.86731 243.1028,462.72923 247.5116,462.72923 250.20886,462.72923 252.22899,463.39975 253.74679,464.79881 256.06287,466.93369 255.45028,470.24277 252.45622,471.77023 250.90329,472.56248 249.98102,472.77929 247.92683,472.83504 246.83062,472.86479 245.74687,472.85314 245.51849,472.80914 Z M 257.72256,472.36057 C 255.83639,471.69757 255.81623,471.68307 255.81623,470.98944 255.81623,470.05166 256.29293,469.99269 258.3295,470.67854 259.2656,470.99378 260.09093,471.34531 260.16357,471.45972 260.40914,471.84649 260.30269,472.39493 259.93158,472.65486 259.46463,472.98192 259.50586,472.98742 257.72256,472.36057 Z M 233.94372,471.8979 C 232.35747,471.39311 232.08443,471.14578 232.31419,470.42185 232.52436,469.75965 232.92942,469.73199 234.7494,470.25551 236.82027,470.85121 237.20349,471.2174 236.62312,472.04599 236.28645,472.52666 235.84238,472.50211 233.94372,471.8979 Z M 259.91409,467.88912 C 259.29583,466.4627 258.6398,464.6414 258.6398,464.35139 258.6398,463.84541 259.01761,463.57975 259.64804,463.64242 260.15627,463.69295 260.20799,463.76811 260.82154,465.34769 261.50228,467.10028 261.58494,467.57654 261.26406,467.89742 261.00155,468.15993 260.02888,468.15394 259.91409,467.88912 Z M 231.76603,466.40259 C 231.44543,466.08199 231.53505,465.35941 231.94043,464.99654 232.73324,464.28685 234.33796,463.28005 234.6763,463.28005 235.14879,463.28005 235.55294,463.70746 235.55294,464.20712 235.55294,464.52235 235.25172,464.83284 234.19478,465.60705 232.83539,466.6028 232.18069,466.81725 231.76603,466.40259 Z M 238.77269,462.57415 C 237.76479,461.20788 237.63396,460.84967 237.9607,460.35101 238.24279,459.92049 238.82487,459.83599 239.23652,460.16581 239.71447,460.54876 240.8679,462.42709 240.8679,462.82248 240.8679,463.3418 240.57203,463.61223 240.00387,463.61223 239.62539,463.61223 239.39545,463.41836 238.77269,462.57415 Z M 251.66391,461.78521 C 250.92487,461.04617 251.45094,460.45235 253.36357,459.86668 254.99023,459.36857 255.5894,459.40924 255.74477,460.0283 255.93105,460.77049 255.57572,461.07588 253.90216,461.61197 253.03434,461.88996 252.25046,462.1174 252.1602,462.1174 252.06995,462.1174 251.84661,461.96792 251.66391,461.78521 Z M 244.68893,460.35973 C 243.14805,460.07887 242.73825,459.64563 243.19904,458.78463 243.3143,458.56927 243.54699,458.46337 243.90493,458.46339 244.41256,458.46342 246.76883,458.86675 247.38665,459.05937 247.76244,459.17654 247.92359,459.83093 247.68597,460.27491 247.46304,460.69146 246.63711,460.71484 244.68893,460.35973 Z"
       id="path5232"
       inkscape:connector-curvature="0"
       sodipodi:nodetypes="sssssssssscsscsssssssssssssssscsssscscssscsssssscssssssssssscscsscsssssssssssscsssscscsccs" />
  </g>
</svg>
