<?xml version="1.0" encoding="UTF-8" standalone="no"?>
<!-- Created with Inkscape (http://www.inkscape.org/) -->

<svg
   xmlns:dc="http://purl.org/dc/elements/1.1/"
   xmlns:cc="http://creativecommons.org/ns#"
   xmlns:rdf="http://www.w3.org/1999/02/22-rdf-syntax-ns#"
   xmlns:svg="http://www.w3.org/2000/svg"
   xmlns="http://www.w3.org/2000/svg"
   xmlns:sodipodi="http://sodipodi.sourceforge.net/DTD/sodipodi-0.dtd"
   xmlns:inkscape="http://www.inkscape.org/namespaces/inkscape"
   width="12mm"
   height="11.150917mm"
   viewBox="0 0 42.519685 39.511123"
   id="svg2"
   version="1.1"
   inkscape:version="0.91 r13725"
   sodipodi:docname="heart.svg">
  <defs
     id="defs4" />
  <sodipodi:namedview
     id="base"
     pagecolor="#ffffff"
     bordercolor="#666666"
     borderopacity="1.0"
     inkscape:pageopacity="0.0"
     inkscape:pageshadow="2"
     inkscape:zoom="22.4"
     inkscape:cx="14.896266"
     inkscape:cy="15.141582"
     inkscape:document-units="px"
     inkscape:current-layer="layer1"
     showgrid="false"
     inkscape:window-width="2560"
     inkscape:window-height="1415"
     inkscape:window-x="2560"
     inkscape:window-y="0"
     inkscape:window-maximized="1"
     fit-margin-top="0"
     fit-margin-left="0"
     fit-margin-right="0"
     fit-margin-bottom="0" />
  <metadata
     id="metadata7">
    <rdf:RDF>
      <cc:Work
         rdf:about="">
        <dc:format>image/svg+xml</dc:format>
        <dc:type
           rdf:resource="http://purl.org/dc/dcmitype/StillImage" />
        <dc:title></dc:title>
      </cc:Work>
    </rdf:RDF>
  </metadata>
  <g
     inkscape:label="Layer 1"
     inkscape:groupmode="layer"
     id="layer1"
     transform="translate(-336.77132,-478.41768)">
    <path
       style="fill:#000000"
       d="M 357.19509,517.13049 C 354.94775,514.01118 352.3935,511.35777 347.44574,507.00267 342.62796,502.76197 340.88504,500.9564 339.3634,498.62976 338.04176,496.60892 337.2587,494.55824 336.89679,492.17023 336.74521,491.17005 336.72696,488.91712 336.86402,488.12549 337.16147,486.40745 337.69285,484.99895 338.53439,483.69796 341.37225,479.31069 346.62008,477.40211 351.59485,478.94801 352.36187,479.18636 353.88049,479.93399 354.57555,480.41543 355.69263,481.18919 356.80155,482.31132 357.54892,483.42419 357.77833,483.76579 357.98978,484.04528 358.01881,484.04528 358.04785,484.04528 358.2593,483.76579 358.48871,483.42419 359.23608,482.31132 360.345,481.18919 361.46208,480.41543 362.15714,479.93399 363.67576,479.18636 364.44278,478.94801 366.52137,478.30209 368.66682,478.24968 370.79291,478.79288 372.93687,479.34064 375.06152,480.66842 376.51859,482.37109 377.40811,483.41053 378.07212,484.52696 378.54838,485.78381 379.94985,489.48232 379.34062,494.11703 376.94987,497.94437 375.42492,500.38566 373.66481,502.2295 368.23709,507.07165 363.63931,511.1734 361.05261,513.92556 358.94245,516.9608 358.29425,517.89317 358.26029,517.9288 358.01986,517.9288 357.78321,517.9288 357.74034,517.8873 357.19509,517.13049 Z M 358.87459,515.40971 C 359.80455,514.15766 360.46391,513.37197 361.82235,511.89718 363.48389,510.0933 364.8998,508.73994 368.16613,505.83358 373.41965,501.15903 375.31419,499.06291 376.74266,496.34452 378.22632,493.5211 378.71239,489.97489 377.99513,487.20688 377.53351,485.42544 376.58968,483.78757 375.25647,482.45436 373.60356,480.80146 371.58873,479.80384 369.21731,479.46417 368.37022,479.34283 366.5622,479.41742 365.718,479.60853 362.49127,480.339 359.95798,482.36973 358.43499,485.44675 358.22733,485.8663 358.04005,486.20957 358.01881,486.20957 357.99758,486.20957 357.8103,485.8663 357.60264,485.44675 356.99429,484.21765 356.38566,483.36252 355.46789,482.44742 353.97236,480.95624 352.37012,480.07272 350.31963,479.60853 349.47543,479.41742 347.66741,479.34283 346.82032,479.46417 344.4489,479.80384 342.43407,480.80146 340.78116,482.45436 339.12915,484.10637 338.13054,486.12247 337.79145,488.4903 337.65338,489.45442 337.73898,491.47754 337.96966,492.70243 338.33085,494.62024 339.09949,496.48089 340.23714,498.19132 341.70851,500.40349 343.35661,502.10638 347.90698,506.11611 350.68777,508.56651 351.85486,509.65191 353.37092,511.19762 355.28164,513.14572 356.45013,514.48346 357.55757,515.99071 357.87387,516.42119 358.00305,516.5487 358.06002,516.48666 358.1022,516.44073 358.46875,515.9561 358.87459,515.40971 Z"
       id="path4225"
       inkscape:connector-curvature="0" />
  </g>
</svg>
