<?xml version="1.0" encoding="UTF-8" standalone="no"?>
<svg
   xmlns:dc="http://purl.org/dc/elements/1.1/"
   xmlns:cc="http://creativecommons.org/ns#"
   xmlns:rdf="http://www.w3.org/1999/02/22-rdf-syntax-ns#"
   xmlns:svg="http://www.w3.org/2000/svg"
   xmlns="http://www.w3.org/2000/svg"
   xmlns:sodipodi="http://sodipodi.sourceforge.net/DTD/sodipodi-0.dtd"
   xmlns:inkscape="http://www.inkscape.org/namespaces/inkscape"
   width="10mm"
   height="2.4975896mm"
   id="svg2"
   version="1.1"
   inkscape:version="0.91 r13725"
   sodipodi:docname="mustache.svg">
  <metadata
     id="metadata14">
    <rdf:RDF>
      <cc:Work
         rdf:about="">
        <dc:format>image/svg+xml</dc:format>
        <dc:type
           rdf:resource="http://purl.org/dc/dcmitype/StillImage" />
        <dc:title></dc:title>
      </cc:Work>
    </rdf:RDF>
  </metadata>
  <defs
     id="defs12" />
  <sodipodi:namedview
     pagecolor="#ffffff"
     bordercolor="#666666"
     borderopacity="1"
     objecttolerance="10"
     gridtolerance="10"
     guidetolerance="10"
     inkscape:pageopacity="0"
     inkscape:pageshadow="2"
     inkscape:window-width="2560"
     inkscape:window-height="1415"
     id="namedview10"
     showgrid="false"
     inkscape:zoom="34.341289"
     inkscape:cx="11.290233"
     inkscape:cy="0.73705603"
     inkscape:window-x="2560"
     inkscape:window-y="0"
     inkscape:window-maximized="1"
     inkscape:current-layer="g4"
     units="mm"
     fit-margin-top="0"
     fit-margin-left="0"
     fit-margin-right="0"
     fit-margin-bottom="0" />
  <g
     id="g4"
     transform="translate(-448.6168,-236.57514)">
    <title
       id="title6">Layer 1</title>
    <path
       id="svg_2"
       d="M 479.64209,237.77105 479.59084,237.77105 479.59084,237.8223 479.53958,237.8223 479.53958,237.8223 479.53958,237.87355 479.53958,237.87355 479.53958,237.87355 479.48833,237.87355 479.48833,237.87355 479.48833,237.92481 479.43708,237.92481 479.43708,237.92481 479.43708,237.97606 479.33457,237.97606 479.28332,237.97606 479.28332,237.92481 479.33457,237.87355 479.33457,237.8223 479.33457,237.77105 479.38582,237.77105 479.38582,237.77105 479.38582,237.71979 479.43708,237.71979 479.43708,237.71979 479.43708,237.66854 479.43708,237.66854 479.43708,237.66854 479.48833,237.61729 479.53958,237.56603 479.53958,237.56603 479.53958,237.56603 479.53958,237.51478 Q 479.53958,237.51478 479.69334,237.41227 479.79585,237.25851 480.20588,237.0535 480.6159,236.84849 481.07718,236.84849 481.58971,236.84849 481.89723,237.00225 482.25601,237.15601 482.66603,237.46353 483.0248,237.77105 483.38358,238.23233 483.74235,238.6936 483.89611,239.20614 484.04987,239.76992 484.04987,240.33371 484.04987,240.94875 483.89611,241.46128 483.74235,242.02506 483.33232,242.58885 483.0248,243.15264 482.61478,243.51141 482.20475,243.87018 481.53846,244.22895 480.87217,244.63898 480.00086,244.84399 479.12956,245.15151 478.10449,245.25402 477.13068,245.35653 475.84935,245.25402 474.51677,245.25402 473.08168,244.9465 471.64659,244.63898 470.41651,244.22895 469.18643,243.81893 468.26387,243.3064 467.39257,242.79386 466.93129,242.38384 466.41876,241.97381 466.31625,241.92256 466.21374,241.87131 466.00873,242.02506 465.85497,242.17882 465.18868,242.69136 464.52239,243.20389 463.59983,243.61392 462.67727,244.02394 461.39594,244.43397 460.16586,244.84399 458.62826,245.10026 457.09067,245.35653 456.0656,245.40778 455.09179,245.45903 454.63051,245.35653 454.16923,245.35653 453.19542,245.10026 452.17036,244.84399 451.45281,244.53647 450.78652,244.22895 450.32524,243.92143 449.86396,243.51141 449.50519,243.05013 449.09516,242.5376 448.89015,241.92256 448.68514,241.30752 448.63388,240.64123 448.58263,240.02619 448.68514,239.61616 448.78764,239.25739 448.99265,238.74486 449.30017,238.23233 449.45393,238.07857 449.65895,237.87355 449.65895,237.8223 449.65895,237.77105 449.76145,237.71979 449.86396,237.66854 450.32524,237.41227 450.78652,237.15601 451.3503,237.15601 451.96534,237.15601 452.37537,237.30977 L 452.78539,237.46353 452.78539,237.51478 452.78539,237.51478 452.83665,237.51478 452.83665,237.56603 452.83665,237.56603 452.8879,237.56603 452.8879,237.56603 452.8879,237.56603 452.93915,237.61729 452.99041,237.66854 452.99041,237.66854 452.99041,237.66854 453.04166,237.66854 453.04166,237.66854 453.04166,237.71979 453.09291,237.71979 453.09291,237.77105 453.09291,237.8223 452.99041,237.8223 452.83665,237.77105 452.78539,237.77105 452.73414,237.77105 452.73414,237.71979 452.68289,237.71979 452.68289,237.71979 452.68289,237.66854 452.47788,237.66854 Q 452.32412,237.56603 451.91409,237.61729 451.50406,237.66854 451.19654,237.87355 450.94028,238.12982 450.73527,238.48859 450.53025,238.84736 450.53025,239.51366 450.53025,240.2312 450.73527,240.48747 450.88902,240.74373 451.14529,240.89749 451.40156,241.05125 451.86284,241.05125 452.37537,241.05125 453.09291,240.74373 453.86171,240.43621 455.04054,239.76992 456.27061,239.10363 457.44944,238.38608 458.67952,237.66854 459.55082,237.25851 460.47338,236.84849 461.08842,236.74598 461.75471,236.54097 462.57476,236.59222 463.39481,236.64347 464.16361,236.84849 464.93241,237.15601 465.4962,237.51478 466.11124,237.87355 466.16249,237.92481 466.21374,237.97606 466.77753,237.56603 467.34131,237.15601 468.11011,236.95099 468.87891,236.64347 469.23768,236.64347 469.59646,236.54097 470.51901,236.59222 471.44157,236.64347 472.15912,236.79723 472.82541,236.95099 473.79922,237.46353 474.77303,237.97606 476.61815,239.20614 478.46327,240.43621 479.12956,240.64123 479.7446,240.94875 480.30838,240.94875 480.87217,240.94875 481.28219,240.74373 481.69222,240.53872 481.89723,240.33371 482.10225,240.07744 482.10225,239.4624 482.10225,238.84736 481.89723,238.48859 481.69222,238.12982 481.43595,237.87355 481.17969,237.66854 480.97467,237.56603 480.71841,237.46353 480.35964,237.46353 480.05212,237.46353 479.8471,237.61729 479.69334,237.77105 479.64209,237.77105 Z"
       inkscape:connector-curvature="0"
       style="fill:#000000;fill-rule:evenodd;stroke-width:1px" />
  </g>
</svg>
