  0
SECTION
  2
HEADER
  9
$ACADVER
  1
AC1014
  9
$HANDSEED
  5
FFFF
  9
$MEASUREMENT
 70
     1
  0
ENDSEC
  0
SECTION
  2
TABLES
  0
TABLE
  2
VPORT
  5
8
330
0
100
AcDbSymbolTable
 70
     4
  0
VPORT
  5
2E
330
8
100
AcDbSymbolTableRecord
100
AcDbViewportTableRecord
  2
*ACTIVE
 70
     0
 10
0.0
 20
0.0
 11
1.0
 21
1.0
 12
210.0
 22
148.5
 13
0.0
 23
0.0
 14
10.0
 24
10.0
 15
10.0
 25
10.0
 16
0.0
 26
0.0
 36
1.0
 17
0.0
 27
0.0
 37
0.0
 40
341.0
 41
1.24
 42
50.0
 43
0.0
 44
0.0
 50
0.0
 51
0.0
 71
     0
 72
   100
 73
     1
 74
     3
 75
     0
 76
     0
 77
     0
 78
     0
  0
ENDTAB
  0
TABLE
  2
LTYPE
  5
5
330
0
100
AcDbSymbolTable
 70
     1
  0
LTYPE
  5
14
330
5
100
AcDbSymbolTableRecord
100
AcDbLinetypeTableRecord
  2
BYBLOCK
 70
     0
  3

 72
    65
 73
     0
 40
0.0
  0
LTYPE
  5
15
330
5
100
AcDbSymbolTableRecord
100
AcDbLinetypeTableRecord
  2
BYLAYER
 70
     0
  3

 72
    65
 73
     0
 40
0.0
  0
LTYPE
  5
16
330
5
100
AcDbSymbolTableRecord
100
AcDbLinetypeTableRecord
  2
CONTINUOUS
 70
     0
  3
Solid line
 72
    65
 73
     0
 40
0.0
  0
ENDTAB
  0
TABLE
  2
LAYER
  5
2
100
AcDbSymbolTable
 70
2
  0
LAYER
  5
50
100
AcDbSymbolTableRecord
100
AcDbLayerTableRecord
  2
0
 70
0
  6
CONTINUOUS
  0
LAYER
  5
51
100
AcDbSymbolTableRecord
100
AcDbLayerTableRecord
  2
Layer_1
 70
0
  6
CONTINUOUS
  0
ENDTAB
  0
TABLE
  2
STYLE
  5
3
330
0
100
AcDbSymbolTable
 70
     1
  0
STYLE
  5
11
330
3
100
AcDbSymbolTableRecord
100
AcDbTextStyleTableRecord
  2
STANDARD
 70
     0
 40
0.0
 41
1.0
 50
0.0
 71
     0
 42
2.5
  3
txt
  4

  0
ENDTAB
  0
TABLE
  2
VIEW
  5
6
330
0
100
AcDbSymbolTable
 70
     0
  0
ENDTAB
  0
TABLE
  2
UCS
  5
7
330
0
100
AcDbSymbolTable
 70
     0
  0
ENDTAB
  0
TABLE
  2
APPID
  5
9
330
0
100
AcDbSymbolTable
 70
     2
  0
APPID
  5
12
330
9
100
AcDbSymbolTableRecord
100
AcDbRegAppTableRecord
  2
ACAD
 70
     0
  0
ENDTAB
  0
TABLE
  2
DIMSTYLE
  5
A
330
0
100
AcDbSymbolTable
 70
     1
  0
DIMSTYLE
105
27
330
A
100
AcDbSymbolTableRecord
100
AcDbDimStyleTableRecord
  2
ISO-25
 70
     0
  3

  4

  5

  6

  7

 40
1.0
 41
2.5
 42
0.625
 43
3.75
 44
1.25
 45
0.0
 46
0.0
 47
0.0
 48
0.0
140
2.5
141
2.5
142
0.0
143
0.03937007874016
144
1.0
145
0.0
146
1.0
147
0.625
 71
     0
 72
     0
 73
     0
 74
     0
 75
     0
 76
     0
 77
     1
 78
     8
170
     0
171
     3
172
     1
173
     0
174
     0
175
     0
176
     0
177
     0
178
     0
270
     2
271
     2
272
     2
273
     2
274
     3
340
11
275
     0
280
     0
281
     0
282
     0
283
     0
284
     8
285
     0
286
     0
287
     3
288
     0
  0
ENDTAB
  0
TABLE
  2
BLOCK_RECORD
  5
1
330
0
100
AcDbSymbolTable
 70
     1
  0
BLOCK_RECORD
  5
1F
330
1
100
AcDbSymbolTableRecord
100
AcDbBlockTableRecord
  2
*MODEL_SPACE
  0
BLOCK_RECORD
  5
1B
330
1
100
AcDbSymbolTableRecord
100
AcDbBlockTableRecord
  2
*PAPER_SPACE
  0
ENDTAB
  0
ENDSEC
  0
SECTION
  2
BLOCKS
  0
BLOCK
  5
20
330
1F
100
AcDbEntity
  8
0
100
AcDbBlockBegin
  2
*MODEL_SPACE
 70
     0
 10
0.0
 20
0.0
 30
0.0
  3
*MODEL_SPACE
  1

  0
ENDBLK
  5
21
330
1F
100
AcDbEntity
  8
0
100
AcDbBlockEnd
  0
BLOCK
  5
1C
330
1B
100
AcDbEntity
 67
     1
  8
0
100
AcDbBlockBegin
  2
*PAPER_SPACE
  1

  0
ENDBLK
  5
1D
330
1B
100
AcDbEntity
 67
     1
  8
0
100
AcDbBlockEnd
  0
ENDSEC
  0
SECTION
  2
ENTITIES
  0
SPLINE
  5
100
100
AcDbEntity
  8
Layer_1
 62
7
100
AcDbSpline
 70
0
 71
3
 72
28
 73
24
 74
22
 40
0.000000
 40
0.000000
 40
0.000000
 40
0.000000
 40
0.141454
 40
0.296474
 40
0.432837
 40
0.937359
 40
1.672626
 40
2.527009
 40
3.346318
 40
3.919877
 40
4.403645
 40
4.662254
 40
4.865784
 40
5.120841
 40
5.319333
 40
5.493316
 40
5.607126
 40
5.726922
 40
5.921523
 40
6.194838
 40
7.169018
 40
8.006920
 40
9.223863
 40
9.223863
 40
9.223863
 40
9.223863
 10
2.046574
 20
0.129812
 30
0.0
 10
2.008433
 20
0.157598
 30
0.0
 10
1.928492
 20
0.215834
 30
0.0
 10
1.822809
 20
0.314469
 30
0.0
 10
1.644762
 20
0.512230
 30
0.0
 10
1.447620
 20
0.933932
 30
0.0
 10
1.186749
 20
1.578558
 30
0.0
 10
0.949289
 20
2.347625
 30
0.0
 10
0.755149
 20
3.070463
 30
0.0
 10
0.625438
 20
3.684172
 30
0.0
 10
0.598567
 20
4.122506
 30
0.0
 10
0.595006
 20
4.438808
 30
0.0
 10
0.648415
 20
4.674687
 30
0.0
 10
0.751633
 20
4.868767
 30
0.0
 10
0.842120
 20
5.058217
 30
0.0
 10
0.895464
 20
5.209371
 30
0.0
 10
0.937082
 20
5.344072
 30
0.0
 10
0.881585
 20
5.482809
 30
0.0
 10
0.773985
 20
5.644853
 30
0.0
 10
0.468371
 20
6.015130
 30
0.0
 10
0.006092
 20
6.573424
 30
0.0
 10
-0.019017
 20
7.639787
 30
0.0
 10
0.268851
 20
8.266749
 30
0.0
 10
0.439335
 20
8.638056
 30
0.0
 11
2.046574
 21
0.129812
 31
0.0
 11
1.933869
 21
0.215292
 31
0.0
 11
1.819941
 21
0.320419
 31
0.0
 11
1.729455
 21
0.422434
 31
0.0
 11
1.484512
 21
0.863508
 31
0.0
 11
1.210429
 21
1.545780
 31
0.0
 11
0.951145
 21
2.359870
 31
0.0
 11
0.742242
 21
3.152099
 31
0.0
 11
0.634384
 21
3.715425
 31
0.0
 11
0.599220
 21
4.197913
 31
0.0
 11
0.606121
 21
4.456431
 31
0.0
 11
0.652041
 21
4.654712
 31
0.0
 11
0.758670
 21
4.886411
 31
0.0
 11
0.842005
 21
5.066562
 31
0.0
 11
0.901266
 21
5.230141
 31
0.0
 11
0.923623
 21
5.341734
 31
0.0
 11
0.888839
 21
5.456368
 31
0.0
 11
0.786062
 21
5.621616
 31
0.0
 11
0.616317
 21
5.835829
 31
0.0
 11
0.087637
 21
6.654075
 31
0.0
 11
0.034823
 21
7.490310
 31
0.0
 11
0.439335
 21
8.638056
 31
0.0
  0
LWPOLYLINE
  5
101
100
AcDbEntity
  8
Layer_1
 62
7
100
AcDbPolyline
 90
3
 70
1
 10
0.439335
 20
8.638056
 30
0.0
 10
0.634881
 20
9.075100
 30
0.0
 10
0.670887
 20
10.129149
 30
0.0
  0
SPLINE
  5
102
100
AcDbEntity
  8
Layer_1
 62
7
100
AcDbSpline
 70
0
 71
3
 72
10
 73
6
 74
4
 40
0.000000
 40
0.000000
 40
0.000000
 40
0.000000
 40
0.997393
 40
1.554054
 40
2.174971
 40
2.174971
 40
2.174971
 40
2.174971
 10
0.670887
 20
10.129149
 30
0.0
 10
0.672634
 20
10.460888
 30
0.0
 10
0.675356
 20
10.977775
 30
0.0
 10
0.859681
 20
11.702771
 30
0.0
 10
1.147793
 20
11.981103
 30
0.0
 10
1.299710
 20
12.127864
 30
0.0
 11
0.670887
 21
10.129149
 31
0.0
 11
0.729257
 21
11.124833
 31
0.0
 11
0.896316
 21
11.655833
 31
0.0
 11
1.299710
 21
12.127864
 31
0.0
  0
LWPOLYLINE
  5
103
100
AcDbEntity
  8
Layer_1
 62
7
100
AcDbPolyline
 90
3
 70
1
 10
1.299710
 20
12.127864
 30
0.0
 10
1.732805
 20
12.571455
 30
0.0
 10
1.761270
 20
13.188460
 30
0.0
  0
SPLINE
  5
104
100
AcDbEntity
  8
Layer_1
 62
7
100
AcDbSpline
 70
0
 71
3
 72
34
 73
30
 74
28
 40
0.000000
 40
0.000000
 40
0.000000
 40
0.000000
 40
0.634429
 40
1.182517
 40
1.844717
 40
2.509329
 40
3.047811
 40
3.849196
 40
4.350521
 40
4.795501
 40
5.089963
 40
5.406336
 40
5.907889
 40
6.486215
 40
7.067806
 40
7.578145
 40
7.907388
 40
8.242248
 40
8.757155
 40
9.505720
 40
10.148546
 40
10.647649
 40
10.895394
 40
11.019894
 40
11.194130
 40
11.380852
 40
11.603395
 40
11.871428
 40
12.127062
 40
12.127062
 40
12.127062
 40
12.127062
 10
1.761270
 20
13.188460
 30
0.0
 10
1.773033
 20
13.400023
 30
0.0
 10
1.794959
 20
13.794356
 30
0.0
 10
1.949296
 20
14.393980
 30
0.0
 10
2.205256
 20
14.964238
 30
0.0
 10
2.483108
 20
15.525032
 30
0.0
 10
2.591392
 20
16.192545
 30
0.0
 10
2.551248
 20
16.806528
 30
0.0
 10
2.541543
 20
17.388800
 30
0.0
 10
2.542621
 20
17.802633
 30
0.0
 10
2.567257
 20
18.153894
 30
0.0
 10
2.610621
 20
18.522210
 30
0.0
 10
2.641620
 20
18.986737
 30
0.0
 10
2.673848
 20
19.539600
 30
0.0
 10
2.710399
 20
20.095078
 30
0.0
 10
2.750734
 20
20.567424
 30
0.0
 10
2.810939
 20
20.954273
 30
0.0
 10
2.873153
 20
21.342658
 30
0.0
 10
2.892114
 20
21.876123
 30
0.0
 10
2.904942
 20
22.510709
 30
0.0
 10
2.909684
 20
23.142124
 30
0.0
 10
2.936216
 20
23.602194
 30
0.0
 10
2.936968
 20
23.896941
 30
0.0
 10
3.001928
 20
24.068483
 30
0.0
 10
3.063164
 20
24.217959
 30
0.0
 10
3.147704
 20
24.393315
 30
0.0
 10
3.244884
 20
24.597045
 30
0.0
 10
3.344986
 20
24.824824
 30
0.0
 10
3.411181
 20
24.986341
 30
0.0
 10
3.443495
 20
25.065187
 30
0.0
 11
1.761270
 21
13.188460
 31
0.0
 11
1.818726
 21
13.820282
 31
0.0
 11
1.952867
 21
14.351701
 31
0.0
 11
2.209038
 21
14.962345
 31
0.0
 11
2.467041
 21
15.574835
 31
0.0
 11
2.560780
 21
16.105095
 31
0.0
 11
2.552717
 21
16.906439
 31
0.0
 11
2.542936
 21
17.407669
 31
0.0
 11
2.548767
 21
17.852611
 31
0.0
 11
2.568967
 21
18.146379
 31
0.0
 11
2.601348
 21
18.461091
 31
0.0
 11
2.639262
 21
18.961209
 31
0.0
 11
2.674501
 21
19.538460
 31
0.0
 11
2.713971
 21
20.118710
 31
0.0
 11
2.762972
 21
20.626691
 31
0.0
 11
2.810897
 21
20.952427
 31
0.0
 11
2.858254
 21
21.283922
 31
0.0
 11
2.888265
 21
21.797953
 31
0.0
 11
2.903954
 21
22.546354
 31
0.0
 11
2.916045
 21
23.189066
 31
0.0
 11
2.934935
 21
23.687811
 31
0.0
 11
2.956532
 21
23.934613
 31
0.0
 11
2.996393
 21
24.052560
 31
0.0
 11
3.063166
 21
24.213494
 31
0.0
 11
3.142395
 21
24.382573
 31
0.0
 11
3.237414
 21
24.583811
 31
0.0
 11
3.345587
 21
24.829046
 31
0.0
 11
3.443495
 21
25.065187
 31
0.0
  0
LWPOLYLINE
  5
105
100
AcDbEntity
  8
Layer_1
 62
7
100
AcDbPolyline
 90
3
 70
1
 10
3.443495
 20
25.065187
 30
0.0
 10
3.597983
 20
25.454092
 30
0.0
 10
3.598161
 20
26.751033
 30
0.0
  0
SPLINE
  5
106
100
AcDbEntity
  8
Layer_1
 62
7
100
AcDbSpline
 70
0
 71
3
 72
67
 73
63
 74
61
 40
0.000000
 40
0.000000
 40
0.000000
 40
0.000000
 40
0.771139
 40
1.513871
 40
2.095743
 40
3.062594
 40
3.838607
 40
4.754937
 40
5.439878
 40
5.812281
 40
6.121676
 40
6.412044
 40
6.661927
 40
7.081385
 40
7.492009
 40
7.828818
 40
8.236312
 40
8.891537
 40
9.329262
 40
10.152973
 40
10.590479
 40
11.044884
 40
11.418101
 40
12.109664
 40
12.626562
 40
12.876488
 40
13.259055
 40
13.553136
 40
13.798332
 40
13.939864
 40
14.043974
 40
14.089499
 40
14.147658
 40
14.272109
 40
14.435944
 40
14.626769
 40
14.822560
 40
14.981706
 40
15.302115
 40
15.725700
 40
16.115584
 40
16.467384
 40
16.952277
 40
17.443485
 40
18.082477
 40
18.831707
 40
20.051100
 40
20.786494
 40
21.161777
 40
21.414873
 40
21.834754
 40
22.440306
 40
23.042972
 40
23.476084
 40
23.980884
 40
24.849002
 40
25.674813
 40
26.232192
 40
26.814006
 40
27.164934
 40
27.429857
 40
27.765850
 40
27.765850
 40
27.765850
 40
27.765850
 10
3.598161
 20
26.751033
 30
0.0
 10
3.600409
 20
27.008072
 30
0.0
 10
3.604821
 20
27.512682
 30
0.0
 10
3.628630
 20
28.211008
 30
0.0
 10
3.679672
 20
28.973157
 30
0.0
 10
3.759268
 20
29.744540
 30
0.0
 10
3.759328
 20
30.632407
 30
0.0
 10
3.685209
 20
31.422330
 30
0.0
 10
3.617507
 20
32.075422
 30
0.0
 10
3.595827
 20
32.533335
 30
0.0
 10
3.657597
 20
32.852427
 30
0.0
 10
3.727457
 20
33.129078
 30
0.0
 10
3.702257
 20
33.451746
 30
0.0
 10
3.612844
 20
33.800457
 30
0.0
 10
3.530630
 20
34.180418
 30
0.0
 10
3.491909
 20
34.566703
 30
0.0
 10
3.522919
 20
35.023489
 30
0.0
 10
3.474010
 20
35.577021
 30
0.0
 10
4.043244
 20
35.998039
 30
0.0
 10
4.629376
 20
35.942438
 30
0.0
 10
5.196547
 20
35.992858
 30
0.0
 10
5.617588
 20
36.026883
 30
0.0
 10
6.119481
 20
36.089721
 30
0.0
 10
6.645359
 20
36.159611
 30
0.0
 10
7.122509
 20
36.191120
 30
0.0
 10
7.523883
 20
36.177625
 30
0.0
 10
7.732330
 20
35.916017
 30
0.0
 10
7.952417
 20
35.706124
 30
0.0
 10
8.064941
 20
35.506947
 30
0.0
 10
8.132947
 20
35.355122
 30
0.0
 10
8.178625
 20
35.276112
 30
0.0
 10
8.221292
 20
35.208426
 30
0.0
 10
8.303828
 20
35.247517
 30
0.0
 10
8.411674
 20
35.259194
 30
0.0
 10
8.568738
 20
35.303529
 30
0.0
 10
8.747977
 20
35.338231
 30
0.0
 10
8.928386
 20
35.363319
 30
0.0
 10
9.153401
 20
35.382108
 30
0.0
 10
9.453166
 20
35.331845
 30
0.0
 10
9.819503
 20
35.245847
 30
0.0
 10
10.197387
 20
35.142741
 30
0.0
 10
10.548459
 20
34.927246
 30
0.0
 10
10.900921
 20
34.659515
 30
0.0
 10
11.306032
 20
34.305521
 30
0.0
 10
11.717024
 20
33.818328
 30
0.0
 10
11.981086
 20
32.975603
 30
0.0
 10
12.129445
 20
32.088116
 30
0.0
 10
12.260821
 20
31.325490
 30
0.0
 10
12.361794
 20
30.876285
 30
0.0
 10
12.575288
 20
30.586309
 30
0.0
 10
12.974630
 20
30.405579
 30
0.0
 10
13.488595
 20
30.240919
 30
0.0
 10
14.027644
 20
30.138467
 30
0.0
 10
14.549957
 20
30.133726
 30
0.0
 10
15.110867
 20
30.381331
 30
0.0
 10
15.735570
 20
30.758245
 30
0.0
 10
16.378228
 20
31.148040
 30
0.0
 10
17.007551
 20
31.365837
 30
0.0
 10
17.510122
 20
31.344294
 30
0.0
 10
17.907902
 20
31.312219
 30
0.0
 10
18.225554
 20
31.347648
 30
0.0
 10
18.416805
 20
31.408485
 30
0.0
 10
18.523740
 20
31.442500
 30
0.0
 11
3.598161
 21
26.751033
 31
0.0
 11
3.608221
 21
27.522107
 31
0.0
 11
3.635003
 21
28.264355
 31
0.0
 11
3.673712
 21
28.844938
 31
0.0
 11
3.747450
 21
29.808973
 31
0.0
 11
3.748223
 21
30.584986
 31
0.0
 11
3.676356
 21
31.498493
 31
0.0
 11
3.614968
 21
32.180678
 31
0.0
 11
3.610978
 21
32.553060
 31
0.0
 11
3.661788
 21
32.858254
 31
0.0
 11
3.713856
 21
33.143915
 31
0.0
 11
3.701436
 21
33.393490
 31
0.0
 11
3.614728
 21
33.803888
 31
0.0
 11
3.533760
 21
34.206450
 31
0.0
 11
3.502765
 21
34.541830
 31
0.0
 11
3.508875
 21
34.949278
 31
0.0
 11
3.596385
 21
35.598633
 31
0.0
 11
3.935901
 21
35.874916
 31
0.0
 11
4.754866
 21
35.963215
 31
0.0
 11
5.191435
 21
35.991826
 31
0.0
 11
5.644001
 21
36.032676
 31
0.0
 11
6.014585
 21
36.076922
 31
0.0
 11
6.701333
 21
36.158392
 31
0.0
 11
7.217531
 21
36.185269
 31
0.0
 11
7.465294
 21
36.152459
 31
0.0
 11
7.755217
 21
35.902855
 31
0.0
 11
7.952307
 21
35.684590
 31
0.0
 11
8.077920
 21
35.474014
 31
0.0
 11
8.139627
 21
35.346642
 31
0.0
 11
8.191326
 21
35.256276
 31
0.0
 11
8.221825
 21
35.222478
 31
0.0
 11
8.278909
 21
35.233608
 31
0.0
 11
8.400302
 21
35.261027
 31
0.0
 11
8.559724
 21
35.298799
 31
0.0
 11
8.746826
 21
35.336310
 31
0.0
 11
8.940782
 21
35.363043
 31
0.0
 11
9.099604
 21
35.373213
 31
0.0
 11
9.417702
 21
35.334801
 31
0.0
 11
9.830657
 21
35.240504
 31
0.0
 11
10.201935
 21
35.121499
 31
0.0
 11
10.507289
 21
34.946793
 31
0.0
 11
10.895728
 21
34.656559
 31
0.0
 11
11.262100
 21
34.329363
 31
0.0
 11
11.658383
 21
33.828093
 31
0.0
 11
11.920244
 21
33.126114
 31
0.0
 11
12.157154
 21
31.929958
 31
0.0
 11
12.289722
 21
31.206610
 31
0.0
 11
12.399893
 21
30.847863
 31
0.0
 11
12.551664
 21
30.645321
 31
0.0
 11
12.917210
 21
30.438740
 31
0.0
 11
13.493372
 21
30.252377
 31
0.0
 11
14.087052
 21
30.148692
 31
0.0
 11
14.519960
 21
30.161982
 31
0.0
 11
14.993118
 21
30.337891
 31
0.0
 11
15.748186
 21
30.766262
 31
0.0
 11
16.472015
 21
31.163799
 31
0.0
 11
17.004362
 21
31.328959
 31
0.0
 11
17.586127
 21
31.336484
 31
0.0
 11
17.936785
 21
31.322714
 31
0.0
 11
18.200031
 21
31.352480
 31
0.0
 11
18.523740
 21
31.442500
 31
0.0
  0
LWPOLYLINE
  5
107
100
AcDbEntity
  8
Layer_1
 62
7
100
AcDbPolyline
 90
3
 70
1
 10
18.523740
 20
31.442500
 30
0.0
 10
18.970173
 20
31.581692
 30
0.0
 10
19.703613
 20
31.443951
 30
0.0
  0
SPLINE
  5
108
100
AcDbEntity
  8
Layer_1
 62
7
100
AcDbSpline
 70
0
 71
3
 72
25
 73
21
 74
19
 40
0.000000
 40
0.000000
 40
0.000000
 40
0.000000
 40
0.431711
 40
0.846206
 40
1.153844
 40
1.722372
 40
2.332911
 40
2.942210
 40
3.285906
 40
3.550442
 40
3.901283
 40
4.455873
 40
4.997185
 40
5.806059
 40
6.288744
 40
6.559531
 40
6.754040
 40
7.976456
 40
9.624644
 40
10.794471
 40
10.794471
 40
10.794471
 40
10.794471
 10
19.703613
 20
31.443951
 30
0.0
 10
19.844873
 20
31.416520
 30
0.0
 10
20.121760
 20
31.362750
 30
0.0
 10
20.498604
 20
31.285431
 30
0.0
 10
20.916708
 20
31.184173
 30
0.0
 10
21.404412
 20
31.091659
 30
0.0
 10
22.001471
 20
31.056665
 30
0.0
 10
22.521957
 20
31.084855
 30
0.0
 10
22.926875
 20
31.126715
 30
0.0
 10
23.233459
 20
31.227541
 30
0.0
 10
23.565844
 20
31.431327
 30
0.0
 10
23.999090
 20
31.662871
 30
0.0
 10
24.648848
 20
31.688001
 30
0.0
 10
25.247158
 20
31.559546
 30
0.0
 10
25.755949
 20
31.458671
 30
0.0
 10
26.072212
 20
31.410455
 30
0.0
 10
26.629041
 20
31.517310
 30
0.0
 10
27.578852
 20
31.900464
 30
0.0
 10
28.850921
 20
32.342410
 30
0.0
 10
29.713864
 20
32.714381
 30
0.0
 10
30.072093
 20
32.868795
 30
0.0
 11
19.703613
 21
31.443951
 31
0.0
 11
20.127259
 21
31.360892
 31
0.0
 11
20.532871
 21
31.275548
 31
0.0
 11
20.832637
 21
31.206393
 31
0.0
 11
21.392225
 21
31.105968
 31
0.0
 11
22.001590
 21
31.068130
 31
0.0
 11
22.610250
 21
31.096013
 31
0.0
 11
22.950695
 21
31.143177
 31
0.0
 11
23.201826
 21
31.226321
 31
0.0
 11
23.510048
 21
31.393916
 31
0.0
 11
24.014758
 21
31.623782
 31
0.0
 11
24.554389
 21
31.666398
 31
0.0
 11
25.353244
 21
31.539480
 31
0.0
 11
25.827416
 21
31.449227
 31
0.0
 11
26.097078
 21
31.424568
 31
0.0
 11
26.289367
 21
31.453877
 31
0.0
 11
27.449495
 21
31.839107
 31
0.0
 11
28.993224
 21
32.416535
 31
0.0
 11
30.072093
 21
32.868795
 31
0.0
  0
LWPOLYLINE
  5
109
100
AcDbEntity
  8
Layer_1
 62
7
100
AcDbPolyline
 90
3
 70
1
 10
30.072093
 20
32.868795
 30
0.0
 10
30.709156
 20
33.189673
 30
0.0
 10
31.948814
 20
33.218178
 30
0.0
  0
SPLINE
  5
10a
100
AcDbEntity
  8
Layer_1
 62
7
100
AcDbSpline
 70
0
 71
3
 72
64
 73
60
 74
58
 40
0.000000
 40
0.000000
 40
0.000000
 40
0.000000
 40
0.941061
 40
1.438099
 40
1.962773
 40
2.245211
 40
2.538449
 40
2.877987
 40
4.220918
 40
7.000574
 40
11.417013
 40
14.769407
 40
15.907971
 40
16.462677
 40
17.324491
 40
18.081607
 40
18.603672
 40
18.830718
 40
19.102088
 40
19.332521
 40
19.494831
 40
19.750013
 40
20.043495
 40
20.399122
 40
20.665082
 40
20.922895
 40
21.363123
 40
21.983919
 40
23.132896
 40
23.993738
 40
24.466732
 40
24.805037
 40
25.344610
 40
25.744538
 40
26.209335
 40
26.652351
 40
26.982033
 40
27.363102
 40
27.680516
 40
28.072949
 40
28.735453
 40
29.090744
 40
29.364390
 40
29.497559
 40
29.910818
 40
30.398961
 40
30.856234
 40
31.332663
 40
31.677559
 40
32.068236
 40
32.531614
 40
32.920666
 40
33.580446
 40
34.231153
 40
34.578176
 40
34.819177
 40
35.124241
 40
35.421053
 40
35.748411
 40
35.748411
 40
35.748411
 40
35.748411
 10
31.948814
 20
33.218178
 30
0.0
 10
32.261759
 20
33.220617
 30
0.0
 10
32.739992
 20
33.224345
 30
0.0
 10
33.398105
 20
33.306791
 30
0.0
 10
33.782060
 20
33.522070
 30
0.0
 10
34.117351
 20
33.670796
 30
0.0
 10
34.411516
 20
33.755202
 30
0.0
 10
35.059723
 20
33.875249
 30
0.0
 10
36.553571
 20
33.914687
 30
0.0
 10
39.379184
 20
33.968380
 30
0.0
 10
42.990874
 20
34.060832
 30
0.0
 10
45.724954
 20
33.870892
 30
0.0
 10
47.705406
 20
34.118653
 30
0.0
 10
48.086094
 20
33.275069
 30
0.0
 10
48.475194
 20
32.688480
 30
0.0
 10
48.966556
 20
32.143927
 30
0.0
 10
49.437106
 20
31.939236
 30
0.0
 10
49.775677
 20
31.883816
 30
0.0
 10
49.986986
 20
31.758007
 30
0.0
 10
50.163638
 20
31.616036
 30
0.0
 10
50.255320
 20
31.417194
 30
0.0
 10
50.353509
 20
31.202667
 30
0.0
 10
50.464159
 20
30.921753
 30
0.0
 10
50.568772
 20
30.635239
 30
0.0
 10
50.636703
 20
30.348607
 30
0.0
 10
50.651817
 20
30.026830
 30
0.0
 10
50.611362
 20
29.584220
 30
0.0
 10
50.312494
 20
28.902866
 30
0.0
 10
49.922335
 20
28.120394
 30
0.0
 10
49.554086
 20
27.380438
 30
0.0
 10
49.320807
 20
26.870401
 30
0.0
 10
49.237581
 20
26.426056
 30
0.0
 10
49.190678
 20
26.001219
 30
0.0
 10
48.998657
 20
25.563931
 30
0.0
 10
48.693584
 20
25.247467
 30
0.0
 10
48.403304
 20
24.953232
 30
0.0
 10
48.231604
 20
24.595986
 30
0.0
 10
48.234360
 20
24.249706
 30
0.0
 10
48.204224
 20
23.882001
 30
0.0
 10
47.960552
 20
23.481956
 30
0.0
 10
47.671916
 20
23.115266
 30
0.0
 10
47.408935
 20
22.773678
 30
0.0
 10
47.256875
 20
22.570383
 30
0.0
 10
47.107303
 20
22.340693
 30
0.0
 10
47.000916
 20
22.008556
 30
0.0
 10
46.759998
 20
21.622335
 30
0.0
 10
46.487883
 20
21.234772
 30
0.0
 10
46.208239
 20
20.910496
 30
0.0
 10
46.057692
 20
20.522069
 30
0.0
 10
46.087973
 20
20.121871
 30
0.0
 10
46.109072
 20
19.691525
 30
0.0
 10
46.465656
 20
19.299187
 30
0.0
 10
46.980932
 20
19.057058
 30
0.0
 10
47.458532
 20
18.788044
 30
0.0
 10
47.816650
 20
18.565116
 30
0.0
 10
47.973466
 20
18.304097
 30
0.0
 10
48.042461
 20
18.027153
 30
0.0
 10
48.005587
 20
17.710387
 30
0.0
 10
47.900024
 20
17.528984
 30
0.0
 10
47.844659
 20
17.433844
 30
0.0
 11
31.948814
 21
33.218178
 31
0.0
 11
32.889345
 21
33.249767
 31
0.0
 11
33.378952
 21
33.335388
 31
0.0
 11
33.856890
 21
33.551855
 31
0.0
 11
34.116375
 21
33.663386
 31
0.0
 11
34.397541
 21
33.746656
 31
0.0
 11
34.730981
 21
33.810723
 31
0.0
 11
36.070882
 21
33.900873
 31
0.0
 11
38.849894
 21
33.960747
 31
0.0
 11
43.266202
 21
33.994616
 31
0.0
 11
46.618593
 21
33.999929
 31
0.0
 11
47.748145
 21
33.856968
 31
0.0
 11
48.046857
 21
33.389560
 31
0.0
 11
48.517101
 21
32.667345
 31
0.0
 11
49.057650
 21
32.137222
 31
0.0
 11
49.536319
 21
31.928829
 31
0.0
 11
49.756642
 21
31.873987
 31
0.0
 11
49.995343
 21
31.744900
 31
0.0
 11
50.164927
 21
31.588883
 31
0.0
 11
50.241964
 21
31.446021
 31
0.0
 11
50.346351
 21
31.213166
 31
0.0
 11
50.455489
 21
30.940732
 31
0.0
 11
50.571480
 21
30.604553
 31
0.0
 11
50.629018
 21
30.344891
 31
0.0
 11
50.644544
 21
30.087546
 31
0.0
 11
50.597803
 21
29.649807
 31
0.0
 11
50.381073
 21
29.068070
 31
0.0
 11
49.879597
 21
28.034306
 31
0.0
 11
49.501456
 21
27.260964
 31
0.0
 11
49.323499
 21
26.822724
 31
0.0
 11
49.253227
 21
26.491798
 31
0.0
 11
49.154553
 21
25.961323
 31
0.0
 11
48.989670
 21
25.596967
 31
0.0
 11
48.688196
 21
25.243201
 31
0.0
 11
48.398500
 21
24.908031
 31
0.0
 11
48.262419
 21
24.607744
 31
0.0
 11
48.228230
 21
24.228212
 31
0.0
 11
48.185016
 21
23.913753
 31
0.0
 11
48.004547
 21
23.565279
 31
0.0
 11
47.609486
 21
23.033452
 31
0.0
 11
47.393134
 21
22.751631
 31
0.0
 11
47.232001
 21
22.530457
 31
0.0
 11
47.160970
 21
22.417813
 31
0.0
 11
46.994504
 21
22.039564
 31
0.0
 11
46.750980
 21
21.616505
 31
0.0
 11
46.485429
 21
21.244240
 31
0.0
 11
46.205587
 21
20.858657
 31
0.0
 11
46.087550
 21
20.534589
 31
0.0
 11
46.084657
 21
20.143923
 31
0.0
 11
46.165455
 21
19.687643
 31
0.0
 11
46.411541
 21
19.386308
 31
0.0
 11
46.978686
 21
19.049177
 31
0.0
 11
47.546443
 21
18.731259
 31
0.0
 11
47.824054
 21
18.523037
 31
0.0
 11
47.952248
 21
18.318958
 31
0.0
 11
48.024344
 21
18.022537
 31
0.0
 11
47.988529
 21
17.727893
 31
0.0
 11
47.844659
 21
17.433844
 31
0.0
  0
LWPOLYLINE
  5
10b
100
AcDbEntity
  8
Layer_1
 62
7
100
AcDbPolyline
 90
3
 70
1
 10
47.844659
 20
17.433844
 30
0.0
 10
47.667043
 20
17.169907
 30
0.0
 10
47.793241
 20
16.932559
 30
0.0
  0
SPLINE
  5
10c
100
AcDbEntity
  8
Layer_1
 62
7
100
AcDbSpline
 70
0
 71
3
 72
19
 73
15
 74
13
 40
0.000000
 40
0.000000
 40
0.000000
 40
0.000000
 40
0.415743
 40
0.811889
 40
1.301211
 40
1.816030
 40
3.788834
 40
9.283555
 40
14.262231
 40
16.251325
 40
16.697190
 40
16.818742
 40
16.967278
 40
17.113728
 40
17.113728
 40
17.113728
 40
17.113728
 10
47.793241
 20
16.932559
 30
0.0
 10
47.848911
 20
16.803029
 30
0.0
 10
47.957626
 20
16.550076
 30
0.0
 10
47.877198
 20
16.096936
 30
0.0
 10
47.576676
 20
15.732751
 30
0.0
 10
47.161964
 20
14.814616
 30
0.0
 10
47.484963
 20
12.068456
 30
0.0
 10
47.218659
 20
8.000866
 30
0.0
 10
47.361097
 20
3.764279
 30
0.0
 10
47.242583
 20
1.385127
 30
0.0
 10
47.287262
 20
0.465376
 30
0.0
 10
47.125058
 20
0.283263
 30
0.0
 10
47.020429
 20
0.192147
 30
0.0
 10
46.936121
 20
0.141053
 30
0.0
 10
46.894265
 20
0.115687
 30
0.0
 11
47.793241
 21
16.932559
 31
0.0
 11
47.918585
 21
16.536161
 31
0.0
 11
47.855876
 21
16.145010
 31
0.0
 11
47.600105
 21
15.727856
 31
0.0
 11
47.384226
 21
15.260486
 31
0.0
 11
47.310211
 21
13.289071
 31
0.0
 11
47.302245
 21
7.794355
 31
0.0
 11
47.297739
 21
2.815682
 31
0.0
 11
47.272285
 21
0.826751
 31
0.0
 11
47.207432
 21
0.385627
 31
0.0
 11
47.129824
 21
0.292076
 31
0.0
 11
47.017316
 21
0.195097
 31
0.0
 11
46.894265
 21
0.115687
 31
0.0
  0
LWPOLYLINE
  5
10d
100
AcDbEntity
  8
Layer_1
 62
7
100
AcDbPolyline
 90
5
 70
1
 10
46.894265
 20
0.115687
 30
0.0
 10
46.675715
 20
-0.000001
 30
0.0
 10
24.455574
 20
0.003024
 30
0.0
 10
2.235434
 20
0.006049
 30
0.0
 10
2.046574
 20
0.129812
 30
0.0
  0
ENDSEC
  0
SECTION
  2
OBJECTS
  0
DICTIONARY
  5
C
330
0
100
AcDbDictionary
  3
ACAD_GROUP
350
D
  3
ACAD_MLINESTYLE
350
17
  0
DICTIONARY
  5
D
330
C
100
AcDbDictionary
  0
DICTIONARY
  5
1A
330
C
100
AcDbDictionary
  0
DICTIONARY
  5
17
330
C
100
AcDbDictionary
  3
STANDARD
350
18
  0
DICTIONARY
  5
19
330
C
100
AcDbDictionary
  0
ENDSEC
  0
EOF
