  0
SECTION
  2
HEADER
  9
$ACADVER
  1
AC1009
  9
$EXTMIN
 10
0.0
 20
0.0
 30
0.0
  9
$EXTMAX
 10
1000.0
 20
1000.0
 30
0.0
  9
$FILLMODE
 70
 0
  9
$SPLFRAME
 70
 1
  0
ENDSEC
  0
SECTION
  2
TABLES
  0
TABLE
  2
LAYER
 70
1
  0
LAYER
  2
0
 70
     0
 62
     7
  6
CONTINUOUS
  0
ENDTAB
  0
ENDSEC
  0
SECTION
  2
ENTITIES
  0
LINE
  8
0
 62
     0
 10
5.77398
 20
7.15754
 30
0.0
 11
5.77398
 21
7.44555
 31
0.0
  0
LINE
  8
0
 62
     0
 10
5.77398
 20
7.44555
 30
0.0
 11
5.95863
 21
7.91958
 31
0.0
  0
LINE
  8
0
 62
     0
 10
5.95863
 20
7.91958
 30
0.0
 11
6.0041
 21
8.16903
 31
0.0
  0
LINE
  8
0
 62
     0
 10
6.0041
 20
8.16903
 30
0.0
 11
5.94071
 21
8.54523
 31
0.0
  0
LINE
  8
0
 62
     0
 10
5.94071
 20
8.54523
 30
0.0
 11
5.71885
 21
8.97654
 31
0.0
  0
LINE
  8
0
 62
     0
 10
5.71885
 20
8.97654
 30
0.0
 11
5.28891
 21
9.36378
 31
0.0
  0
LINE
  8
0
 62
     0
 10
5.28891
 20
9.36378
 30
0.0
 11
4.60403
 21
9.60769
 31
0.0
  0
LINE
  8
0
 62
     0
 10
4.60403
 20
9.60769
 30
0.0
 11
3.96462
 21
9.74824
 31
0.0
  0
LINE
  8
0
 62
     0
 10
3.96462
 20
9.74824
 30
0.0
 11
3.64352
 21
9.86815
 31
0.0
  0
LINE
  8
0
 62
     0
 10
3.64352
 20
9.86815
 30
0.0
 11
3.38446
 21
9.96184
 31
0.0
  0
LINE
  8
0
 62
     0
 10
3.38446
 20
9.96184
 30
0.0
 11
2.99999
 21
10.0004
 31
0.0
  0
LINE
  8
0
 62
     0
 10
2.99999
 20
10.0004
 30
0.0
 11
1.91823
 21
9.95218
 31
0.0
  0
LINE
  8
0
 62
     0
 10
1.91823
 20
9.95218
 30
0.0
 11
0.95498
 21
9.71931
 31
0.0
  0
LINE
  8
0
 62
     0
 10
0.95498
 20
9.71931
 30
0.0
 11
0.263205
 21
9.16947
 31
0.0
  0
LINE
  8
0
 62
     0
 10
0.263205
 20
9.16947
 30
0.0
 11
0
 21
8.16903
 31
0.0
  0
LINE
  8
0
 62
     0
 10
0
 20
8.16903
 30
0.0
 11
0.146072
 21
7.46206
 31
0.0
  0
LINE
  8
0
 62
     0
 10
0.146072
 20
7.46206
 30
0.0
 11
0.660079
 21
7.1162
 31
0.0
  0
LINE
  8
0
 62
     0
 10
0.660079
 20
7.1162
 30
0.0
 11
0.660079
 21
0.62563
 31
0.0
  0
LINE
  8
0
 62
     0
 10
0.660079
 20
0.62563
 30
0.0
 11
0.719335
 21
0.529167
 31
0.0
  0
LINE
  8
0
 62
     0
 10
0.719335
 20
0.529167
 30
0.0
 11
1.03215
 21
0.312815
 31
0.0
  0
LINE
  8
0
 62
     0
 10
1.03215
 20
0.312815
 30
0.0
 11
1.79834
 21
0.0978408
 31
0.0
  0
LINE
  8
0
 62
     0
 10
1.79834
 20
0.0978408
 30
0.0
 11
3.21772
 21
0
 31
0.0
  0
LINE
  8
0
 62
     0
 10
3.21772
 20
0
 30
0.0
 11
4.63434
 21
0.0978408
 31
0.0
  0
LINE
  8
0
 62
     0
 10
4.63434
 20
0.0978408
 30
0.0
 11
5.40053
 21
0.312815
 31
0.0
  0
LINE
  8
0
 62
     0
 10
5.40053
 20
0.312815
 30
0.0
 11
5.71334
 21
0.529167
 31
0.0
  0
LINE
  8
0
 62
     0
 10
5.71334
 20
0.529167
 30
0.0
 11
5.77398
 21
0.62563
 31
0.0
  0
LINE
  8
0
 62
     0
 10
5.77398
 20
0.62563
 30
0.0
 11
5.77398
 21
1.47175
 31
0.0
  0
LINE
  8
0
 62
     0
 10
5.77398
 20
1.47175
 30
0.0
 11
6.49055
 21
1.61368
 31
0.0
  0
LINE
  8
0
 62
     0
 10
6.49055
 20
1.61368
 30
0.0
 11
7.07072
 21
1.92236
 31
0.0
  0
LINE
  8
0
 62
     0
 10
7.07072
 20
1.92236
 30
0.0
 11
7.46069
 21
2.3592
 31
0.0
  0
LINE
  8
0
 62
     0
 10
7.46069
 20
2.3592
 30
0.0
 11
7.60264
 21
2.88837
 31
0.0
  0
LINE
  8
0
 62
     0
 10
7.60264
 20
2.88837
 30
0.0
 11
7.60264
 21
5.74227
 31
0.0
  0
LINE
  8
0
 62
     0
 10
7.60264
 20
5.74227
 30
0.0
 11
7.46069
 21
6.27144
 31
0.0
  0
LINE
  8
0
 62
     0
 10
7.46069
 20
6.27144
 30
0.0
 11
7.07072
 21
6.70828
 31
0.0
  0
LINE
  8
0
 62
     0
 10
7.07072
 20
6.70828
 30
0.0
 11
6.49055
 21
7.01696
 31
0.0
  0
LINE
  8
0
 62
     0
 10
6.49055
 20
7.01696
 30
0.0
 11
5.77398
 21
7.15754
 31
0.0
  0
LINE
  8
0
 62
     0
 10
5.14974
 20
1.72117
 30
0.0
 11
5.1139
 21
1.62471
 31
0.0
  0
LINE
  8
0
 62
     0
 10
5.1139
 20
1.62471
 30
0.0
 11
4.89479
 21
1.40836
 31
0.0
  0
LINE
  8
0
 62
     0
 10
4.89479
 20
1.40836
 30
0.0
 11
4.31878
 21
1.19338
 31
0.0
  0
LINE
  8
0
 62
     0
 10
4.31878
 20
1.19338
 30
0.0
 11
3.21772
 21
1.09554
 31
0.0
  0
LINE
  8
0
 62
     0
 10
3.21772
 20
1.09554
 30
0.0
 11
2.11805
 21
1.19338
 31
0.0
  0
LINE
  8
0
 62
     0
 10
2.11805
 20
1.19338
 30
0.0
 11
1.55305
 21
1.40836
 31
0.0
  0
LINE
  8
0
 62
     0
 10
1.55305
 20
1.40836
 30
0.0
 11
1.34497
 21
1.62471
 31
0.0
  0
LINE
  8
0
 62
     0
 10
1.34497
 20
1.62471
 30
0.0
 11
1.31465
 21
1.72117
 31
0.0
  0
LINE
  8
0
 62
     0
 10
1.31465
 20
1.72117
 30
0.0
 11
1.31465
 21
7.55717
 31
0.0
  0
LINE
  8
0
 62
     0
 10
1.31465
 20
7.55717
 30
0.0
 11
1.53513
 21
7.39592
 31
0.0
  0
LINE
  8
0
 62
     0
 10
1.53513
 20
7.39592
 30
0.0
 11
1.9389
 21
7.31876
 31
0.0
  0
LINE
  8
0
 62
     0
 10
1.9389
 20
7.31876
 30
0.0
 11
1.9389
 21
2.33026
 31
0.0
  0
LINE
  8
0
 62
     0
 10
1.9389
 20
2.33026
 30
0.0
 11
1.75562
 21
2.01056
 31
0.0
  0
LINE
  8
0
 62
     0
 10
1.75562
 20
2.01056
 30
0.0
 11
1.57372
 21
2.33026
 31
0.0
  0
LINE
  8
0
 62
     0
 10
1.57372
 20
2.33026
 30
0.0
 11
1.57372
 21
2.01056
 31
0.0
  0
LINE
  8
0
 62
     0
 10
1.57372
 20
2.01056
 30
0.0
 11
1.67983
 21
1.75149
 31
0.0
  0
LINE
  8
0
 62
     0
 10
1.67983
 20
1.75149
 30
0.0
 11
1.9389
 21
1.644
 31
0.0
  0
LINE
  8
0
 62
     0
 10
1.9389
 20
1.644
 30
0.0
 11
2.19659
 21
1.75149
 31
0.0
  0
LINE
  8
0
 62
     0
 10
2.19659
 20
1.75149
 30
0.0
 11
2.30408
 21
2.01056
 31
0.0
  0
LINE
  8
0
 62
     0
 10
2.30408
 20
2.01056
 30
0.0
 11
2.30408
 21
6.55948
 31
0.0
  0
LINE
  8
0
 62
     0
 10
2.30408
 20
6.55948
 30
0.0
 11
2.71887
 21
6.15569
 31
0.0
  0
LINE
  8
0
 62
     0
 10
2.71887
 20
6.15569
 30
0.0
 11
2.8801
 21
6.10196
 31
0.0
  0
LINE
  8
0
 62
     0
 10
2.8801
 20
6.10196
 30
0.0
 11
3.21772
 21
5.96554
 31
0.0
  0
LINE
  8
0
 62
     0
 10
3.21772
 20
5.96554
 30
0.0
 11
3.21772
 21
1.96371
 31
0.0
  0
LINE
  8
0
 62
     0
 10
3.21772
 20
1.96371
 30
0.0
 11
3.03444
 21
1.644
 31
0.0
  0
LINE
  8
0
 62
     0
 10
3.03444
 20
1.644
 30
0.0
 11
2.85254
 21
1.96371
 31
0.0
  0
LINE
  8
0
 62
     0
 10
2.85254
 20
1.96371
 30
0.0
 11
2.85254
 21
1.644
 31
0.0
  0
LINE
  8
0
 62
     0
 10
2.85254
 20
1.644
 30
0.0
 11
2.95865
 21
1.38493
 31
0.0
  0
LINE
  8
0
 62
     0
 10
2.95865
 20
1.38493
 30
0.0
 11
3.21772
 21
1.27744
 31
0.0
  0
LINE
  8
0
 62
     0
 10
3.21772
 20
1.27744
 30
0.0
 11
3.47541
 21
1.38493
 31
0.0
  0
LINE
  8
0
 62
     0
 10
3.47541
 20
1.38493
 30
0.0
 11
3.58292
 21
1.644
 31
0.0
  0
LINE
  8
0
 62
     0
 10
3.58292
 20
1.644
 30
0.0
 11
3.58292
 21
4.13272
 31
0.0
  0
LINE
  8
0
 62
     0
 10
3.58292
 20
4.13272
 30
0.0
 11
3.81991
 21
3.75931
 31
0.0
  0
LINE
  8
0
 62
     0
 10
3.81991
 20
3.75931
 30
0.0
 11
4.16856
 21
3.60772
 31
0.0
  0
LINE
  8
0
 62
     0
 10
4.16856
 20
3.60772
 30
0.0
 11
4.49516
 21
3.68349
 31
0.0
  0
LINE
  8
0
 62
     0
 10
4.49516
 20
3.68349
 30
0.0
 11
4.49516
 21
2.33026
 31
0.0
  0
LINE
  8
0
 62
     0
 10
4.49516
 20
2.33026
 30
0.0
 11
4.31327
 21
2.01056
 31
0.0
  0
LINE
  8
0
 62
     0
 10
4.31327
 20
2.01056
 30
0.0
 11
4.12997
 21
2.33026
 31
0.0
  0
LINE
  8
0
 62
     0
 10
4.12997
 20
2.33026
 30
0.0
 11
4.12997
 21
2.01056
 31
0.0
  0
LINE
  8
0
 62
     0
 10
4.12997
 20
2.01056
 30
0.0
 11
4.23609
 21
1.75149
 31
0.0
  0
LINE
  8
0
 62
     0
 10
4.23609
 20
1.75149
 30
0.0
 11
4.49516
 21
1.644
 31
0.0
  0
LINE
  8
0
 62
     0
 10
4.49516
 20
1.644
 30
0.0
 11
4.75424
 21
1.75149
 31
0.0
  0
LINE
  8
0
 62
     0
 10
4.75424
 20
1.75149
 30
0.0
 11
4.86174
 21
2.01056
 31
0.0
  0
LINE
  8
0
 62
     0
 10
4.86174
 20
2.01056
 30
0.0
 11
4.86174
 21
4.05144
 31
0.0
  0
LINE
  8
0
 62
     0
 10
4.86174
 20
4.05144
 30
0.0
 11
5.02846
 21
4.8562
 31
0.0
  0
LINE
  8
0
 62
     0
 10
5.02846
 20
4.8562
 30
0.0
 11
5.06568
 21
6.01514
 31
0.0
  0
LINE
  8
0
 62
     0
 10
5.06568
 20
6.01514
 30
0.0
 11
5.14974
 21
6.63938
 31
0.0
  0
LINE
  8
0
 62
     0
 10
5.14974
 20
6.63938
 30
0.0
 11
5.14974
 21
1.72117
 31
0.0
  0
LINE
  8
0
 62
     0
 10
5.33164
 20
7.77074
 30
0.0
 11
5.02158
 21
7.44001
 31
0.0
  0
LINE
  8
0
 62
     0
 10
5.02158
 20
7.44001
 30
0.0
 11
4.83277
 21
7.26641
 31
0.0
  0
LINE
  8
0
 62
     0
 10
4.83277
 20
7.26641
 30
0.0
 11
4.60266
 21
6.66831
 31
0.0
  0
LINE
  8
0
 62
     0
 10
4.60266
 20
6.66831
 30
0.0
 11
4.49516
 21
5.60723
 31
0.0
  0
LINE
  8
0
 62
     0
 10
4.49516
 20
5.60723
 30
0.0
 11
4.48
 21
4.8562
 31
0.0
  0
LINE
  8
0
 62
     0
 10
4.48
 20
4.8562
 30
0.0
 11
4.43452
 21
4.45657
 31
0.0
  0
LINE
  8
0
 62
     0
 10
4.43452
 20
4.45657
 30
0.0
 11
4.19061
 21
4.15756
 31
0.0
  0
LINE
  8
0
 62
     0
 10
4.19061
 20
4.15756
 30
0.0
 11
3.9715
 21
4.71428
 31
0.0
  0
LINE
  8
0
 62
     0
 10
3.9715
 20
4.71428
 30
0.0
 11
3.85988
 21
5.63619
 31
0.0
  0
LINE
  8
0
 62
     0
 10
3.85988
 20
5.63619
 30
0.0
 11
3.78686
 21
6.10471
 31
0.0
  0
LINE
  8
0
 62
     0
 10
3.78686
 20
6.10471
 30
0.0
 11
3.58292
 21
6.3803
 31
0.0
  0
LINE
  8
0
 62
     0
 10
3.58292
 20
6.3803
 30
0.0
 11
3.19843
 21
6.57324
 31
0.0
  0
LINE
  8
0
 62
     0
 10
3.19843
 20
6.57324
 30
0.0
 11
3.04822
 21
6.62421
 31
0.0
  0
LINE
  8
0
 62
     0
 10
3.04822
 20
6.62421
 30
0.0
 11
2.90904
 21
6.66831
 31
0.0
  0
LINE
  8
0
 62
     0
 10
2.90904
 20
6.66831
 30
0.0
 11
2.8925
 21
6.67523
 31
0.0
  0
LINE
  8
0
 62
     0
 10
2.8925
 20
6.67523
 30
0.0
 11
2.85254
 21
6.69865
 31
0.0
  0
LINE
  8
0
 62
     0
 10
2.85254
 20
6.69865
 30
0.0
 11
2.7671
 21
7.03351
 31
0.0
  0
LINE
  8
0
 62
     0
 10
2.7671
 20
7.03351
 30
0.0
 11
2.73541
 21
7.27467
 31
0.0
  0
LINE
  8
0
 62
     0
 10
2.73541
 20
7.27467
 30
0.0
 11
2.64032
 21
7.54613
 31
0.0
  0
LINE
  8
0
 62
     0
 10
2.64032
 20
7.54613
 30
0.0
 11
2.42259
 21
7.76661
 31
0.0
  0
LINE
  8
0
 62
     0
 10
2.42259
 20
7.76661
 30
0.0
 11
2.02709
 21
7.85756
 31
0.0
  0
LINE
  8
0
 62
     0
 10
2.02709
 20
7.85756
 30
0.0
 11
1.72117
 21
7.93337
 31
0.0
  0
LINE
  8
0
 62
     0
 10
1.72117
 20
7.93337
 30
0.0
 11
1.59852
 21
8.12631
 31
0.0
  0
LINE
  8
0
 62
     0
 10
1.59852
 20
8.12631
 30
0.0
 11
1.24713
 21
8.24893
 31
0.0
  0
LINE
  8
0
 62
     0
 10
1.24713
 20
8.24893
 30
0.0
 11
0.843361
 21
8.06704
 31
0.0
  0
LINE
  8
0
 62
     0
 10
0.843361
 20
8.06704
 30
0.0
 11
0.694531
 21
7.76799
 31
0.0
  0
LINE
  8
0
 62
     0
 10
0.694531
 20
7.76799
 30
0.0
 11
0.669727
 21
7.6605
 31
0.0
  0
LINE
  8
0
 62
     0
 10
0.669727
 20
7.6605
 30
0.0
 11
0.587043
 21
7.8438
 31
0.0
  0
LINE
  8
0
 62
     0
 10
0.587043
 20
7.8438
 30
0.0
 11
0.547081
 21
8.16903
 31
0.0
  0
LINE
  8
0
 62
     0
 10
0.547081
 20
8.16903
 30
0.0
 11
0.671103
 21
8.77535
 31
0.0
  0
LINE
  8
0
 62
     0
 10
0.671103
 20
8.77535
 30
0.0
 11
1.08452
 21
9.17222
 31
0.0
  0
LINE
  8
0
 62
     0
 10
1.08452
 20
9.17222
 30
0.0
 11
1.84244
 21
9.38858
 31
0.0
  0
LINE
  8
0
 62
     0
 10
1.84244
 20
9.38858
 30
0.0
 11
2.99999
 21
9.45335
 31
0.0
  0
LINE
  8
0
 62
     0
 10
2.99999
 20
9.45335
 30
0.0
 11
3.42718
 21
9.36516
 31
0.0
  0
LINE
  8
0
 62
     0
 10
3.42718
 20
9.36516
 30
0.0
 11
3.79649
 21
9.22736
 31
0.0
  0
LINE
  8
0
 62
     0
 10
3.79649
 20
9.22736
 30
0.0
 11
4.51446
 21
9.06748
 31
0.0
  0
LINE
  8
0
 62
     0
 10
4.51446
 20
9.06748
 30
0.0
 11
5.0395
 21
8.87458
 31
0.0
  0
LINE
  8
0
 62
     0
 10
5.0395
 20
8.87458
 30
0.0
 11
5.32059
 21
8.59345
 31
0.0
  0
LINE
  8
0
 62
     0
 10
5.32059
 20
8.59345
 30
0.0
 11
5.43221
 21
8.33025
 31
0.0
  0
LINE
  8
0
 62
     0
 10
5.43221
 20
8.33025
 30
0.0
 11
5.45564
 21
8.19245
 31
0.0
  0
LINE
  8
0
 62
     0
 10
5.45564
 20
8.19245
 30
0.0
 11
5.43221
 21
8.05878
 31
0.0
  0
LINE
  8
0
 62
     0
 10
5.43221
 20
8.05878
 30
0.0
 11
5.33164
 21
7.77074
 31
0.0
  0
LINE
  8
0
 62
     0
 10
6.93014
 20
3.24528
 30
0.0
 11
6.88192
 21
2.89939
 31
0.0
  0
LINE
  8
0
 62
     0
 10
6.88192
 20
2.89939
 30
0.0
 11
6.70691
 21
2.51768
 31
0.0
  0
LINE
  8
0
 62
     0
 10
6.70691
 20
2.51768
 30
0.0
 11
6.35275
 21
2.19659
 31
0.0
  0
LINE
  8
0
 62
     0
 10
6.35275
 20
2.19659
 30
0.0
 11
5.77398
 21
2.02847
 31
0.0
  0
LINE
  8
0
 62
     0
 10
5.77398
 20
2.02847
 30
0.0
 11
5.77398
 21
6.4189
 31
0.0
  0
LINE
  8
0
 62
     0
 10
5.77398
 20
6.4189
 30
0.0
 11
6.43682
 21
6.25355
 31
0.0
  0
LINE
  8
0
 62
     0
 10
6.43682
 20
6.25355
 30
0.0
 11
6.77997
 21
5.92557
 31
0.0
  0
LINE
  8
0
 62
     0
 10
6.77997
 20
5.92557
 30
0.0
 11
6.90947
 21
5.5342
 31
0.0
  0
LINE
  8
0
 62
     0
 10
6.90947
 20
5.5342
 30
0.0
 11
6.93014
 21
5.18005
 31
0.0
  0
LINE
  8
0
 62
     0
 10
6.93014
 20
5.18005
 30
0.0
 11
6.93014
 21
3.24528
 31
0.0
  0
ENDSEC
  0
EOF
