  0
SECTION
  2
HEADER
  9
$ACADVER
  1
AC1009
  9
$EXTMIN
 10
0.0
 20
0.0
 30
0.0
  9
$EXTMAX
 10
1000.0
 20
1000.0
 30
0.0
  9
$FILLMODE
 70
 0
  9
$SPLFRAME
 70
 1
  0
ENDSEC
  0
SECTION
  2
TABLES
  0
TABLE
  2
LAYER
 70
1
  0
LAYER
  2
0
 70
     0
 62
     7
  6
CONTINUOUS
  0
ENDTAB
  0
ENDSEC
  0
SECTION
  2
ENTITIES
  0
LINE
  8
0
 62
     0
 10
1.69636
 20
0.00964629
 30
0.0
 11
1.09554
 21
0.187413
 31
0.0
  0
LINE
  8
0
 62
     0
 10
1.09554
 20
0.187413
 30
0.0
 11
0.595313
 21
0.534681
 31
0.0
  0
LINE
  8
0
 62
     0
 10
0.595313
 20
0.534681
 30
0.0
 11
0.227376
 21
1.02113
 31
0.0
  0
LINE
  8
0
 62
     0
 10
0.227376
 20
1.02113
 30
0.0
 11
0.0261827
 21
1.6123
 31
0.0
  0
LINE
  8
0
 62
     0
 10
0.0261827
 20
1.6123
 30
0.0
 11
0.0661458
 21
2.41984
 31
0.0
  0
LINE
  8
0
 62
     0
 10
0.0661458
 20
2.41984
 30
0.0
 11
0.432703
 21
3.14468
 31
0.0
  0
LINE
  8
0
 62
     0
 10
0.432703
 20
3.14468
 30
0.0
 11
0.764812
 21
3.46852
 31
0.0
  0
LINE
  8
0
 62
     0
 10
0.764812
 20
3.46852
 30
0.0
 11
1.38079
 21
3.77857
 31
0.0
  0
LINE
  8
0
 62
     0
 10
1.38079
 20
3.77857
 30
0.0
 11
2.11391
 21
3.84888
 31
0.0
  0
LINE
  8
0
 62
     0
 10
2.11391
 20
3.84888
 30
0.0
 11
2.26136
 21
3.83371
 31
0.0
  0
LINE
  8
0
 62
     0
 10
2.26136
 20
3.83371
 30
0.0
 11
2.2779
 21
3.83508
 31
0.0
  0
LINE
  8
0
 62
     0
 10
2.2779
 20
3.83508
 30
0.0
 11
2.30408
 21
3.8971
 31
0.0
  0
LINE
  8
0
 62
     0
 10
2.30408
 20
3.8971
 30
0.0
 11
2.37161
 21
4.11067
 31
0.0
  0
LINE
  8
0
 62
     0
 10
2.37161
 20
4.11067
 30
0.0
 11
2.50941
 21
4.56406
 31
0.0
  0
LINE
  8
0
 62
     0
 10
2.50941
 20
4.56406
 30
0.0
 11
2.7671
 21
5.38536
 31
0.0
  0
LINE
  8
0
 62
     0
 10
2.7671
 20
5.38536
 30
0.0
 11
2.91731
 21
5.74368
 31
0.0
  0
LINE
  8
0
 62
     0
 10
2.91731
 20
5.74368
 30
0.0
 11
3.05235
 21
5.93245
 31
0.0
  0
LINE
  8
0
 62
     0
 10
3.05235
 20
5.93245
 30
0.0
 11
3.32521
 21
6.08817
 31
0.0
  0
LINE
  8
0
 62
     0
 10
3.32521
 20
6.08817
 30
0.0
 11
3.89848
 21
6.12263
 31
0.0
  0
LINE
  8
0
 62
     0
 10
3.89848
 20
6.12263
 30
0.0
 11
4.21541
 21
6.12263
 31
0.0
  0
LINE
  8
0
 62
     0
 10
4.21541
 20
6.12263
 30
0.0
 11
4.21541
 21
5.73952
 31
0.0
  0
LINE
  8
0
 62
     0
 10
4.21541
 20
5.73952
 30
0.0
 11
3.86676
 21
5.73539
 31
0.0
  0
LINE
  8
0
 62
     0
 10
3.86676
 20
5.73539
 30
0.0
 11
3.51813
 21
5.72301
 31
0.0
  0
LINE
  8
0
 62
     0
 10
3.51813
 20
5.72301
 30
0.0
 11
3.37757
 21
5.68166
 31
0.0
  0
LINE
  8
0
 62
     0
 10
3.37757
 20
5.68166
 30
0.0
 11
3.24253
 21
5.51353
 31
0.0
  0
LINE
  8
0
 62
     0
 10
3.24253
 20
5.51353
 30
0.0
 11
3.15571
 21
5.24619
 31
0.0
  0
LINE
  8
0
 62
     0
 10
3.15571
 20
5.24619
 30
0.0
 11
3.09507
 21
5.00916
 31
0.0
  0
LINE
  8
0
 62
     0
 10
3.09507
 20
5.00916
 30
0.0
 11
3.20118
 21
4.99262
 31
0.0
  0
LINE
  8
0
 62
     0
 10
3.20118
 20
4.99262
 30
0.0
 11
3.93569
 21
4.9954
 31
0.0
  0
LINE
  8
0
 62
     0
 10
3.93569
 20
4.9954
 30
0.0
 11
4.77905
 21
5.00091
 31
0.0
  0
LINE
  8
0
 62
     0
 10
4.77905
 20
5.00091
 30
0.0
 11
5.62515
 21
5.00228
 31
0.0
  0
LINE
  8
0
 62
     0
 10
5.62515
 20
5.00228
 30
0.0
 11
6.47404
 21
5.00228
 31
0.0
  0
LINE
  8
0
 62
     0
 10
6.47404
 20
5.00228
 30
0.0
 11
6.53881
 21
5.18555
 31
0.0
  0
LINE
  8
0
 62
     0
 10
6.53881
 20
5.18555
 30
0.0
 11
6.58703
 21
5.37711
 31
0.0
  0
LINE
  8
0
 62
     0
 10
6.58703
 20
5.37711
 30
0.0
 11
6.34037
 21
5.43359
 31
0.0
  0
LINE
  8
0
 62
     0
 10
6.34037
 20
5.43359
 30
0.0
 11
6.02615
 21
5.50115
 31
0.0
  0
LINE
  8
0
 62
     0
 10
6.02615
 20
5.50115
 30
0.0
 11
5.8801
 21
5.54108
 31
0.0
  0
LINE
  8
0
 62
     0
 10
5.8801
 20
5.54108
 30
0.0
 11
5.76432
 21
5.71334
 31
0.0
  0
LINE
  8
0
 62
     0
 10
5.76432
 20
5.71334
 30
0.0
 11
5.78637
 21
5.74918
 31
0.0
  0
LINE
  8
0
 62
     0
 10
5.78637
 20
5.74918
 30
0.0
 11
7.47998
 21
5.74918
 31
0.0
  0
LINE
  8
0
 62
     0
 10
7.47998
 20
5.74918
 30
0.0
 11
7.4869
 21
5.63619
 31
0.0
  0
LINE
  8
0
 62
     0
 10
7.4869
 20
5.63619
 30
0.0
 11
7.49378
 21
5.44326
 31
0.0
  0
LINE
  8
0
 62
     0
 10
7.49378
 20
5.44326
 30
0.0
 11
7.49378
 21
5.36469
 31
0.0
  0
LINE
  8
0
 62
     0
 10
7.49378
 20
5.36469
 30
0.0
 11
7.26779
 21
5.36194
 31
0.0
  0
LINE
  8
0
 62
     0
 10
7.26779
 20
5.36194
 30
0.0
 11
7.04314
 21
5.35919
 31
0.0
  0
LINE
  8
0
 62
     0
 10
7.04314
 20
5.35919
 30
0.0
 11
6.97699
 21
5.17592
 31
0.0
  0
LINE
  8
0
 62
     0
 10
6.97699
 20
5.17592
 30
0.0
 11
6.90947
 21
4.9954
 31
0.0
  0
LINE
  8
0
 62
     0
 10
6.90947
 20
4.9954
 30
0.0
 11
7.17405
 21
4.40835
 31
0.0
  0
LINE
  8
0
 62
     0
 10
7.17405
 20
4.40835
 30
0.0
 11
7.36286
 21
3.9908
 31
0.0
  0
LINE
  8
0
 62
     0
 10
7.36286
 20
3.9908
 30
0.0
 11
7.44693
 21
3.80753
 31
0.0
  0
LINE
  8
0
 62
     0
 10
7.44693
 20
3.80753
 30
0.0
 11
7.53512
 21
3.81716
 31
0.0
  0
LINE
  8
0
 62
     0
 10
7.53512
 20
3.81716
 30
0.0
 11
8.24343
 21
3.88193
 31
0.0
  0
LINE
  8
0
 62
     0
 10
8.24343
 20
3.88193
 30
0.0
 11
9.42164
 21
3.33072
 31
0.0
  0
LINE
  8
0
 62
     0
 10
9.42164
 20
3.33072
 30
0.0
 11
9.62007
 21
3.11161
 31
0.0
  0
LINE
  8
0
 62
     0
 10
9.62007
 20
3.11161
 30
0.0
 11
9.96322
 21
2.32888
 31
0.0
  0
LINE
  8
0
 62
     0
 10
9.96322
 20
2.32888
 30
0.0
 11
9.9398
 21
1.47726
 31
0.0
  0
LINE
  8
0
 62
     0
 10
9.9398
 20
1.47726
 30
0.0
 11
9.52225
 21
0.689021
 31
0.0
  0
LINE
  8
0
 62
     0
 10
9.52225
 20
0.689021
 30
0.0
 11
8.78914
 21
0.168121
 31
0.0
  0
LINE
  8
0
 62
     0
 10
8.78914
 20
0.168121
 30
0.0
 11
7.58747
 21
0.0895724
 31
0.0
  0
LINE
  8
0
 62
     0
 10
7.58747
 20
0.0895724
 30
0.0
 11
6.81715
 21
0.491959
 31
0.0
  0
LINE
  8
0
 62
     0
 10
6.81715
 20
0.491959
 30
0.0
 11
6.3004
 21
1.18925
 31
0.0
  0
LINE
  8
0
 62
     0
 10
6.3004
 20
1.18925
 30
0.0
 11
6.21083
 21
1.44143
 31
0.0
  0
LINE
  8
0
 62
     0
 10
6.21083
 20
1.44143
 30
0.0
 11
6.17774
 21
1.56132
 31
0.0
  0
LINE
  8
0
 62
     0
 10
6.17774
 20
1.56132
 30
0.0
 11
6.12951
 21
1.56821
 31
0.0
  0
LINE
  8
0
 62
     0
 10
6.12951
 20
1.56821
 30
0.0
 11
5.70646
 21
1.5751
 31
0.0
  0
LINE
  8
0
 62
     0
 10
5.70646
 20
1.5751
 30
0.0
 11
5.30546
 21
1.58612
 31
0.0
  0
LINE
  8
0
 62
     0
 10
5.30546
 20
1.58612
 30
0.0
 11
5.13045
 21
1.64124
 31
0.0
  0
LINE
  8
0
 62
     0
 10
5.13045
 20
1.64124
 30
0.0
 11
4.92372
 21
1.81488
 31
0.0
  0
LINE
  8
0
 62
     0
 10
4.92372
 20
1.81488
 30
0.0
 11
4.53238
 21
2.25309
 31
0.0
  0
LINE
  8
0
 62
     0
 10
4.53238
 20
2.25309
 30
0.0
 11
3.84888
 21
3.03857
 31
0.0
  0
LINE
  8
0
 62
     0
 10
3.84888
 20
3.03857
 30
0.0
 11
3.25217
 21
3.69454
 31
0.0
  0
LINE
  8
0
 62
     0
 10
3.25217
 20
3.69454
 30
0.0
 11
2.95038
 21
4.0211
 31
0.0
  0
LINE
  8
0
 62
     0
 10
2.95038
 20
4.0211
 30
0.0
 11
2.83463
 21
4.13272
 31
0.0
  0
LINE
  8
0
 62
     0
 10
2.83463
 20
4.13272
 30
0.0
 11
2.75608
 21
3.91777
 31
0.0
  0
LINE
  8
0
 62
     0
 10
2.75608
 20
3.91777
 30
0.0
 11
2.70233
 21
3.70004
 31
0.0
  0
LINE
  8
0
 62
     0
 10
2.70233
 20
3.70004
 30
0.0
 11
3.02893
 21
3.51537
 31
0.0
  0
LINE
  8
0
 62
     0
 10
3.02893
 20
3.51537
 30
0.0
 11
3.26871
 21
3.31281
 31
0.0
  0
LINE
  8
0
 62
     0
 10
3.26871
 20
3.31281
 30
0.0
 11
3.48093
 21
3.07992
 31
0.0
  0
LINE
  8
0
 62
     0
 10
3.48093
 20
3.07992
 30
0.0
 11
3.82545
 21
2.29719
 31
0.0
  0
LINE
  8
0
 62
     0
 10
3.82545
 20
2.29719
 30
0.0
 11
3.80199
 21
1.44556
 31
0.0
  0
LINE
  8
0
 62
     0
 10
3.80199
 20
1.44556
 30
0.0
 11
3.23426
 21
0.502984
 31
0.0
  0
LINE
  8
0
 62
     0
 10
3.23426
 20
0.502984
 30
0.0
 11
2.23655
 21
0.0206706
 31
0.0
  0
LINE
  8
0
 62
     0
 10
2.23655
 20
0.0206706
 30
0.0
 11
1.69636
 21
0.00964629
 31
0.0
  0
LINE
  8
0
 62
     0
 10
2.23655
 20
0.453376
 30
0.0
 11
3.00137
 21
0.8723
 31
0.0
  0
LINE
  8
0
 62
     0
 10
3.00137
 20
0.8723
 30
0.0
 11
3.41202
 21
1.64951
 31
0.0
  0
LINE
  8
0
 62
     0
 10
3.41202
 20
1.64951
 30
0.0
 11
3.40789
 21
2.22829
 31
0.0
  0
LINE
  8
0
 62
     0
 10
3.40789
 20
2.22829
 30
0.0
 11
3.175
 21
2.77399
 31
0.0
  0
LINE
  8
0
 62
     0
 10
3.175
 20
2.77399
 30
0.0
 11
2.76435
 21
3.18051
 31
0.0
  0
LINE
  8
0
 62
     0
 10
2.76435
 20
3.18051
 30
0.0
 11
2.56039
 21
3.28524
 31
0.0
  0
LINE
  8
0
 62
     0
 10
2.56039
 20
3.28524
 30
0.0
 11
2.50665
 21
3.12401
 31
0.0
  0
LINE
  8
0
 62
     0
 10
2.50665
 20
3.12401
 30
0.0
 11
2.38676
 21
2.74367
 31
0.0
  0
LINE
  8
0
 62
     0
 10
2.38676
 20
2.74367
 30
0.0
 11
2.18695
 21
2.11805
 31
0.0
  0
LINE
  8
0
 62
     0
 10
2.18695
 20
2.11805
 30
0.0
 11
2.096
 21
1.87551
 31
0.0
  0
LINE
  8
0
 62
     0
 10
2.096
 20
1.87551
 30
0.0
 11
1.91961
 21
1.75838
 31
0.0
  0
LINE
  8
0
 62
     0
 10
1.91961
 20
1.75838
 30
0.0
 11
1.74735
 21
1.87275
 31
0.0
  0
LINE
  8
0
 62
     0
 10
1.74735
 20
1.87275
 30
0.0
 11
1.72806
 21
1.95682
 31
0.0
  0
LINE
  8
0
 62
     0
 10
1.72806
 20
1.95682
 30
0.0
 11
1.75286
 21
2.11253
 31
0.0
  0
LINE
  8
0
 62
     0
 10
1.75286
 20
2.11253
 30
0.0
 11
1.84244
 21
2.4281
 31
0.0
  0
LINE
  8
0
 62
     0
 10
1.84244
 20
2.4281
 30
0.0
 11
2.0202
 21
2.99034
 31
0.0
  0
LINE
  8
0
 62
     0
 10
2.0202
 20
2.99034
 30
0.0
 11
2.14285
 21
3.41616
 31
0.0
  0
LINE
  8
0
 62
     0
 10
2.14285
 20
3.41616
 30
0.0
 11
1.93477
 21
3.4258
 31
0.0
  0
LINE
  8
0
 62
     0
 10
1.93477
 20
3.4258
 30
0.0
 11
1.62471
 21
3.40238
 31
0.0
  0
LINE
  8
0
 62
     0
 10
1.62471
 20
3.40238
 30
0.0
 11
0.868165
 21
2.99172
 31
0.0
  0
LINE
  8
0
 62
     0
 10
0.868165
 20
2.99172
 30
0.0
 11
0.456131
 21
2.22829
 31
0.0
  0
LINE
  8
0
 62
     0
 10
0.456131
 20
2.22829
 30
0.0
 11
0.456131
 21
1.62609
 31
0.0
  0
LINE
  8
0
 62
     0
 10
0.456131
 20
1.62609
 30
0.0
 11
0.869541
 21
0.86541
 31
0.0
  0
LINE
  8
0
 62
     0
 10
0.869541
 20
0.86541
 30
0.0
 11
1.74046
 21
0.432703
 31
0.0
  0
LINE
  8
0
 62
     0
 10
1.74046
 20
0.432703
 30
0.0
 11
2.23655
 21
0.453376
 31
0.0
  0
LINE
  8
0
 62
     0
 10
8.37434
 20
0.485069
 30
0.0
 11
9.13917
 21
0.903993
 31
0.0
  0
LINE
  8
0
 62
     0
 10
9.13917
 20
0.903993
 30
0.0
 11
9.55118
 21
1.68121
 31
0.0
  0
LINE
  8
0
 62
     0
 10
9.55118
 20
1.68121
 30
0.0
 11
9.54567
 21
2.25998
 31
0.0
  0
LINE
  8
0
 62
     0
 10
9.54567
 20
2.25998
 30
0.0
 11
9.13225
 21
3.02479
 31
0.0
  0
LINE
  8
0
 62
     0
 10
9.13225
 20
3.02479
 30
0.0
 11
8.37572
 21
3.43407
 31
0.0
  0
LINE
  8
0
 62
     0
 10
8.37572
 20
3.43407
 30
0.0
 11
7.76111
 21
3.43407
 31
0.0
  0
LINE
  8
0
 62
     0
 10
7.76111
 20
3.43407
 30
0.0
 11
7.63986
 21
3.40238
 31
0.0
  0
LINE
  8
0
 62
     0
 10
7.63986
 20
3.40238
 30
0.0
 11
7.71701
 21
3.21221
 31
0.0
  0
LINE
  8
0
 62
     0
 10
7.71701
 20
3.21221
 30
0.0
 11
7.91545
 21
2.76435
 31
0.0
  0
LINE
  8
0
 62
     0
 10
7.91545
 20
2.76435
 30
0.0
 11
8.16487
 21
2.21037
 31
0.0
  0
LINE
  8
0
 62
     0
 10
8.16487
 20
2.21037
 30
0.0
 11
8.28753
 21
1.93201
 31
0.0
  0
LINE
  8
0
 62
     0
 10
8.28753
 20
1.93201
 30
0.0
 11
8.3275
 21
1.81626
 31
0.0
  0
LINE
  8
0
 62
     0
 10
8.3275
 20
1.81626
 30
0.0
 11
8.33162
 21
1.75424
 31
0.0
  0
LINE
  8
0
 62
     0
 10
8.33162
 20
1.75424
 30
0.0
 11
8.23376
 21
1.59163
 31
0.0
  0
LINE
  8
0
 62
     0
 10
8.23376
 20
1.59163
 30
0.0
 11
8.08083
 21
1.57372
 31
0.0
  0
LINE
  8
0
 62
     0
 10
8.08083
 20
1.57372
 30
0.0
 11
7.40008
 21
1.56959
 31
0.0
  0
LINE
  8
0
 62
     0
 10
7.40008
 20
1.56959
 30
0.0
 11
6.84749
 21
1.56821
 31
0.0
  0
LINE
  8
0
 62
     0
 10
6.84749
 20
1.56821
 30
0.0
 11
6.61871
 21
1.56132
 31
0.0
  0
LINE
  8
0
 62
     0
 10
6.61871
 20
1.56132
 30
0.0
 11
6.72208
 21
1.29122
 31
0.0
  0
LINE
  8
0
 62
     0
 10
6.72208
 20
1.29122
 30
0.0
 11
7.39179
 21
0.615982
 31
0.0
  0
LINE
  8
0
 62
     0
 10
7.39179
 20
0.615982
 30
0.0
 11
7.87961
 21
0.4644
 31
0.0
  0
LINE
  8
0
 62
     0
 10
7.87961
 20
0.4644
 30
0.0
 11
8.37434
 21
0.485069
 31
0.0
  0
LINE
  8
0
 62
     0
 10
7.81346
 20
1.96371
 30
0.0
 11
7.72527
 21
2.16214
 31
0.0
  0
LINE
  8
0
 62
     0
 10
7.72527
 20
2.16214
 30
0.0
 11
7.53375
 21
2.58933
 31
0.0
  0
LINE
  8
0
 62
     0
 10
7.53375
 20
2.58933
 30
0.0
 11
7.34081
 21
3.01515
 31
0.0
  0
LINE
  8
0
 62
     0
 10
7.34081
 20
3.01515
 30
0.0
 11
7.24987
 21
3.21083
 31
0.0
  0
LINE
  8
0
 62
     0
 10
7.24987
 20
3.21083
 30
0.0
 11
7.1713
 21
3.16673
 31
0.0
  0
LINE
  8
0
 62
     0
 10
7.1713
 20
3.16673
 30
0.0
 11
6.74825
 21
2.67891
 31
0.0
  0
LINE
  8
0
 62
     0
 10
6.74825
 20
2.67891
 30
0.0
 11
6.56911
 21
2.06292
 31
0.0
  0
LINE
  8
0
 62
     0
 10
6.56911
 20
2.06292
 30
0.0
 11
6.56223
 21
1.95819
 31
0.0
  0
LINE
  8
0
 62
     0
 10
6.56223
 20
1.95819
 30
0.0
 11
7.18785
 21
1.95819
 31
0.0
  0
LINE
  8
0
 62
     0
 10
7.18785
 20
1.95819
 30
0.0
 11
7.62882
 21
1.96095
 31
0.0
  0
LINE
  8
0
 62
     0
 10
7.62882
 20
1.96095
 30
0.0
 11
7.81346
 21
1.96371
 31
0.0
  0
LINE
  8
0
 62
     0
 10
6.14606
 20
2.11667
 30
0.0
 11
6.52089
 21
3.11161
 31
0.0
  0
LINE
  8
0
 62
     0
 10
6.52089
 20
3.11161
 30
0.0
 11
6.75513
 21
3.37068
 31
0.0
  0
LINE
  8
0
 62
     0
 10
6.75513
 20
3.37068
 30
0.0
 11
7.01146
 21
3.57463
 31
0.0
  0
LINE
  8
0
 62
     0
 10
7.01146
 20
3.57463
 30
0.0
 11
7.0666
 21
3.61735
 31
0.0
  0
LINE
  8
0
 62
     0
 10
7.0666
 20
3.61735
 30
0.0
 11
7.01146
 21
3.74689
 31
0.0
  0
LINE
  8
0
 62
     0
 10
7.01146
 20
3.74689
 30
0.0
 11
6.8888
 21
4.01835
 31
0.0
  0
LINE
  8
0
 62
     0
 10
6.8888
 20
4.01835
 30
0.0
 11
6.7648
 21
4.28985
 31
0.0
  0
LINE
  8
0
 62
     0
 10
6.7648
 20
4.28985
 30
0.0
 11
6.70553
 21
4.4166
 31
0.0
  0
LINE
  8
0
 62
     0
 10
6.70553
 20
4.4166
 30
0.0
 11
6.56361
 21
4.06799
 31
0.0
  0
LINE
  8
0
 62
     0
 10
6.56361
 20
4.06799
 30
0.0
 11
6.23701
 21
3.21634
 31
0.0
  0
LINE
  8
0
 62
     0
 10
6.23701
 20
3.21634
 30
0.0
 11
5.90903
 21
2.35645
 31
0.0
  0
LINE
  8
0
 62
     0
 10
5.90903
 20
2.35645
 30
0.0
 11
5.76986
 21
1.98851
 31
0.0
  0
LINE
  8
0
 62
     0
 10
5.76986
 20
1.98851
 30
0.0
 11
5.94762
 21
1.9706
 31
0.0
  0
LINE
  8
0
 62
     0
 10
5.94762
 20
1.9706
 30
0.0
 11
6.13364
 21
1.9706
 31
0.0
  0
LINE
  8
0
 62
     0
 10
6.13364
 20
1.9706
 30
0.0
 11
6.14606
 21
2.11667
 31
0.0
  0
LINE
  8
0
 62
     0
 10
5.82771
 20
3.31832
 30
0.0
 11
6.15982
 21
4.21541
 31
0.0
  0
LINE
  8
0
 62
     0
 10
6.15982
 20
4.21541
 30
0.0
 11
6.29627
 21
4.59161
 31
0.0
  0
LINE
  8
0
 62
     0
 10
6.29627
 20
4.59161
 30
0.0
 11
5.80704
 21
4.59299
 31
0.0
  0
LINE
  8
0
 62
     0
 10
5.80704
 20
4.59299
 30
0.0
 11
4.64263
 21
4.58886
 31
0.0
  0
LINE
  8
0
 62
     0
 10
4.64263
 20
4.58886
 30
0.0
 11
2.99586
 21
4.58061
 31
0.0
  0
LINE
  8
0
 62
     0
 10
2.99586
 20
4.58061
 30
0.0
 11
4.01835
 21
3.46439
 31
0.0
  0
LINE
  8
0
 62
     0
 10
4.01835
 20
3.46439
 30
0.0
 11
4.78455
 21
2.6293
 31
0.0
  0
LINE
  8
0
 62
     0
 10
4.78455
 20
2.6293
 30
0.0
 11
5.19247
 21
2.18557
 31
0.0
  0
LINE
  8
0
 62
     0
 10
5.19247
 20
2.18557
 30
0.0
 11
5.34956
 21
2.03674
 31
0.0
  0
LINE
  8
0
 62
     0
 10
5.34956
 20
2.03674
 30
0.0
 11
5.49148
 21
2.41846
 31
0.0
  0
LINE
  8
0
 62
     0
 10
5.49148
 20
2.41846
 30
0.0
 11
5.82771
 21
3.31832
 31
0.0
  0
ENDSEC
  0
EOF
