  0
SECTION
  2
HEADER
  9
$ACADVER
  1
AC1009
  9
$EXTMIN
 10
0.0
 20
0.0
 30
0.0
  9
$EXTMAX
 10
1000.0
 20
1000.0
 30
0.0
  9
$FILLMODE
 70
 0
  9
$SPLFRAME
 70
 1
  0
ENDSEC
  0
SECTION
  2
TABLES
  0
TABLE
  2
LAYER
 70
1
  0
LAYER
  2
0
 70
     0
 62
     7
  6
CONTINUOUS
  0
ENDTAB
  0
ENDSEC
  0
SECTION
  2
ENTITIES
  0
LINE
  8
0
 62
     0
 10
0.0137804
 20
0.00413413
 30
0.0
 11
0.00551215
 21
0.146072
 31
0.0
  0
LINE
  8
0
 62
     0
 10
0.00551215
 20
0.146072
 30
0.0
 11
0
 21
0.282498
 31
0.0
  0
LINE
  8
0
 62
     0
 10
0
 20
0.282498
 30
0.0
 11
0.383096
 21
0.282498
 31
0.0
  0
LINE
  8
0
 62
     0
 10
0.383096
 20
0.282498
 30
0.0
 11
0.39412
 21
0.356912
 31
0.0
  0
LINE
  8
0
 62
     0
 10
0.39412
 20
0.356912
 30
0.0
 11
0.436838
 21
0.775836
 31
0.0
  0
LINE
  8
0
 62
     0
 10
0.436838
 20
0.775836
 30
0.0
 11
0.518142
 21
1.59439
 31
0.0
  0
LINE
  8
0
 62
     0
 10
0.518142
 20
1.59439
 30
0.0
 11
0.596692
 21
2.40192
 31
0.0
  0
LINE
  8
0
 62
     0
 10
0.596692
 20
2.40192
 30
0.0
 11
0.63252
 21
2.78226
 31
0.0
  0
LINE
  8
0
 62
     0
 10
0.63252
 20
2.78226
 30
0.0
 11
0.591178
 21
2.81258
 31
0.0
  0
LINE
  8
0
 62
     0
 10
0.591178
 20
2.81258
 30
0.0
 11
0.350022
 21
2.81671
 31
0.0
  0
LINE
  8
0
 62
     0
 10
0.350022
 20
2.81671
 30
0.0
 11
0.0689021
 21
2.81671
 31
0.0
  0
LINE
  8
0
 62
     0
 10
0.0689021
 20
2.81671
 30
0.0
 11
0.0689021
 21
3.44923
 31
0.0
  0
LINE
  8
0
 62
     0
 10
0.0689021
 20
3.44923
 30
0.0
 11
0.892969
 21
3.44923
 31
0.0
  0
LINE
  8
0
 62
     0
 10
0.892969
 20
3.44923
 30
0.0
 11
0.938445
 21
3.59117
 31
0.0
  0
LINE
  8
0
 62
     0
 10
0.938445
 20
3.59117
 30
0.0
 11
1.78318
 21
4.79972
 31
0.0
  0
LINE
  8
0
 62
     0
 10
1.78318
 20
4.79972
 30
0.0
 11
2.83049
 21
5.46943
 31
0.0
  0
LINE
  8
0
 62
     0
 10
2.83049
 20
5.46943
 30
0.0
 11
4.11621
 21
5.91728
 31
0.0
  0
LINE
  8
0
 62
     0
 10
4.11621
 20
5.91728
 30
0.0
 11
5.5535
 21
6.12539
 31
0.0
  0
LINE
  8
0
 62
     0
 10
5.5535
 20
6.12539
 30
0.0
 11
7.06106
 21
6.07025
 31
0.0
  0
LINE
  8
0
 62
     0
 10
7.06106
 20
6.07025
 30
0.0
 11
8.48596
 21
5.75194
 31
0.0
  0
LINE
  8
0
 62
     0
 10
8.48596
 20
5.75194
 30
0.0
 11
9.67521
 21
5.20485
 31
0.0
  0
LINE
  8
0
 62
     0
 10
9.67521
 20
5.20485
 30
0.0
 11
10.5599
 21
4.47724
 31
0.0
  0
LINE
  8
0
 62
     0
 10
10.5599
 20
4.47724
 30
0.0
 11
11.0684
 21
3.60772
 31
0.0
  0
LINE
  8
0
 62
     0
 10
11.0684
 20
3.60772
 30
0.0
 11
11.1166
 21
3.45888
 31
0.0
  0
LINE
  8
0
 62
     0
 10
11.1166
 20
3.45888
 30
0.0
 11
11.5328
 21
3.45336
 31
0.0
  0
LINE
  8
0
 62
     0
 10
11.5328
 20
3.45336
 30
0.0
 11
11.9476
 21
3.44923
 31
0.0
  0
LINE
  8
0
 62
     0
 10
11.9476
 20
3.44923
 30
0.0
 11
11.9476
 21
2.81671
 31
0.0
  0
LINE
  8
0
 62
     0
 10
11.9476
 20
2.81671
 30
0.0
 11
11.6651
 21
2.81671
 31
0.0
  0
LINE
  8
0
 62
     0
 10
11.6651
 20
2.81671
 30
0.0
 11
11.4184
 21
2.8112
 31
0.0
  0
LINE
  8
0
 62
     0
 10
11.4184
 20
2.8112
 30
0.0
 11
11.384
 21
2.77675
 31
0.0
  0
LINE
  8
0
 62
     0
 10
11.384
 20
2.77675
 30
0.0
 11
11.4184
 21
2.38538
 31
0.0
  0
LINE
  8
0
 62
     0
 10
11.4184
 20
2.38538
 30
0.0
 11
11.4984
 21
1.56821
 31
0.0
  0
LINE
  8
0
 62
     0
 10
11.4984
 20
1.56821
 30
0.0
 11
11.5796
 21
0.745518
 31
0.0
  0
LINE
  8
0
 62
     0
 10
11.5796
 20
0.745518
 30
0.0
 11
11.6224
 21
0.338998
 31
0.0
  0
LINE
  8
0
 62
     0
 10
11.6224
 20
0.338998
 30
0.0
 11
11.632
 21
0.282498
 31
0.0
  0
LINE
  8
0
 62
     0
 10
11.632
 20
0.282498
 30
0.0
 11
11.9999
 21
0.282498
 31
0.0
  0
LINE
  8
0
 62
     0
 10
11.9999
 20
0.282498
 30
0.0
 11
11.9999
 21
0
 31
0.0
  0
LINE
  8
0
 62
     0
 10
11.9999
 20
0
 30
0.0
 11
10.2044
 21
0
 31
0.0
  0
LINE
  8
0
 62
     0
 10
10.2044
 20
0
 30
0.0
 11
10.2044
 21
0.282498
 31
0.0
  0
LINE
  8
0
 62
     0
 10
10.2044
 20
0.282498
 30
0.0
 11
10.3904
 21
0.282498
 31
0.0
  0
LINE
  8
0
 62
     0
 10
10.3904
 20
0.282498
 30
0.0
 11
10.5765
 21
0.286632
 31
0.0
  0
LINE
  8
0
 62
     0
 10
10.5765
 20
0.286632
 30
0.0
 11
10.6192
 21
0.690397
 31
0.0
  0
LINE
  8
0
 62
     0
 10
10.6192
 20
0.690397
 30
0.0
 11
10.7046
 21
1.55443
 31
0.0
  0
LINE
  8
0
 62
     0
 10
10.7046
 20
1.55443
 30
0.0
 11
10.7873
 21
2.4157
 31
0.0
  0
LINE
  8
0
 62
     0
 10
10.7873
 20
2.4157
 30
0.0
 11
10.8231
 21
2.80844
 31
0.0
  0
LINE
  8
0
 62
     0
 10
10.8231
 20
2.80844
 30
0.0
 11
10.6412
 21
2.81258
 31
0.0
  0
LINE
  8
0
 62
     0
 10
10.6412
 20
2.81258
 30
0.0
 11
10.1506
 21
2.81533
 31
0.0
  0
LINE
  8
0
 62
     0
 10
10.1506
 20
2.81533
 30
0.0
 11
9.42855
 21
2.81671
 31
0.0
  0
LINE
  8
0
 62
     0
 10
9.42855
 20
2.81671
 30
0.0
 11
8.54798
 21
2.81671
 31
0.0
  0
LINE
  8
0
 62
     0
 10
8.54798
 20
2.81671
 30
0.0
 11
7.30222
 21
2.81671
 31
0.0
  0
LINE
  8
0
 62
     0
 10
7.30222
 20
2.81671
 30
0.0
 11
6.62146
 21
2.81258
 31
0.0
  0
LINE
  8
0
 62
     0
 10
6.62146
 20
2.81258
 30
0.0
 11
6.33758
 21
2.80293
 31
0.0
  0
LINE
  8
0
 62
     0
 10
6.33758
 20
2.80293
 30
0.0
 11
6.2811
 21
2.78639
 31
0.0
  0
LINE
  8
0
 62
     0
 10
6.2811
 20
2.78639
 30
0.0
 11
6.29902
 21
2.60587
 31
0.0
  0
LINE
  8
0
 62
     0
 10
6.29902
 20
2.60587
 30
0.0
 11
6.34175
 21
2.18557
 31
0.0
  0
LINE
  8
0
 62
     0
 10
6.34175
 20
2.18557
 30
0.0
 11
6.42165
 21
1.38355
 31
0.0
  0
LINE
  8
0
 62
     0
 10
6.42165
 20
1.38355
 30
0.0
 11
6.49884
 21
0.624251
 31
0.0
  0
LINE
  8
0
 62
     0
 10
6.49884
 20
0.624251
 30
0.0
 11
6.53743
 21
0.297656
 31
0.0
  0
LINE
  8
0
 62
     0
 10
6.53743
 20
0.297656
 30
0.0
 11
6.73033
 21
0.282498
 31
0.0
  0
LINE
  8
0
 62
     0
 10
6.73033
 20
0.282498
 30
0.0
 11
6.91363
 21
0.282498
 31
0.0
  0
LINE
  8
0
 62
     0
 10
6.91363
 20
0.282498
 30
0.0
 11
6.91363
 21
0
 31
0.0
  0
LINE
  8
0
 62
     0
 10
6.91363
 20
0
 30
0.0
 11
5.10148
 21
0
 31
0.0
  0
LINE
  8
0
 62
     0
 10
5.10148
 20
0
 30
0.0
 11
5.10148
 21
0.282498
 31
0.0
  0
LINE
  8
0
 62
     0
 10
5.10148
 20
0.282498
 30
0.0
 11
5.28754
 21
0.282498
 31
0.0
  0
LINE
  8
0
 62
     0
 10
5.28754
 20
0.282498
 30
0.0
 11
5.48047
 21
0.304546
 31
0.0
  0
LINE
  8
0
 62
     0
 10
5.48047
 20
0.304546
 30
0.0
 11
5.5039
 21
0.520898
 31
0.0
  0
LINE
  8
0
 62
     0
 10
5.5039
 20
0.520898
 30
0.0
 11
5.559
 21
1.05006
 31
0.0
  0
LINE
  8
0
 62
     0
 10
5.559
 20
1.05006
 30
0.0
 11
5.62927
 21
1.75149
 31
0.0
  0
LINE
  8
0
 62
     0
 10
5.62927
 20
1.75149
 30
0.0
 11
5.70096
 21
2.48185
 31
0.0
  0
LINE
  8
0
 62
     0
 10
5.70096
 20
2.48185
 30
0.0
 11
5.72851
 21
2.74092
 31
0.0
  0
LINE
  8
0
 62
     0
 10
5.72851
 20
2.74092
 30
0.0
 11
5.73952
 21
2.81671
 31
0.0
  0
LINE
  8
0
 62
     0
 10
5.73952
 20
2.81671
 30
0.0
 11
3.46852
 21
2.81671
 31
0.0
  0
LINE
  8
0
 62
     0
 10
3.46852
 20
2.81671
 30
0.0
 11
2.5852
 21
2.81671
 31
0.0
  0
LINE
  8
0
 62
     0
 10
2.5852
 20
2.81671
 30
0.0
 11
1.86173
 21
2.81258
 31
0.0
  0
LINE
  8
0
 62
     0
 10
1.86173
 20
2.81258
 30
0.0
 11
1.37115
 21
2.80844
 31
0.0
  0
LINE
  8
0
 62
     0
 10
1.37115
 20
2.80844
 30
0.0
 11
1.18925
 21
2.80293
 31
0.0
  0
LINE
  8
0
 62
     0
 10
1.18925
 20
2.80293
 30
0.0
 11
1.22094
 21
2.42673
 31
0.0
  0
LINE
  8
0
 62
     0
 10
1.22094
 20
2.42673
 30
0.0
 11
1.30776
 21
1.54065
 31
0.0
  0
LINE
  8
0
 62
     0
 10
1.30776
 20
1.54065
 30
0.0
 11
1.43316
 21
0.290766
 31
0.0
  0
LINE
  8
0
 62
     0
 10
1.43316
 20
0.290766
 30
0.0
 11
1.62195
 21
0.285254
 31
0.0
  0
LINE
  8
0
 62
     0
 10
1.62195
 20
0.285254
 30
0.0
 11
1.81074
 21
0.28112
 31
0.0
  0
LINE
  8
0
 62
     0
 10
1.81074
 20
0.28112
 30
0.0
 11
1.81074
 21
0
 31
0.0
  0
LINE
  8
0
 62
     0
 10
1.81074
 20
0
 30
0.0
 11
0.913638
 21
0
 31
0.0
  0
LINE
  8
0
 62
     0
 10
0.913638
 20
0
 30
0.0
 11
0.278364
 21
0.00275608
 31
0.0
  0
LINE
  8
0
 62
     0
 10
0.278364
 20
0.00275608
 30
0.0
 11
0.0137804
 21
0.00413413
 31
0.0
  0
LINE
  8
0
 62
     0
 10
1.90307
 20
4.0156
 30
0.0
 11
1.89756
 21
4.45795
 31
0.0
  0
LINE
  8
0
 62
     0
 10
1.89756
 20
4.45795
 30
0.0
 11
1.80523
 21
4.33532
 31
0.0
  0
LINE
  8
0
 62
     0
 10
1.80523
 20
4.33532
 30
0.0
 11
1.3739
 21
3.58704
 31
0.0
  0
LINE
  8
0
 62
     0
 10
1.3739
 20
3.58704
 30
0.0
 11
1.33119
 21
3.45474
 31
0.0
  0
LINE
  8
0
 62
     0
 10
1.33119
 20
3.45474
 30
0.0
 11
1.53376
 21
3.44923
 31
0.0
  0
LINE
  8
0
 62
     0
 10
1.53376
 20
3.44923
 30
0.0
 11
1.9072
 21
3.44923
 31
0.0
  0
LINE
  8
0
 62
     0
 10
1.9072
 20
3.44923
 30
0.0
 11
1.90307
 21
4.0156
 31
0.0
  0
LINE
  8
0
 62
     0
 10
2.85392
 20
4.28569
 30
0.0
 11
2.85392
 21
5.1525
 31
0.0
  0
LINE
  8
0
 62
     0
 10
2.85392
 20
5.1525
 30
0.0
 11
2.45566
 21
4.87549
 31
0.0
  0
LINE
  8
0
 62
     0
 10
2.45566
 20
4.87549
 30
0.0
 11
2.24758
 21
4.63021
 31
0.0
  0
LINE
  8
0
 62
     0
 10
2.24758
 20
4.63021
 30
0.0
 11
2.24758
 21
3.44923
 31
0.0
  0
LINE
  8
0
 62
     0
 10
2.24758
 20
3.44923
 30
0.0
 11
2.85392
 21
3.44923
 31
0.0
  0
LINE
  8
0
 62
     0
 10
2.85392
 20
3.44923
 30
0.0
 11
2.85392
 21
4.28569
 31
0.0
  0
LINE
  8
0
 62
     0
 10
3.74414
 20
4.3725
 30
0.0
 11
3.71105
 21
5.38536
 31
0.0
  0
LINE
  8
0
 62
     0
 10
3.71105
 20
5.38536
 30
0.0
 11
3.3693
 21
5.19797
 31
0.0
  0
LINE
  8
0
 62
     0
 10
3.3693
 20
5.19797
 30
0.0
 11
3.36655
 21
4.36563
 31
0.0
  0
LINE
  8
0
 62
     0
 10
3.36655
 20
4.36563
 30
0.0
 11
3.36655
 21
3.44923
 31
0.0
  0
LINE
  8
0
 62
     0
 10
3.36655
 20
3.44923
 30
0.0
 11
3.74414
 21
3.44923
 31
0.0
  0
LINE
  8
0
 62
     0
 10
3.74414
 20
3.44923
 30
0.0
 11
3.74414
 21
4.3725
 31
0.0
  0
LINE
  8
0
 62
     0
 10
4.61779
 20
4.17544
 30
0.0
 11
4.61641
 21
4.94164
 31
0.0
  0
LINE
  8
0
 62
     0
 10
4.61641
 20
4.94164
 30
0.0
 11
4.61504
 21
5.40879
 31
0.0
  0
LINE
  8
0
 62
     0
 10
4.61504
 20
5.40879
 30
0.0
 11
4.61229
 21
5.64444
 31
0.0
  0
LINE
  8
0
 62
     0
 10
4.61229
 20
5.64444
 30
0.0
 11
4.60678
 21
5.71197
 31
0.0
  0
LINE
  8
0
 62
     0
 10
4.60678
 20
5.71197
 30
0.0
 11
4.3863
 21
5.6527
 31
0.0
  0
LINE
  8
0
 62
     0
 10
4.3863
 20
5.6527
 30
0.0
 11
4.15893
 21
5.55075
 31
0.0
  0
LINE
  8
0
 62
     0
 10
4.15893
 20
5.55075
 30
0.0
 11
4.15893
 21
3.44923
 31
0.0
  0
LINE
  8
0
 62
     0
 10
4.15893
 20
3.44923
 30
0.0
 11
4.61641
 21
3.44923
 31
0.0
  0
LINE
  8
0
 62
     0
 10
4.61641
 20
3.44923
 30
0.0
 11
4.61779
 21
4.17544
 31
0.0
  0
LINE
  8
0
 62
     0
 10
5.67062
 20
4.6633
 30
0.0
 11
5.67062
 21
5.78499
 31
0.0
  0
LINE
  8
0
 62
     0
 10
5.67062
 20
5.78499
 30
0.0
 11
5.41154
 21
5.77261
 31
0.0
  0
LINE
  8
0
 62
     0
 10
5.41154
 20
5.77261
 30
0.0
 11
5.07118
 21
5.73952
 31
0.0
  0
LINE
  8
0
 62
     0
 10
5.07118
 20
5.73952
 30
0.0
 11
5.03121
 21
5.73126
 31
0.0
  0
LINE
  8
0
 62
     0
 10
5.03121
 20
5.73126
 30
0.0
 11
5.03121
 21
3.44923
 31
0.0
  0
LINE
  8
0
 62
     0
 10
5.03121
 20
3.44923
 30
0.0
 11
5.67062
 21
3.44923
 31
0.0
  0
LINE
  8
0
 62
     0
 10
5.67062
 20
3.44923
 30
0.0
 11
5.67062
 21
4.6633
 31
0.0
  0
LINE
  8
0
 62
     0
 10
6.72345
 20
4.63571
 30
0.0
 11
6.72345
 21
5.72851
 31
0.0
  0
LINE
  8
0
 62
     0
 10
6.72345
 20
5.72851
 30
0.0
 11
6.67523
 21
5.73952
 31
0.0
  0
LINE
  8
0
 62
     0
 10
6.67523
 20
5.73952
 30
0.0
 11
6.29348
 21
5.78086
 31
0.0
  0
LINE
  8
0
 62
     0
 10
6.29348
 20
5.78086
 30
0.0
 11
6.05236
 21
5.78499
 31
0.0
  0
LINE
  8
0
 62
     0
 10
6.05236
 20
5.78499
 30
0.0
 11
6.05236
 21
3.44923
 31
0.0
  0
LINE
  8
0
 62
     0
 10
6.05236
 20
3.44923
 30
0.0
 11
6.72345
 21
3.44923
 31
0.0
  0
LINE
  8
0
 62
     0
 10
6.72345
 20
3.44923
 30
0.0
 11
6.72345
 21
4.63571
 31
0.0
  0
LINE
  8
0
 62
     0
 10
7.85756
 20
4.54614
 30
0.0
 11
7.85756
 21
5.54937
 31
0.0
  0
LINE
  8
0
 62
     0
 10
7.85756
 20
5.54937
 30
0.0
 11
7.77215
 21
5.59622
 31
0.0
  0
LINE
  8
0
 62
     0
 10
7.77215
 20
5.59622
 30
0.0
 11
7.43038
 21
5.70234
 31
0.0
  0
LINE
  8
0
 62
     0
 10
7.43038
 20
5.70234
 30
0.0
 11
7.20577
 21
5.71334
 31
0.0
  0
LINE
  8
0
 62
     0
 10
7.20577
 20
5.71334
 30
0.0
 11
7.16167
 21
5.71472
 31
0.0
  0
LINE
  8
0
 62
     0
 10
7.16167
 20
5.71472
 30
0.0
 11
7.1658
 21
4.6688
 31
0.0
  0
LINE
  8
0
 62
     0
 10
7.1658
 20
4.6688
 30
0.0
 11
7.16855
 21
3.853
 31
0.0
  0
LINE
  8
0
 62
     0
 10
7.16855
 20
3.853
 30
0.0
 11
7.16993
 21
3.48919
 31
0.0
  0
LINE
  8
0
 62
     0
 10
7.16993
 20
3.48919
 30
0.0
 11
7.16993
 21
3.44923
 31
0.0
  0
LINE
  8
0
 62
     0
 10
7.16993
 20
3.44923
 30
0.0
 11
7.85756
 21
3.44923
 31
0.0
  0
LINE
  8
0
 62
     0
 10
7.85756
 20
3.44923
 30
0.0
 11
7.85756
 21
4.54614
 31
0.0
  0
LINE
  8
0
 62
     0
 10
8.84149
 20
4.36838
 30
0.0
 11
8.83599
 21
5.22415
 31
0.0
  0
LINE
  8
0
 62
     0
 10
8.83599
 20
5.22415
 30
0.0
 11
8.28753
 21
5.5094
 31
0.0
  0
LINE
  8
0
 62
     0
 10
8.28753
 20
5.5094
 30
0.0
 11
8.2393
 21
5.52178
 31
0.0
  0
LINE
  8
0
 62
     0
 10
8.2393
 20
5.52178
 30
0.0
 11
8.2393
 21
3.44923
 31
0.0
  0
LINE
  8
0
 62
     0
 10
8.2393
 20
3.44923
 30
0.0
 11
8.84562
 21
3.44923
 31
0.0
  0
LINE
  8
0
 62
     0
 10
8.84562
 20
3.44923
 30
0.0
 11
8.84149
 21
4.36838
 31
0.0
  0
LINE
  8
0
 62
     0
 10
9.8902
 20
4.05694
 30
0.0
 11
9.8902
 21
4.57094
 31
0.0
  0
LINE
  8
0
 62
     0
 10
9.8902
 20
4.57094
 30
0.0
 11
9.86536
 21
4.69223
 31
0.0
  0
LINE
  8
0
 62
     0
 10
9.86536
 20
4.69223
 30
0.0
 11
9.62007
 21
4.88516
 31
0.0
  0
LINE
  8
0
 62
     0
 10
9.62007
 20
4.88516
 30
0.0
 11
9.23562
 21
5.11253
 31
0.0
  0
LINE
  8
0
 62
     0
 10
9.23562
 20
5.11253
 30
0.0
 11
9.22736
 21
4.3477
 31
0.0
  0
LINE
  8
0
 62
     0
 10
9.22736
 20
4.3477
 30
0.0
 11
9.22736
 21
3.44923
 31
0.0
  0
LINE
  8
0
 62
     0
 10
9.22736
 20
3.44923
 30
0.0
 11
9.8902
 21
3.44923
 31
0.0
  0
LINE
  8
0
 62
     0
 10
9.8902
 20
3.44923
 30
0.0
 11
9.8902
 21
4.05694
 31
0.0
  0
LINE
  8
0
 62
     0
 10
10.7625
 20
3.45888
 30
0.0
 11
10.5144
 21
4.0101
 31
0.0
  0
LINE
  8
0
 62
     0
 10
10.5144
 20
4.0101
 30
0.0
 11
10.1823
 21
4.48275
 31
0.0
  0
LINE
  8
0
 62
     0
 10
10.1823
 20
4.48275
 30
0.0
 11
10.1672
 21
4.03077
 31
0.0
  0
LINE
  8
0
 62
     0
 10
10.1672
 20
4.03077
 30
0.0
 11
10.1768
 21
3.50711
 31
0.0
  0
LINE
  8
0
 62
     0
 10
10.1768
 20
3.50711
 30
0.0
 11
10.1865
 21
3.44923
 31
0.0
  0
LINE
  8
0
 62
     0
 10
10.1865
 20
3.44923
 30
0.0
 11
10.4883
 21
3.44923
 31
0.0
  0
LINE
  8
0
 62
     0
 10
10.4883
 20
3.44923
 30
0.0
 11
10.7625
 21
3.45888
 31
0.0
  0
ENDSEC
  0
EOF
