  0
SECTION
  2
HEADER
  9
$ACADVER
  1
AC1009
  9
$EXTMIN
 10
0.0
 20
0.0
 30
0.0
  9
$EXTMAX
 10
1000.0
 20
1000.0
 30
0.0
  9
$FILLMODE
 70
 0
  9
$SPLFRAME
 70
 1
  0
ENDSEC
  0
SECTION
  2
TABLES
  0
TABLE
  2
LAYER
 70
1
  0
LAYER
  2
0
 70
     0
 62
     7
  6
CONTINUOUS
  0
ENDTAB
  0
ENDSEC
  0
SECTION
  2
ENTITIES
  0
LINE
  8
0
 62
     0
 10
3.89573
 20
8.30407
 30
0.0
 11
4.02802
 21
8.28065
 31
0.0
  0
LINE
  8
0
 62
     0
 10
4.02802
 20
8.28065
 30
0.0
 11
4.14927
 21
8.21725
 31
0.0
  0
LINE
  8
0
 62
     0
 10
4.14927
 20
8.21725
 30
0.0
 11
4.7928
 21
7.53925
 31
0.0
  0
LINE
  8
0
 62
     0
 10
4.7928
 20
7.53925
 30
0.0
 11
4.85345
 21
7.41108
 31
0.0
  0
LINE
  8
0
 62
     0
 10
4.85345
 20
7.41108
 30
0.0
 11
4.87549
 21
7.27191
 31
0.0
  0
LINE
  8
0
 62
     0
 10
4.87549
 20
7.27191
 30
0.0
 11
4.87549
 21
5.38949
 31
0.0
  0
LINE
  8
0
 62
     0
 10
4.87549
 20
5.38949
 30
0.0
 11
4.84794
 21
5.25582
 31
0.0
  0
LINE
  8
0
 62
     0
 10
4.84794
 20
5.25582
 30
0.0
 11
4.7928
 21
5.14558
 31
0.0
  0
LINE
  8
0
 62
     0
 10
4.7928
 20
5.14558
 30
0.0
 11
4.14927
 21
4.46761
 31
0.0
  0
LINE
  8
0
 62
     0
 10
4.14927
 20
4.46761
 30
0.0
 11
4.02802
 21
4.40422
 31
0.0
  0
LINE
  8
0
 62
     0
 10
4.02802
 20
4.40422
 30
0.0
 11
3.89573
 21
4.38079
 31
0.0
  0
LINE
  8
0
 62
     0
 10
3.89573
 20
4.38079
 30
0.0
 11
1.60679
 21
4.38079
 31
0.0
  0
LINE
  8
0
 62
     0
 10
1.60679
 20
4.38079
 30
0.0
 11
1.46899
 21
4.40422
 31
0.0
  0
LINE
  8
0
 62
     0
 10
1.46899
 20
4.40422
 30
0.0
 11
1.33119
 21
4.47862
 31
0.0
  0
LINE
  8
0
 62
     0
 10
1.33119
 20
4.47862
 30
0.0
 11
1.21543
 21
4.59437
 31
0.0
  0
LINE
  8
0
 62
     0
 10
1.21543
 20
4.59437
 30
0.0
 11
1.17133
 21
4.73357
 31
0.0
  0
LINE
  8
0
 62
     0
 10
1.17133
 20
4.73357
 30
0.0
 11
1.17133
 21
7.94992
 31
0.0
  0
LINE
  8
0
 62
     0
 10
1.17133
 20
7.94992
 30
0.0
 11
1.2044
 21
8.05462
 31
0.0
  0
LINE
  8
0
 62
     0
 10
1.2044
 20
8.05462
 30
0.0
 11
1.28709
 21
8.15936
 31
0.0
  0
LINE
  8
0
 62
     0
 10
1.28709
 20
8.15936
 30
0.0
 11
1.38631
 21
8.24618
 31
0.0
  0
LINE
  8
0
 62
     0
 10
1.38631
 20
8.24618
 30
0.0
 11
1.48553
 21
8.28065
 31
0.0
  0
LINE
  8
0
 62
     0
 10
1.48553
 20
8.28065
 30
0.0
 11
3.89573
 21
8.30407
 31
0.0
  0
LINE
  8
0
 62
     0
 10
1.8383
 20
6.83782
 30
0.0
 11
2.1897
 21
6.4437
 31
0.0
  0
LINE
  8
0
 62
     0
 10
2.1897
 20
6.4437
 30
0.0
 11
2.25034
 21
6.31553
 31
0.0
  0
LINE
  8
0
 62
     0
 10
2.25034
 20
6.31553
 30
0.0
 11
2.28341
 21
6.17636
 31
0.0
  0
LINE
  8
0
 62
     0
 10
2.28341
 20
6.17636
 30
0.0
 11
2.28341
 21
5.32476
 31
0.0
  0
LINE
  8
0
 62
     0
 10
2.28341
 20
5.32476
 30
0.0
 11
2.32199
 21
5.20898
 31
0.0
  0
LINE
  8
0
 62
     0
 10
2.32199
 20
5.20898
 30
0.0
 11
2.42673
 21
5.11115
 31
0.0
  0
LINE
  8
0
 62
     0
 10
2.42673
 20
5.11115
 30
0.0
 11
2.5535
 21
5.04088
 31
0.0
  0
LINE
  8
0
 62
     0
 10
2.5535
 20
5.04088
 30
0.0
 11
2.66926
 21
5.01745
 31
0.0
  0
LINE
  8
0
 62
     0
 10
2.66926
 20
5.01745
 30
0.0
 11
3.89573
 21
5.01745
 31
0.0
  0
LINE
  8
0
 62
     0
 10
3.89573
 20
5.01745
 30
0.0
 11
4.02802
 21
5.05326
 31
0.0
  0
LINE
  8
0
 62
     0
 10
4.02802
 20
5.05326
 30
0.0
 11
4.15477
 21
5.14008
 31
0.0
  0
LINE
  8
0
 62
     0
 10
4.15477
 20
5.14008
 30
0.0
 11
4.24296
 21
5.26687
 31
0.0
  0
LINE
  8
0
 62
     0
 10
4.24296
 20
5.26687
 30
0.0
 11
4.27605
 21
5.41154
 31
0.0
  0
LINE
  8
0
 62
     0
 10
4.27605
 20
5.41154
 30
0.0
 11
4.27605
 21
7.27191
 31
0.0
  0
LINE
  8
0
 62
     0
 10
4.27605
 20
7.27191
 30
0.0
 11
4.2485
 21
7.38766
 31
0.0
  0
LINE
  8
0
 62
     0
 10
4.2485
 20
7.38766
 30
0.0
 11
4.18236
 21
7.51032
 31
0.0
  0
LINE
  8
0
 62
     0
 10
4.18236
 20
7.51032
 30
0.0
 11
4.08862
 21
7.60815
 31
0.0
  0
LINE
  8
0
 62
     0
 10
4.08862
 20
7.60815
 30
0.0
 11
3.98392
 21
7.64949
 31
0.0
  0
LINE
  8
0
 62
     0
 10
3.98392
 20
7.64949
 30
0.0
 11
2.04639
 21
7.64949
 31
0.0
  0
LINE
  8
0
 62
     0
 10
2.04639
 20
7.64949
 30
0.0
 11
1.95957
 21
7.61503
 31
0.0
  0
LINE
  8
0
 62
     0
 10
1.95957
 20
7.61503
 30
0.0
 11
1.87138
 21
7.53925
 31
0.0
  0
LINE
  8
0
 62
     0
 10
1.87138
 20
7.53925
 30
0.0
 11
1.80523
 21
7.44693
 31
0.0
  0
LINE
  8
0
 62
     0
 10
1.80523
 20
7.44693
 30
0.0
 11
1.77767
 21
7.35873
 31
0.0
  0
LINE
  8
0
 62
     0
 10
1.77767
 20
7.35873
 30
0.0
 11
1.77767
 21
6.96461
 31
0.0
  0
LINE
  8
0
 62
     0
 10
1.77767
 20
6.96461
 30
0.0
 11
1.8383
 21
6.83782
 31
0.0
  0
LINE
  8
0
 62
     0
 10
5.05876
 20
5.14558
 30
0.0
 11
4.99816
 21
5.27925
 31
0.0
  0
LINE
  8
0
 62
     0
 10
4.99816
 20
5.27925
 30
0.0
 11
4.99816
 21
7.40558
 31
0.0
  0
LINE
  8
0
 62
     0
 10
4.99816
 20
7.40558
 30
0.0
 11
5.05876
 21
7.53925
 31
0.0
  0
LINE
  8
0
 62
     0
 10
5.05876
 20
7.53925
 30
0.0
 11
5.70921
 21
8.21725
 31
0.0
  0
LINE
  8
0
 62
     0
 10
5.70921
 20
8.21725
 30
0.0
 11
5.83046
 21
8.28065
 31
0.0
  0
LINE
  8
0
 62
     0
 10
5.83046
 20
8.28065
 30
0.0
 11
7.72806
 21
8.30407
 31
0.0
  0
LINE
  8
0
 62
     0
 10
7.72806
 20
8.30407
 30
0.0
 11
7.85481
 21
8.28065
 31
0.0
  0
LINE
  8
0
 62
     0
 10
7.85481
 20
8.28065
 30
0.0
 11
7.97609
 21
8.21725
 31
0.0
  0
LINE
  8
0
 62
     0
 10
7.97609
 20
8.21725
 30
0.0
 11
8.59758
 21
7.56267
 31
0.0
  0
LINE
  8
0
 62
     0
 10
8.59758
 20
7.56267
 30
0.0
 11
8.62513
 21
7.4979
 31
0.0
  0
LINE
  8
0
 62
     0
 10
8.62513
 20
7.4979
 30
0.0
 11
8.62513
 21
7.44001
 31
0.0
  0
LINE
  8
0
 62
     0
 10
8.62513
 20
7.44001
 30
0.0
 11
8.56449
 21
7.27191
 31
0.0
  0
LINE
  8
0
 62
     0
 10
8.56449
 20
7.27191
 30
0.0
 11
8.40052
 21
7.20852
 31
0.0
  0
LINE
  8
0
 62
     0
 10
8.40052
 20
7.20852
 30
0.0
 11
8.33988
 21
7.20302
 31
0.0
  0
LINE
  8
0
 62
     0
 10
8.33988
 20
7.20302
 30
0.0
 11
8.29028
 21
7.23194
 31
0.0
  0
LINE
  8
0
 62
     0
 10
8.29028
 20
7.23194
 30
0.0
 11
8.21863
 21
7.29534
 31
0.0
  0
LINE
  8
0
 62
     0
 10
8.21863
 20
7.29534
 30
0.0
 11
8.10839
 21
7.40558
 31
0.0
  0
LINE
  8
0
 62
     0
 10
8.10839
 20
7.40558
 30
0.0
 11
8.00365
 21
7.51032
 31
0.0
  0
LINE
  8
0
 62
     0
 10
8.00365
 20
7.51032
 30
0.0
 11
7.932
 21
7.57922
 31
0.0
  0
LINE
  8
0
 62
     0
 10
7.932
 20
7.57922
 30
0.0
 11
7.87686
 21
7.62056
 31
0.0
  0
LINE
  8
0
 62
     0
 10
7.87686
 20
7.62056
 30
0.0
 11
7.81071
 21
7.64949
 31
0.0
  0
LINE
  8
0
 62
     0
 10
7.81071
 20
7.64949
 30
0.0
 11
5.87319
 21
7.64949
 31
0.0
  0
LINE
  8
0
 62
     0
 10
5.87319
 20
7.64949
 30
0.0
 11
5.78637
 21
7.61503
 31
0.0
  0
LINE
  8
0
 62
     0
 10
5.78637
 20
7.61503
 30
0.0
 11
5.69817
 21
7.53925
 31
0.0
  0
LINE
  8
0
 62
     0
 10
5.69817
 20
7.53925
 30
0.0
 11
5.63203
 21
7.44693
 31
0.0
  0
LINE
  8
0
 62
     0
 10
5.63203
 20
7.44693
 30
0.0
 11
5.60447
 21
7.35873
 31
0.0
  0
LINE
  8
0
 62
     0
 10
5.60447
 20
7.35873
 30
0.0
 11
5.60447
 21
6.96461
 31
0.0
  0
LINE
  8
0
 62
     0
 10
5.60447
 20
6.96461
 30
0.0
 11
5.66512
 21
6.83782
 31
0.0
  0
LINE
  8
0
 62
     0
 10
5.66512
 20
6.83782
 30
0.0
 11
6.01652
 21
6.4437
 31
0.0
  0
LINE
  8
0
 62
     0
 10
6.01652
 20
6.4437
 30
0.0
 11
6.07716
 21
6.31553
 31
0.0
  0
LINE
  8
0
 62
     0
 10
6.07716
 20
6.31553
 30
0.0
 11
6.11022
 21
6.17636
 31
0.0
  0
LINE
  8
0
 62
     0
 10
6.11022
 20
6.17636
 30
0.0
 11
6.11022
 21
5.32476
 31
0.0
  0
LINE
  8
0
 62
     0
 10
6.11022
 20
5.32476
 30
0.0
 11
6.14881
 21
5.20898
 31
0.0
  0
LINE
  8
0
 62
     0
 10
6.14881
 20
5.20898
 30
0.0
 11
6.25355
 21
5.11115
 31
0.0
  0
LINE
  8
0
 62
     0
 10
6.25355
 20
5.11115
 30
0.0
 11
6.3803
 21
5.04088
 31
0.0
  0
LINE
  8
0
 62
     0
 10
6.3803
 20
5.04088
 30
0.0
 11
6.49609
 21
5.01745
 31
0.0
  0
LINE
  8
0
 62
     0
 10
6.49609
 20
5.01745
 30
0.0
 11
7.72806
 21
5.01745
 31
0.0
  0
LINE
  8
0
 62
     0
 10
7.72806
 20
5.01745
 30
0.0
 11
7.83276
 21
5.04088
 31
0.0
  0
LINE
  8
0
 62
     0
 10
7.83276
 20
5.04088
 30
0.0
 11
7.932
 21
5.10427
 31
0.0
  0
LINE
  8
0
 62
     0
 10
7.932
 20
5.10427
 30
0.0
 11
8.00365
 21
5.16901
 31
0.0
  0
LINE
  8
0
 62
     0
 10
8.00365
 20
5.16901
 30
0.0
 11
8.10839
 21
5.27925
 31
0.0
  0
LINE
  8
0
 62
     0
 10
8.10839
 20
5.27925
 30
0.0
 11
8.21863
 21
5.38261
 31
0.0
  0
LINE
  8
0
 62
     0
 10
8.21863
 20
5.38261
 30
0.0
 11
8.29028
 21
5.45289
 31
0.0
  0
LINE
  8
0
 62
     0
 10
8.29028
 20
5.45289
 30
0.0
 11
8.33988
 21
5.47631
 31
0.0
  0
LINE
  8
0
 62
     0
 10
8.33988
 20
5.47631
 30
0.0
 11
8.40052
 21
5.47631
 31
0.0
  0
LINE
  8
0
 62
     0
 10
8.40052
 20
5.47631
 30
0.0
 11
8.56449
 21
5.41154
 31
0.0
  0
LINE
  8
0
 62
     0
 10
8.56449
 20
5.41154
 30
0.0
 11
8.62513
 21
5.24344
 31
0.0
  0
LINE
  8
0
 62
     0
 10
8.62513
 20
5.24344
 30
0.0
 11
8.62513
 21
5.18005
 31
0.0
  0
LINE
  8
0
 62
     0
 10
8.62513
 20
5.18005
 30
0.0
 11
8.59758
 21
5.1277
 31
0.0
  0
LINE
  8
0
 62
     0
 10
8.59758
 20
5.1277
 30
0.0
 11
7.97609
 21
4.46761
 31
0.0
  0
LINE
  8
0
 62
     0
 10
7.97609
 20
4.46761
 30
0.0
 11
7.85481
 21
4.40422
 31
0.0
  0
LINE
  8
0
 62
     0
 10
7.85481
 20
4.40422
 30
0.0
 11
7.72806
 21
4.38079
 31
0.0
  0
LINE
  8
0
 62
     0
 10
7.72806
 20
4.38079
 30
0.0
 11
5.95588
 21
4.38079
 31
0.0
  0
LINE
  8
0
 62
     0
 10
5.95588
 20
4.38079
 30
0.0
 11
5.82496
 21
4.40422
 31
0.0
  0
LINE
  8
0
 62
     0
 10
5.82496
 20
4.40422
 30
0.0
 11
5.70921
 21
4.46761
 31
0.0
  0
LINE
  8
0
 62
     0
 10
5.70921
 20
4.46761
 30
0.0
 11
5.05876
 21
5.14558
 31
0.0
  0
LINE
  8
0
 62
     0
 10
-0.228755
 20
0.358292
 30
0.0
 11
-0.19706
 21
0.216352
 31
0.0
  0
LINE
  8
0
 62
     0
 10
-0.19706
 20
0.216352
 30
0.0
 11
-0.121267
 21
0.111621
 31
0.0
  0
LINE
  8
0
 62
     0
 10
-0.121267
 20
0.111621
 30
0.0
 11
-0.0179145
 21
0.0440972
 31
0.0
  0
LINE
  8
0
 62
     0
 10
-0.0179145
 20
0.0440972
 30
0.0
 11
0.0950846
 21
0.0192925
 31
0.0
  0
LINE
  8
0
 62
     0
 10
0.0950846
 20
0.0192925
 30
0.0
 11
2.51354
 21
0.0192925
 31
0.0
  0
LINE
  8
0
 62
     0
 10
2.51354
 20
0.0192925
 30
0.0
 11
2.65548
 21
0.0578778
 31
0.0
  0
LINE
  8
0
 62
     0
 10
2.65548
 20
0.0578778
 30
0.0
 11
2.78088
 21
0.163987
 31
0.0
  0
LINE
  8
0
 62
     0
 10
2.78088
 20
0.163987
 30
0.0
 11
2.87183
 21
0.319705
 31
0.0
  0
LINE
  8
0
 62
     0
 10
2.87183
 20
0.319705
 30
0.0
 11
2.90628
 21
0.498849
 31
0.0
  0
LINE
  8
0
 62
     0
 10
2.90628
 20
0.498849
 30
0.0
 11
2.90628
 21
0.522277
 31
0.0
  0
LINE
  8
0
 62
     0
 10
2.90628
 20
0.522277
 30
0.0
 11
2.90491
 21
0.822688
 31
0.0
  0
LINE
  8
0
 62
     0
 10
2.90491
 20
0.822688
 30
0.0
 11
2.89801
 21
1.28157
 31
0.0
  0
LINE
  8
0
 62
     0
 10
2.89801
 20
1.28157
 30
0.0
 11
2.88975
 21
1.73909
 31
0.0
  0
LINE
  8
0
 62
     0
 10
2.88975
 20
1.73909
 30
0.0
 11
2.88837
 21
2.0395
 31
0.0
  0
LINE
  8
0
 62
     0
 10
2.88837
 20
2.0395
 30
0.0
 11
2.84978
 21
2.13734
 31
0.0
  0
LINE
  8
0
 62
     0
 10
2.84978
 20
2.13734
 30
0.0
 11
2.78088
 21
2.25585
 31
0.0
  0
LINE
  8
0
 62
     0
 10
2.78088
 20
2.25585
 30
0.0
 11
2.6982
 21
2.35645
 31
0.0
  0
LINE
  8
0
 62
     0
 10
2.6982
 20
2.35645
 30
0.0
 11
2.62241
 21
2.39779
 31
0.0
  0
LINE
  8
0
 62
     0
 10
2.62241
 20
2.39779
 30
0.0
 11
0.564995
 21
2.39779
 31
0.0
  0
LINE
  8
0
 62
     0
 10
0.564995
 20
2.39779
 30
0.0
 11
0.416168
 21
2.4474
 31
0.0
  0
LINE
  8
0
 62
     0
 10
0.416168
 20
2.4474
 30
0.0
 11
0.307303
 21
2.57418
 31
0.0
  0
LINE
  8
0
 62
     0
 10
0.307303
 20
2.57418
 30
0.0
 11
0.239779
 21
2.74781
 31
0.0
  0
LINE
  8
0
 62
     0
 10
0.239779
 20
2.74781
 30
0.0
 11
0.219108
 21
2.93247
 31
0.0
  0
LINE
  8
0
 62
     0
 10
0.219108
 20
2.93247
 30
0.0
 11
0.252181
 21
3.175
 31
0.0
  0
LINE
  8
0
 62
     0
 10
0.252181
 20
3.175
 30
0.0
 11
0.365181
 21
3.3693
 31
0.0
  0
LINE
  8
0
 62
     0
 10
0.365181
 20
3.3693
 30
0.0
 11
0.424438
 21
3.42167
 31
0.0
  0
LINE
  8
0
 62
     0
 10
0.424438
 20
3.42167
 30
0.0
 11
0.474045
 21
3.45474
 31
0.0
  0
LINE
  8
0
 62
     0
 10
0.474045
 20
3.45474
 30
0.0
 11
2.51354
 21
3.45474
 31
0.0
  0
LINE
  8
0
 62
     0
 10
2.51354
 20
3.45474
 30
0.0
 11
2.73954
 21
3.55808
 31
0.0
  0
LINE
  8
0
 62
     0
 10
2.73954
 20
3.55808
 30
0.0
 11
2.84014
 21
3.81854
 31
0.0
  0
LINE
  8
0
 62
     0
 10
2.84014
 20
3.81854
 30
0.0
 11
2.80706
 21
3.9467
 31
0.0
  0
LINE
  8
0
 62
     0
 10
2.80706
 20
3.9467
 30
0.0
 11
2.72714
 21
4.04315
 31
0.0
  0
LINE
  8
0
 62
     0
 10
2.72714
 20
4.04315
 30
0.0
 11
2.62103
 21
4.10655
 31
0.0
  0
LINE
  8
0
 62
     0
 10
2.62103
 20
4.10655
 30
0.0
 11
2.51354
 21
4.12859
 31
0.0
  0
LINE
  8
0
 62
     0
 10
2.51354
 20
4.12859
 30
0.0
 11
-0.00826823
 21
4.10379
 31
0.0
  0
LINE
  8
0
 62
     0
 10
-0.00826823
 20
4.10379
 30
0.0
 11
-0.121267
 21
4.05282
 31
0.0
  0
LINE
  8
0
 62
     0
 10
-0.121267
 20
4.05282
 30
0.0
 11
-0.213596
 21
3.9274
 31
0.0
  0
LINE
  8
0
 62
     0
 10
-0.213596
 20
3.9274
 30
0.0
 11
-0.275608
 21
3.77031
 31
0.0
  0
LINE
  8
0
 62
     0
 10
-0.275608
 20
3.77031
 30
0.0
 11
-0.300412
 21
3.62423
 31
0.0
  0
LINE
  8
0
 62
     0
 10
-0.300412
 20
3.62423
 30
0.0
 11
-0.300412
 21
2.2462
 31
0.0
  0
LINE
  8
0
 62
     0
 10
-0.300412
 20
2.2462
 30
0.0
 11
-0.265961
 21
2.06155
 31
0.0
  0
LINE
  8
0
 62
     0
 10
-0.265961
 20
2.06155
 30
0.0
 11
-0.177767
 21
1.8948
 31
0.0
  0
LINE
  8
0
 62
     0
 10
-0.177767
 20
1.8948
 30
0.0
 11
-0.0523656
 21
1.77629
 31
0.0
  0
LINE
  8
0
 62
     0
 10
-0.0523656
 20
1.77629
 30
0.0
 11
0.0950846
 21
1.73082
 31
0.0
  0
LINE
  8
0
 62
     0
 10
0.0950846
 20
1.73082
 30
0.0
 11
1.69085
 21
1.73082
 31
0.0
  0
LINE
  8
0
 62
     0
 10
1.69085
 20
1.73082
 30
0.0
 11
1.77767
 21
1.6881
 31
0.0
  0
LINE
  8
0
 62
     0
 10
1.77767
 20
1.6881
 30
0.0
 11
1.85208
 21
1.58888
 31
0.0
  0
LINE
  8
0
 62
     0
 10
1.85208
 20
1.58888
 30
0.0
 11
1.90858
 21
1.46623
 31
0.0
  0
LINE
  8
0
 62
     0
 10
1.90858
 20
1.46623
 30
0.0
 11
1.94166
 21
1.35323
 31
0.0
  0
LINE
  8
0
 62
     0
 10
1.94166
 20
1.35323
 30
0.0
 11
1.93201
 21
1.14515
 31
0.0
  0
LINE
  8
0
 62
     0
 10
1.93201
 20
1.14515
 30
0.0
 11
1.88929
 21
0.926042
 31
0.0
  0
LINE
  8
0
 62
     0
 10
1.88929
 20
0.926042
 30
0.0
 11
1.79283
 21
0.755167
 31
0.0
  0
LINE
  8
0
 62
     0
 10
1.79283
 20
0.755167
 30
0.0
 11
1.61919
 21
0.686262
 31
0.0
  0
LINE
  8
0
 62
     0
 10
1.61919
 20
0.686262
 30
0.0
 11
-0.00826823
 21
0.686262
 31
0.0
  0
LINE
  8
0
 62
     0
 10
-0.00826823
 20
0.686262
 30
0.0
 11
-0.0881944
 21
0.653189
 31
0.0
  0
LINE
  8
0
 62
     0
 10
-0.0881944
 20
0.653189
 30
0.0
 11
-0.159852
 21
0.569129
 31
0.0
  0
LINE
  8
0
 62
     0
 10
-0.159852
 20
0.569129
 30
0.0
 11
-0.209462
 21
0.460266
 31
0.0
  0
LINE
  8
0
 62
     0
 10
-0.209462
 20
0.460266
 30
0.0
 11
-0.228755
 21
0.358292
 31
0.0
  0
LINE
  8
0
 62
     0
 10
6.03306
 20
4.12859
 30
0.0
 11
3.50986
 21
4.10379
 31
0.0
  0
LINE
  8
0
 62
     0
 10
3.50986
 20
4.10379
 30
0.0
 11
3.39687
 21
4.05282
 31
0.0
  0
LINE
  8
0
 62
     0
 10
3.39687
 20
4.05282
 30
0.0
 11
3.30454
 21
3.9274
 31
0.0
  0
LINE
  8
0
 62
     0
 10
3.30454
 20
3.9274
 30
0.0
 11
3.24253
 21
3.77031
 31
0.0
  0
LINE
  8
0
 62
     0
 10
3.24253
 20
3.77031
 30
0.0
 11
3.22185
 21
3.62423
 31
0.0
  0
LINE
  8
0
 62
     0
 10
3.22185
 20
3.62423
 30
0.0
 11
3.22185
 21
0.522277
 31
0.0
  0
LINE
  8
0
 62
     0
 10
3.22185
 20
0.522277
 30
0.0
 11
3.25493
 21
0.334863
 31
0.0
  0
LINE
  8
0
 62
     0
 10
3.25493
 20
0.334863
 30
0.0
 11
3.34174
 21
0.173633
 31
0.0
  0
LINE
  8
0
 62
     0
 10
3.34174
 20
0.173633
 30
0.0
 11
3.46715
 21
0.0620116
 31
0.0
  0
LINE
  8
0
 62
     0
 10
3.46715
 20
0.0620116
 30
0.0
 11
3.6146
 21
0.0192925
 31
0.0
  0
LINE
  8
0
 62
     0
 10
3.6146
 20
0.0192925
 30
0.0
 11
6.03306
 21
0.0192925
 31
0.0
  0
LINE
  8
0
 62
     0
 10
6.03306
 20
0.0192925
 30
0.0
 11
6.17499
 21
0.0578778
 31
0.0
  0
LINE
  8
0
 62
     0
 10
6.17499
 20
0.0578778
 30
0.0
 11
6.30178
 21
0.168121
 31
0.0
  0
LINE
  8
0
 62
     0
 10
6.30178
 20
0.168121
 30
0.0
 11
6.39272
 21
0.325217
 31
0.0
  0
LINE
  8
0
 62
     0
 10
6.39272
 20
0.325217
 30
0.0
 11
6.42578
 21
0.509873
 31
0.0
  0
LINE
  8
0
 62
     0
 10
6.42578
 20
0.509873
 30
0.0
 11
6.42578
 21
0.522277
 31
0.0
  0
LINE
  8
0
 62
     0
 10
6.42578
 20
0.522277
 30
0.0
 11
6.42578
 21
0.898483
 31
0.0
  0
LINE
  8
0
 62
     0
 10
6.42578
 20
0.898483
 30
0.0
 11
6.42303
 21
1.47312
 31
0.0
  0
LINE
  8
0
 62
     0
 10
6.42303
 20
1.47312
 30
0.0
 11
6.41752
 21
2.14285
 31
0.0
  0
LINE
  8
0
 62
     0
 10
6.41752
 20
2.14285
 30
0.0
 11
6.41339
 21
2.81395
 31
0.0
  0
LINE
  8
0
 62
     0
 10
6.41339
 20
2.81395
 30
0.0
 11
6.40927
 21
3.38722
 31
0.0
  0
LINE
  8
0
 62
     0
 10
6.40927
 20
3.38722
 30
0.0
 11
6.40652
 21
3.76343
 31
0.0
  0
LINE
  8
0
 62
     0
 10
6.40652
 20
3.76343
 30
0.0
 11
6.26456
 21
4.02248
 31
0.0
  0
LINE
  8
0
 62
     0
 10
6.26456
 20
4.02248
 30
0.0
 11
6.03306
 21
4.12859
 31
0.0
  0
LINE
  8
0
 62
     0
 10
4.06382
 20
0.704176
 30
0.0
 11
4.06382
 21
0.72347
 31
0.0
  0
LINE
  8
0
 62
     0
 10
4.06382
 20
0.72347
 30
0.0
 11
4.06382
 21
0.728984
 31
0.0
  0
LINE
  8
0
 62
     0
 10
4.06382
 20
0.728984
 30
0.0
 11
5.89111
 21
3.07165
 31
0.0
  0
LINE
  8
0
 62
     0
 10
5.89111
 20
3.07165
 30
0.0
 11
5.89111
 21
1.00873
 31
0.0
  0
LINE
  8
0
 62
     0
 10
5.89111
 20
1.00873
 30
0.0
 11
5.85805
 21
0.890214
 31
0.0
  0
LINE
  8
0
 62
     0
 10
5.85805
 20
0.890214
 30
0.0
 11
5.77949
 21
0.78686
 31
0.0
  0
LINE
  8
0
 62
     0
 10
5.77949
 20
0.78686
 30
0.0
 11
5.68029
 21
0.713825
 31
0.0
  0
LINE
  8
0
 62
     0
 10
5.68029
 20
0.713825
 30
0.0
 11
5.58243
 21
0.686262
 31
0.0
  0
LINE
  8
0
 62
     0
 10
5.58243
 20
0.686262
 30
0.0
 11
4.08312
 21
0.686262
 31
0.0
  0
LINE
  8
0
 62
     0
 10
4.08312
 20
0.686262
 30
0.0
 11
4.06382
 21
0.704176
 31
0.0
  0
LINE
  8
0
 62
     0
 10
3.75652
 20
1.07487
 30
0.0
 11
3.74276
 21
1.1231
 31
0.0
  0
LINE
  8
0
 62
     0
 10
3.74276
 20
1.1231
 30
0.0
 11
3.74276
 21
3.02893
 31
0.0
  0
LINE
  8
0
 62
     0
 10
3.74276
 20
3.02893
 30
0.0
 11
3.76068
 21
3.15433
 31
0.0
  0
LINE
  8
0
 62
     0
 10
3.76068
 20
3.15433
 30
0.0
 11
3.81579
 21
3.288
 31
0.0
  0
LINE
  8
0
 62
     0
 10
3.81579
 20
3.288
 30
0.0
 11
3.89573
 21
3.39687
 31
0.0
  0
LINE
  8
0
 62
     0
 10
3.89573
 20
3.39687
 30
0.0
 11
3.99355
 21
3.44234
 31
0.0
  0
LINE
  8
0
 62
     0
 10
3.99355
 20
3.44234
 30
0.0
 11
5.60172
 21
3.44234
 31
0.0
  0
LINE
  8
0
 62
     0
 10
5.60172
 20
3.44234
 30
0.0
 11
3.75652
 21
1.07487
 31
0.0
  0
LINE
  8
0
 62
     0
 10
6.40098
 20
0.358292
 30
0.0
 11
6.43269
 21
0.216352
 31
0.0
  0
LINE
  8
0
 62
     0
 10
6.43269
 20
0.216352
 30
0.0
 11
6.50847
 21
0.111621
 31
0.0
  0
LINE
  8
0
 62
     0
 10
6.50847
 20
0.111621
 30
0.0
 11
6.60908
 21
0.0440972
 31
0.0
  0
LINE
  8
0
 62
     0
 10
6.60908
 20
0.0440972
 30
0.0
 11
6.72345
 21
0.0192925
 31
0.0
  0
LINE
  8
0
 62
     0
 10
6.72345
 20
0.0192925
 30
0.0
 11
9.15017
 21
0.0192925
 31
0.0
  0
LINE
  8
0
 62
     0
 10
9.15017
 20
0.0192925
 30
0.0
 11
9.2921
 21
0.0578778
 31
0.0
  0
LINE
  8
0
 62
     0
 10
9.2921
 20
0.0578778
 30
0.0
 11
9.41751
 21
0.163987
 31
0.0
  0
LINE
  8
0
 62
     0
 10
9.41751
 20
0.163987
 30
0.0
 11
9.50845
 21
0.319705
 31
0.0
  0
LINE
  8
0
 62
     0
 10
9.50845
 20
0.319705
 30
0.0
 11
9.54292
 21
0.498849
 31
0.0
  0
LINE
  8
0
 62
     0
 10
9.54292
 20
0.498849
 30
0.0
 11
9.54292
 21
0.522277
 31
0.0
  0
LINE
  8
0
 62
     0
 10
9.54292
 20
0.522277
 30
0.0
 11
9.53879
 21
0.950846
 31
0.0
  0
LINE
  8
0
 62
     0
 10
9.53879
 20
0.950846
 30
0.0
 11
9.53188
 21
1.45107
 31
0.0
  0
LINE
  8
0
 62
     0
 10
9.53188
 20
1.45107
 30
0.0
 11
9.52638
 21
1.86724
 31
0.0
  0
LINE
  8
0
 62
     0
 10
9.52638
 20
1.86724
 30
0.0
 11
9.525
 21
2.0395
 31
0.0
  0
LINE
  8
0
 62
     0
 10
9.525
 20
2.0395
 30
0.0
 11
9.47265
 21
2.18006
 31
0.0
  0
LINE
  8
0
 62
     0
 10
9.47265
 20
2.18006
 30
0.0
 11
9.16947
 21
2.59209
 31
0.0
  0
LINE
  8
0
 62
     0
 10
9.16947
 20
2.59209
 30
0.0
 11
9.1488
 21
2.6293
 31
0.0
  0
LINE
  8
0
 62
     0
 10
9.1488
 20
2.6293
 30
0.0
 11
9.12262
 21
2.70233
 31
0.0
  0
LINE
  8
0
 62
     0
 10
9.12262
 20
2.70233
 30
0.0
 11
9.0992
 21
2.78364
 31
0.0
  0
LINE
  8
0
 62
     0
 10
9.0992
 20
2.78364
 30
0.0
 11
9.08953
 21
2.84152
 31
0.0
  0
LINE
  8
0
 62
     0
 10
9.08953
 20
2.84152
 30
0.0
 11
9.08953
 21
3.76343
 31
0.0
  0
LINE
  8
0
 62
     0
 10
9.08953
 20
3.76343
 30
0.0
 11
9.04543
 21
3.88881
 31
0.0
  0
LINE
  8
0
 62
     0
 10
9.04543
 20
3.88881
 30
0.0
 11
8.94211
 21
4.00734
 31
0.0
  0
LINE
  8
0
 62
     0
 10
8.94211
 20
4.00734
 30
0.0
 11
8.81669
 21
4.09416
 31
0.0
  0
LINE
  8
0
 62
     0
 10
8.81669
 20
4.09416
 30
0.0
 11
8.70783
 21
4.12859
 31
0.0
  0
LINE
  8
0
 62
     0
 10
8.70783
 20
4.12859
 30
0.0
 11
8.69403
 21
4.12859
 31
0.0
  0
LINE
  8
0
 62
     0
 10
8.69403
 20
4.12859
 30
0.0
 11
8.45012
 21
4.12859
 31
0.0
  0
LINE
  8
0
 62
     0
 10
8.45012
 20
4.12859
 30
0.0
 11
8.08634
 21
4.12859
 31
0.0
  0
LINE
  8
0
 62
     0
 10
8.08634
 20
4.12859
 30
0.0
 11
7.655
 21
4.12859
 31
0.0
  0
LINE
  8
0
 62
     0
 10
7.655
 20
4.12859
 30
0.0
 11
7.22231
 21
4.12859
 31
0.0
  0
LINE
  8
0
 62
     0
 10
7.22231
 20
4.12859
 30
0.0
 11
6.85024
 21
4.12859
 31
0.0
  0
LINE
  8
0
 62
     0
 10
6.85024
 20
4.12859
 30
0.0
 11
6.61458
 21
4.12859
 31
0.0
  0
LINE
  8
0
 62
     0
 10
6.61458
 20
4.12859
 30
0.0
 11
6.46575
 21
4.0101
 31
0.0
  0
LINE
  8
0
 62
     0
 10
6.46575
 20
4.0101
 30
0.0
 11
6.40098
 21
3.80615
 31
0.0
  0
LINE
  8
0
 62
     0
 10
6.40098
 20
3.80615
 30
0.0
 11
6.43269
 21
3.66695
 31
0.0
  0
LINE
  8
0
 62
     0
 10
6.43269
 20
3.66695
 30
0.0
 11
6.50847
 21
3.55671
 31
0.0
  0
LINE
  8
0
 62
     0
 10
6.50847
 20
3.55671
 30
0.0
 11
6.60908
 21
3.48506
 31
0.0
  0
LINE
  8
0
 62
     0
 10
6.60908
 20
3.48506
 30
0.0
 11
6.72345
 21
3.46025
 31
0.0
  0
LINE
  8
0
 62
     0
 10
6.72345
 20
3.46025
 30
0.0
 11
8.31783
 21
3.46025
 31
0.0
  0
LINE
  8
0
 62
     0
 10
8.31783
 20
3.46025
 30
0.0
 11
8.40602
 21
3.41753
 31
0.0
  0
LINE
  8
0
 62
     0
 10
8.40602
 20
3.41753
 30
0.0
 11
8.47908
 21
3.31694
 31
0.0
  0
LINE
  8
0
 62
     0
 10
8.47908
 20
3.31694
 30
0.0
 11
8.53556
 21
3.19154
 31
0.0
  0
LINE
  8
0
 62
     0
 10
8.53556
 20
3.19154
 30
0.0
 11
8.56865
 21
3.07578
 31
0.0
  0
LINE
  8
0
 62
     0
 10
8.56865
 20
3.07578
 30
0.0
 11
8.55899
 21
2.86494
 31
0.0
  0
LINE
  8
0
 62
     0
 10
8.55899
 20
2.86494
 30
0.0
 11
8.51627
 21
2.6417
 31
0.0
  0
LINE
  8
0
 62
     0
 10
8.51627
 20
2.6417
 30
0.0
 11
8.41982
 21
2.46807
 31
0.0
  0
LINE
  8
0
 62
     0
 10
8.41982
 20
2.46807
 30
0.0
 11
8.24618
 21
2.39779
 31
0.0
  0
LINE
  8
0
 62
     0
 10
8.24618
 20
2.39779
 30
0.0
 11
7.51307
 21
2.39779
 31
0.0
  0
LINE
  8
0
 62
     0
 10
7.51307
 20
2.39779
 30
0.0
 11
7.43589
 21
2.36472
 31
0.0
  0
LINE
  8
0
 62
     0
 10
7.43589
 20
2.36472
 30
0.0
 11
7.36424
 21
2.28341
 31
0.0
  0
LINE
  8
0
 62
     0
 10
7.36424
 20
2.28341
 30
0.0
 11
7.31464
 21
2.1773
 31
0.0
  0
LINE
  8
0
 62
     0
 10
7.31464
 20
2.1773
 30
0.0
 11
7.29534
 21
2.0767
 31
0.0
  0
LINE
  8
0
 62
     0
 10
7.29534
 20
2.0767
 30
0.0
 11
7.32702
 21
1.94028
 31
0.0
  0
LINE
  8
0
 62
     0
 10
7.32702
 20
1.94028
 30
0.0
 11
7.40421
 21
1.83141
 31
0.0
  0
LINE
  8
0
 62
     0
 10
7.40421
 20
1.83141
 30
0.0
 11
7.50895
 21
1.75838
 31
0.0
  0
LINE
  8
0
 62
     0
 10
7.50895
 20
1.75838
 30
0.0
 11
7.61781
 21
1.73082
 31
0.0
  0
LINE
  8
0
 62
     0
 10
7.61781
 20
1.73082
 30
0.0
 11
8.31783
 21
1.73082
 31
0.0
  0
LINE
  8
0
 62
     0
 10
8.31783
 20
1.73082
 30
0.0
 11
8.40602
 21
1.6881
 31
0.0
  0
LINE
  8
0
 62
     0
 10
8.40602
 20
1.6881
 30
0.0
 11
8.47908
 21
1.58888
 31
0.0
  0
LINE
  8
0
 62
     0
 10
8.47908
 20
1.58888
 30
0.0
 11
8.53556
 21
1.46623
 31
0.0
  0
LINE
  8
0
 62
     0
 10
8.53556
 20
1.46623
 30
0.0
 11
8.56865
 21
1.35323
 31
0.0
  0
LINE
  8
0
 62
     0
 10
8.56865
 20
1.35323
 30
0.0
 11
8.55899
 21
1.14515
 31
0.0
  0
LINE
  8
0
 62
     0
 10
8.55899
 20
1.14515
 30
0.0
 11
8.51627
 21
0.926042
 31
0.0
  0
LINE
  8
0
 62
     0
 10
8.51627
 20
0.926042
 30
0.0
 11
8.41982
 21
0.755167
 31
0.0
  0
LINE
  8
0
 62
     0
 10
8.41982
 20
0.755167
 30
0.0
 11
8.24618
 21
0.686262
 31
0.0
  0
LINE
  8
0
 62
     0
 10
8.24618
 20
0.686262
 30
0.0
 11
6.61458
 21
0.686262
 31
0.0
  0
LINE
  8
0
 62
     0
 10
6.61458
 20
0.686262
 30
0.0
 11
6.53881
 21
0.653189
 31
0.0
  0
LINE
  8
0
 62
     0
 10
6.53881
 20
0.653189
 30
0.0
 11
6.46987
 21
0.569129
 31
0.0
  0
LINE
  8
0
 62
     0
 10
6.46987
 20
0.569129
 30
0.0
 11
6.42027
 21
0.460266
 31
0.0
  0
LINE
  8
0
 62
     0
 10
6.42027
 20
0.460266
 30
0.0
 11
6.40098
 21
0.358292
 31
0.0
  0
ENDSEC
  0
EOF
