  0
SECTION
  2
HEADER
  9
$ACADVER
  1
AC1009
  9
$EXTMIN
 10
0.0
 20
0.0
 30
0.0
  9
$EXTMAX
 10
1000.0
 20
1000.0
 30
0.0
  9
$FILLMODE
 70
 0
  9
$SPLFRAME
 70
 1
  0
ENDSEC
  0
SECTION
  2
TABLES
  0
TABLE
  2
LAYER
 70
1
  0
LAYER
  2
0
 70
     0
 62
     7
  6
CONTINUOUS
  0
ENDTAB
  0
ENDSEC
  0
SECTION
  2
ENTITIES
  0
LINE
  8
0
 62
     0
 10
4.89892
 20
0.0372071
 30
0.0
 11
4.02248
 21
0.219108
 31
0.0
  0
LINE
  8
0
 62
     0
 10
4.02248
 20
0.219108
 30
0.0
 11
3.16398
 21
0.487825
 31
0.0
  0
LINE
  8
0
 62
     0
 10
3.16398
 20
0.487825
 30
0.0
 11
1.82177
 21
1.20303
 31
0.0
  0
LINE
  8
0
 62
     0
 10
1.82177
 20
1.20303
 30
0.0
 11
0.828202
 21
2.13872
 31
0.0
  0
LINE
  8
0
 62
     0
 10
0.828202
 20
2.13872
 30
0.0
 11
0.21084
 21
3.26182
 31
0.0
  0
LINE
  8
0
 62
     0
 10
0.21084
 20
3.26182
 30
0.0
 11
0
 21
4.53376
 31
0.0
  0
LINE
  8
0
 62
     0
 10
0
 20
4.53376
 30
0.0
 11
0.235645
 21
5.88148
 31
0.0
  0
LINE
  8
0
 62
     0
 10
0.235645
 20
5.88148
 30
0.0
 11
0.920531
 21
7.05418
 31
0.0
  0
LINE
  8
0
 62
     0
 10
0.920531
 20
7.05418
 30
0.0
 11
2.02158
 21
8.00777
 31
0.0
  0
LINE
  8
0
 62
     0
 10
2.02158
 20
8.00777
 30
0.0
 11
3.50435
 21
8.70507
 31
0.0
  0
LINE
  8
0
 62
     0
 10
3.50435
 20
8.70507
 30
0.0
 11
4.69911
 21
9.00409
 31
0.0
  0
LINE
  8
0
 62
     0
 10
4.69911
 20
9.00409
 30
0.0
 11
5.99997
 21
9.09091
 31
0.0
  0
LINE
  8
0
 62
     0
 10
5.99997
 20
9.09091
 30
0.0
 11
7.29947
 21
9.00409
 31
0.0
  0
LINE
  8
0
 62
     0
 10
7.29947
 20
9.00409
 30
0.0
 11
8.49559
 21
8.70507
 31
0.0
  0
LINE
  8
0
 62
     0
 10
8.49559
 20
8.70507
 30
0.0
 11
9.97701
 21
8.00777
 31
0.0
  0
LINE
  8
0
 62
     0
 10
9.97701
 20
8.00777
 30
0.0
 11
11.078
 21
7.05418
 31
0.0
  0
LINE
  8
0
 62
     0
 10
11.078
 20
7.05418
 30
0.0
 11
11.763
 21
5.88148
 31
0.0
  0
LINE
  8
0
 62
     0
 10
11.763
 20
5.88148
 30
0.0
 11
11.9999
 21
4.53376
 31
0.0
  0
LINE
  8
0
 62
     0
 10
11.9999
 20
4.53376
 30
0.0
 11
11.6968
 21
3.01928
 31
0.0
  0
LINE
  8
0
 62
     0
 10
11.6968
 20
3.01928
 30
0.0
 11
10.8272
 21
1.74184
 31
0.0
  0
LINE
  8
0
 62
     0
 10
10.8272
 20
1.74184
 30
0.0
 11
9.44506
 21
0.759298
 31
0.0
  0
LINE
  8
0
 62
     0
 10
9.44506
 20
0.759298
 30
0.0
 11
7.60677
 21
0.125402
 31
0.0
  0
LINE
  8
0
 62
     0
 10
7.60677
 20
0.125402
 30
0.0
 11
7.04176
 21
0.0537436
 31
0.0
  0
LINE
  8
0
 62
     0
 10
7.04176
 20
0.0537436
 30
0.0
 11
6.27006
 21
0.0110243
 31
0.0
  0
LINE
  8
0
 62
     0
 10
6.27006
 20
0.0110243
 30
0.0
 11
5.48873
 21
0.00275608
 31
0.0
  0
LINE
  8
0
 62
     0
 10
5.48873
 20
0.00275608
 30
0.0
 11
4.89892
 21
0.0372071
 31
0.0
  0
LINE
  8
0
 62
     0
 10
5.28341
 20
2.58796
 30
0.0
 11
5.9738
 21
2.75057
 31
0.0
  0
LINE
  8
0
 62
     0
 10
5.9738
 20
2.75057
 30
0.0
 11
6.58566
 21
2.61138
 31
0.0
  0
LINE
  8
0
 62
     0
 10
6.58566
 20
2.61138
 30
0.0
 11
7.08865
 21
2.47082
 31
0.0
  0
LINE
  8
0
 62
     0
 10
7.08865
 20
2.47082
 30
0.0
 11
7.34494
 21
2.54248
 31
0.0
  0
LINE
  8
0
 62
     0
 10
7.34494
 20
2.54248
 30
0.0
 11
7.75561
 21
2.71749
 31
0.0
  0
LINE
  8
0
 62
     0
 10
7.75561
 20
2.71749
 30
0.0
 11
8.27373
 21
2.96278
 31
0.0
  0
LINE
  8
0
 62
     0
 10
8.27373
 20
2.96278
 30
0.0
 11
8.88559
 21
2.96967
 31
0.0
  0
LINE
  8
0
 62
     0
 10
8.88559
 20
2.96967
 30
0.0
 11
9.38445
 21
2.98208
 31
0.0
  0
LINE
  8
0
 62
     0
 10
9.38445
 20
2.98208
 30
0.0
 11
9.66971
 21
3.02341
 31
0.0
  0
LINE
  8
0
 62
     0
 10
9.66971
 20
3.02341
 30
0.0
 11
9.83918
 21
3.12677
 31
0.0
  0
LINE
  8
0
 62
     0
 10
9.83918
 20
3.12677
 30
0.0
 11
9.9894
 21
3.32245
 31
0.0
  0
LINE
  8
0
 62
     0
 10
9.9894
 20
3.32245
 30
0.0
 11
10.378
 21
3.72346
 31
0.0
  0
LINE
  8
0
 62
     0
 10
10.378
 20
3.72346
 30
0.0
 11
10.9182
 21
3.9467
 31
0.0
  0
LINE
  8
0
 62
     0
 10
10.9182
 20
3.9467
 30
0.0
 11
11.3702
 21
4.16306
 31
0.0
  0
LINE
  8
0
 62
     0
 10
11.3702
 20
4.16306
 30
0.0
 11
11.4791
 21
4.33257
 31
0.0
  0
LINE
  8
0
 62
     0
 10
11.4791
 20
4.33257
 30
0.0
 11
11.4942
 21
4.64813
 31
0.0
  0
LINE
  8
0
 62
     0
 10
11.4942
 20
4.64813
 30
0.0
 11
11.2159
 21
5.89111
 31
0.0
  0
LINE
  8
0
 62
     0
 10
11.2159
 20
5.89111
 30
0.0
 11
10.4221
 21
6.99354
 31
0.0
  0
LINE
  8
0
 62
     0
 10
10.4221
 20
6.99354
 30
0.0
 11
9.12813
 21
7.90028
 31
0.0
  0
LINE
  8
0
 62
     0
 10
9.12813
 20
7.90028
 30
0.0
 11
7.40558
 21
8.4763
 31
0.0
  0
LINE
  8
0
 62
     0
 10
7.40558
 20
8.4763
 30
0.0
 11
5.99997
 21
8.59208
 31
0.0
  0
LINE
  8
0
 62
     0
 10
5.99997
 20
8.59208
 30
0.0
 11
4.59437
 21
8.4763
 31
0.0
  0
LINE
  8
0
 62
     0
 10
4.59437
 20
8.4763
 30
0.0
 11
2.44878
 21
7.66879
 31
0.0
  0
LINE
  8
0
 62
     0
 10
2.44878
 20
7.66879
 30
0.0
 11
1.02664
 21
6.32795
 31
0.0
  0
LINE
  8
0
 62
     0
 10
1.02664
 20
6.32795
 30
0.0
 11
0.587043
 21
4.88516
 31
0.0
  0
LINE
  8
0
 62
     0
 10
0.587043
 20
4.88516
 30
0.0
 11
0.607716
 21
4.45244
 31
0.0
  0
LINE
  8
0
 62
     0
 10
0.607716
 20
4.45244
 30
0.0
 11
0.836468
 21
4.19061
 31
0.0
  0
LINE
  8
0
 62
     0
 10
0.836468
 20
4.19061
 30
0.0
 11
1.28846
 21
3.73863
 31
0.0
  0
LINE
  8
0
 62
     0
 10
1.28846
 20
3.73863
 30
0.0
 11
1.71152
 21
3.31418
 31
0.0
  0
LINE
  8
0
 62
     0
 10
1.71152
 20
3.31418
 30
0.0
 11
1.92098
 21
3.23288
 31
0.0
  0
LINE
  8
0
 62
     0
 10
1.92098
 20
3.23288
 30
0.0
 11
2.31097
 21
3.24253
 31
0.0
  0
LINE
  8
0
 62
     0
 10
2.31097
 20
3.24253
 30
0.0
 11
2.61001
 21
3.25355
 31
0.0
  0
LINE
  8
0
 62
     0
 10
2.61001
 20
3.25355
 30
0.0
 11
2.85254
 21
3.20807
 31
0.0
  0
LINE
  8
0
 62
     0
 10
2.85254
 20
3.20807
 30
0.0
 11
3.14331
 21
3.06889
 31
0.0
  0
LINE
  8
0
 62
     0
 10
3.14331
 20
3.06889
 30
0.0
 11
3.58567
 21
2.80017
 31
0.0
  0
LINE
  8
0
 62
     0
 10
3.58567
 20
2.80017
 30
0.0
 11
4.42627
 21
2.44326
 31
0.0
  0
LINE
  8
0
 62
     0
 10
4.42627
 20
2.44326
 30
0.0
 11
5.28341
 21
2.58796
 31
0.0
  0
LINE
  8
0
 62
     0
 10
6.55119
 20
2.94349
 30
0.0
 11
6.4685
 21
3.14606
 31
0.0
  0
LINE
  8
0
 62
     0
 10
6.4685
 20
3.14606
 30
0.0
 11
6.53052
 21
3.31832
 31
0.0
  0
LINE
  8
0
 62
     0
 10
6.53052
 20
3.31832
 30
0.0
 11
6.87091
 21
3.56912
 31
0.0
  0
LINE
  8
0
 62
     0
 10
6.87091
 20
3.56912
 30
0.0
 11
7.35873
 21
3.81716
 31
0.0
  0
LINE
  8
0
 62
     0
 10
7.35873
 20
3.81716
 30
0.0
 11
7.60815
 21
3.73172
 31
0.0
  0
LINE
  8
0
 62
     0
 10
7.60815
 20
3.73172
 30
0.0
 11
7.5916
 21
3.48368
 31
0.0
  0
LINE
  8
0
 62
     0
 10
7.5916
 20
3.48368
 30
0.0
 11
7.18372
 21
3.15571
 31
0.0
  0
LINE
  8
0
 62
     0
 10
7.18372
 20
3.15571
 30
0.0
 11
6.76067
 21
2.91869
 31
0.0
  0
LINE
  8
0
 62
     0
 10
6.76067
 20
2.91869
 30
0.0
 11
6.55119
 21
2.94349
 31
0.0
  0
LINE
  8
0
 62
     0
 10
4.12447
 20
3.4947
 30
0.0
 11
3.75514
 21
3.74414
 31
0.0
  0
LINE
  8
0
 62
     0
 10
3.75514
 20
3.74414
 30
0.0
 11
3.66695
 21
3.90536
 31
0.0
  0
LINE
  8
0
 62
     0
 10
3.66695
 20
3.90536
 30
0.0
 11
3.81854
 21
4.16994
 31
0.0
  0
LINE
  8
0
 62
     0
 10
3.81854
 20
4.16994
 30
0.0
 11
4.38217
 21
3.9467
 31
0.0
  0
LINE
  8
0
 62
     0
 10
4.38217
 20
3.9467
 30
0.0
 11
4.83415
 21
3.64906
 31
0.0
  0
LINE
  8
0
 62
     0
 10
4.83415
 20
3.64906
 30
0.0
 11
4.92234
 21
3.4575
 31
0.0
  0
LINE
  8
0
 62
     0
 10
4.92234
 20
3.4575
 30
0.0
 11
4.73495
 21
3.22737
 31
0.0
  0
LINE
  8
0
 62
     0
 10
4.73495
 20
3.22737
 30
0.0
 11
4.12447
 21
3.4947
 31
0.0
  0
LINE
  8
0
 62
     0
 10
5.43775
 20
4.32841
 30
0.0
 11
5.03534
 21
4.44419
 31
0.0
  0
LINE
  8
0
 62
     0
 10
5.03534
 20
4.44419
 30
0.0
 11
4.63021
 21
4.61091
 31
0.0
  0
LINE
  8
0
 62
     0
 10
4.63021
 20
4.61091
 30
0.0
 11
4.05007
 21
5.09598
 31
0.0
  0
LINE
  8
0
 62
     0
 10
4.05007
 20
5.09598
 30
0.0
 11
3.84334
 21
5.74643
 31
0.0
  0
LINE
  8
0
 62
     0
 10
3.84334
 20
5.74643
 30
0.0
 11
4.00459
 21
6.31832
 31
0.0
  0
LINE
  8
0
 62
     0
 10
4.00459
 20
6.31832
 30
0.0
 11
4.45382
 21
6.7703
 31
0.0
  0
LINE
  8
0
 62
     0
 10
4.45382
 20
6.7703
 30
0.0
 11
5.13733
 21
7.06797
 31
0.0
  0
LINE
  8
0
 62
     0
 10
5.13733
 20
7.06797
 30
0.0
 11
5.99997
 21
7.17405
 31
0.0
  0
LINE
  8
0
 62
     0
 10
5.99997
 20
7.17405
 30
0.0
 11
7.0032
 21
7.03076
 31
0.0
  0
LINE
  8
0
 62
     0
 10
7.0032
 20
7.03076
 30
0.0
 11
7.75974
 21
6.58978
 31
0.0
  0
LINE
  8
0
 62
     0
 10
7.75974
 20
6.58978
 30
0.0
 11
8.09597
 21
6.08954
 31
0.0
  0
LINE
  8
0
 62
     0
 10
8.09597
 20
6.08954
 30
0.0
 11
8.13869
 21
5.54246
 31
0.0
  0
LINE
  8
0
 62
     0
 10
8.13869
 20
5.54246
 30
0.0
 11
7.90028
 21
5.02708
 31
0.0
  0
LINE
  8
0
 62
     0
 10
7.90028
 20
5.02708
 30
0.0
 11
7.39592
 21
4.62195
 31
0.0
  0
LINE
  8
0
 62
     0
 10
7.39592
 20
4.62195
 30
0.0
 11
6.80889
 21
4.39455
 31
0.0
  0
LINE
  8
0
 62
     0
 10
6.80889
 20
4.39455
 30
0.0
 11
6.1171
 21
4.32153
 31
0.0
  0
LINE
  8
0
 62
     0
 10
6.1171
 20
4.32153
 30
0.0
 11
5.68579
 21
4.3174
 31
0.0
  0
LINE
  8
0
 62
     0
 10
5.68579
 20
4.3174
 30
0.0
 11
5.43775
 21
4.32841
 31
0.0
  0
LINE
  8
0
 62
     0
 10
8.88146
 20
4.4552
 30
0.0
 11
8.41294
 21
4.64675
 31
0.0
  0
LINE
  8
0
 62
     0
 10
8.41294
 20
4.64675
 30
0.0
 11
8.34401
 21
4.84244
 31
0.0
  0
LINE
  8
0
 62
     0
 10
8.34401
 20
4.84244
 30
0.0
 11
8.48184
 21
5.05876
 31
0.0
  0
LINE
  8
0
 62
     0
 10
8.48184
 20
5.05876
 30
0.0
 11
9.05372
 21
4.93063
 31
0.0
  0
LINE
  8
0
 62
     0
 10
9.05372
 20
4.93063
 30
0.0
 11
9.40234
 21
4.79972
 31
0.0
  0
LINE
  8
0
 62
     0
 10
9.40234
 20
4.79972
 30
0.0
 11
9.57047
 21
4.71015
 31
0.0
  0
LINE
  8
0
 62
     0
 10
9.57047
 20
4.71015
 30
0.0
 11
9.5057
 21
4.3725
 31
0.0
  0
LINE
  8
0
 62
     0
 10
9.5057
 20
4.3725
 30
0.0
 11
9.33207
 21
4.31327
 31
0.0
  0
LINE
  8
0
 62
     0
 10
9.33207
 20
4.31327
 30
0.0
 11
8.88146
 21
4.4552
 31
0.0
  0
LINE
  8
0
 62
     0
 10
2.17041
 20
4.58611
 30
0.0
 11
1.74873
 21
4.77213
 31
0.0
  0
LINE
  8
0
 62
     0
 10
1.74873
 20
4.77213
 30
0.0
 11
1.71152
 21
5.00228
 31
0.0
  0
LINE
  8
0
 62
     0
 10
1.71152
 20
5.00228
 30
0.0
 11
1.88378
 21
5.1525
 31
0.0
  0
LINE
  8
0
 62
     0
 10
1.88378
 20
5.1525
 30
0.0
 11
2.39779
 21
5.04913
 31
0.0
  0
LINE
  8
0
 62
     0
 10
2.39779
 20
5.04913
 30
0.0
 11
2.94211
 21
4.82177
 31
0.0
  0
LINE
  8
0
 62
     0
 10
2.94211
 20
4.82177
 30
0.0
 11
2.92695
 21
4.54477
 31
0.0
  0
LINE
  8
0
 62
     0
 10
2.92695
 20
4.54477
 30
0.0
 11
2.71336
 21
4.45107
 31
0.0
  0
LINE
  8
0
 62
     0
 10
2.71336
 20
4.45107
 30
0.0
 11
2.17041
 21
4.58611
 31
0.0
  0
LINE
  8
0
 62
     0
 10
9.5002
 20
5.71747
 30
0.0
 11
9.25354
 21
6.33758
 31
0.0
  0
LINE
  8
0
 62
     0
 10
9.25354
 20
6.33758
 30
0.0
 11
9.14054
 21
6.7152
 31
0.0
  0
LINE
  8
0
 62
     0
 10
9.14054
 20
6.7152
 30
0.0
 11
9.4258
 21
6.91638
 31
0.0
  0
LINE
  8
0
 62
     0
 10
9.4258
 20
6.91638
 30
0.0
 11
9.57873
 21
6.83782
 31
0.0
  0
LINE
  8
0
 62
     0
 10
9.57873
 20
6.83782
 30
0.0
 11
9.75653
 21
6.43407
 31
0.0
  0
LINE
  8
0
 62
     0
 10
9.75653
 20
6.43407
 30
0.0
 11
9.92463
 21
5.9242
 31
0.0
  0
LINE
  8
0
 62
     0
 10
9.92463
 20
5.9242
 30
0.0
 11
9.88191
 21
5.71472
 31
0.0
  0
LINE
  8
0
 62
     0
 10
9.88191
 20
5.71472
 30
0.0
 11
9.67521
 21
5.66099
 31
0.0
  0
LINE
  8
0
 62
     0
 10
9.67521
 20
5.66099
 30
0.0
 11
9.5002
 21
5.71747
 31
0.0
  0
LINE
  8
0
 62
     0
 10
1.55581
 20
6.13639
 30
0.0
 11
1.60541
 21
6.53327
 31
0.0
  0
LINE
  8
0
 62
     0
 10
1.60541
 20
6.53327
 30
0.0
 11
2.03812
 21
6.85161
 31
0.0
  0
LINE
  8
0
 62
     0
 10
2.03812
 20
6.85161
 30
0.0
 11
2.37712
 21
7.01834
 31
0.0
  0
LINE
  8
0
 62
     0
 10
2.37712
 20
7.01834
 30
0.0
 11
2.55075
 21
6.94119
 31
0.0
  0
LINE
  8
0
 62
     0
 10
2.55075
 20
6.94119
 30
0.0
 11
2.62516
 21
6.75651
 31
0.0
  0
LINE
  8
0
 62
     0
 10
2.62516
 20
6.75651
 30
0.0
 11
2.54524
 21
6.6077
 31
0.0
  0
LINE
  8
0
 62
     0
 10
2.54524
 20
6.6077
 30
0.0
 11
2.24207
 21
6.36104
 31
0.0
  0
LINE
  8
0
 62
     0
 10
2.24207
 20
6.36104
 30
0.0
 11
1.79834
 21
6.10059
 31
0.0
  0
LINE
  8
0
 62
     0
 10
1.79834
 20
6.10059
 30
0.0
 11
1.55581
 21
6.13639
 31
0.0
  0
LINE
  8
0
 62
     0
 10
3.53328
 20
7.21678
 30
0.0
 11
3.27697
 21
7.62332
 31
0.0
  0
LINE
  8
0
 62
     0
 10
3.27697
 20
7.62332
 30
0.0
 11
3.30454
 21
7.84518
 31
0.0
  0
LINE
  8
0
 62
     0
 10
3.30454
 20
7.84518
 30
0.0
 11
3.6642
 21
7.89753
 31
0.0
  0
LINE
  8
0
 62
     0
 10
3.6642
 20
7.89753
 30
0.0
 11
3.94395
 21
7.52408
 31
0.0
  0
LINE
  8
0
 62
     0
 10
3.94395
 20
7.52408
 30
0.0
 11
4.12447
 21
7.14788
 31
0.0
  0
LINE
  8
0
 62
     0
 10
4.12447
 20
7.14788
 30
0.0
 11
3.88056
 21
6.92464
 31
0.0
  0
LINE
  8
0
 62
     0
 10
3.88056
 20
6.92464
 30
0.0
 11
3.73309
 21
6.98253
 31
0.0
  0
LINE
  8
0
 62
     0
 10
3.73309
 20
6.98253
 30
0.0
 11
3.53328
 21
7.21678
 31
0.0
  0
LINE
  8
0
 62
     0
 10
7.1713
 20
7.44001
 30
0.0
 11
7.12996
 21
7.72806
 31
0.0
  0
LINE
  8
0
 62
     0
 10
7.12996
 20
7.72806
 30
0.0
 11
7.65087
 21
7.9816
 31
0.0
  0
LINE
  8
0
 62
     0
 10
7.65087
 20
7.9816
 30
0.0
 11
8.14282
 21
8.07805
 31
0.0
  0
LINE
  8
0
 62
     0
 10
8.14282
 20
8.07805
 30
0.0
 11
8.32337
 21
7.93612
 31
0.0
  0
LINE
  8
0
 62
     0
 10
8.32337
 20
7.93612
 30
0.0
 11
8.25997
 21
7.69084
 31
0.0
  0
LINE
  8
0
 62
     0
 10
8.25997
 20
7.69084
 30
0.0
 11
7.80383
 21
7.48827
 31
0.0
  0
LINE
  8
0
 62
     0
 10
7.80383
 20
7.48827
 30
0.0
 11
7.47448
 21
7.38904
 31
0.0
  0
LINE
  8
0
 62
     0
 10
7.47448
 20
7.38904
 30
0.0
 11
7.31188
 21
7.34631
 31
0.0
  0
LINE
  8
0
 62
     0
 10
7.31188
 20
7.34631
 30
0.0
 11
7.1713
 21
7.44001
 31
0.0
  0
LINE
  8
0
 62
     0
 10
5.20347
 20
7.84243
 30
0.0
 11
4.78042
 21
8.00365
 31
0.0
  0
LINE
  8
0
 62
     0
 10
4.78042
 20
8.00365
 30
0.0
 11
4.78317
 21
8.28615
 31
0.0
  0
LINE
  8
0
 62
     0
 10
4.78317
 20
8.28615
 30
0.0
 11
4.98161
 21
8.3771
 31
0.0
  0
LINE
  8
0
 62
     0
 10
4.98161
 20
8.3771
 30
0.0
 11
5.46118
 21
8.3137
 31
0.0
  0
LINE
  8
0
 62
     0
 10
5.46118
 20
8.3137
 30
0.0
 11
5.96417
 21
8.20896
 31
0.0
  0
LINE
  8
0
 62
     0
 10
5.96417
 20
8.20896
 30
0.0
 11
6.07025
 21
8.07254
 31
0.0
  0
LINE
  8
0
 62
     0
 10
6.07025
 20
8.07254
 30
0.0
 11
6.04957
 21
7.86585
 31
0.0
  0
LINE
  8
0
 62
     0
 10
6.04957
 20
7.86585
 30
0.0
 11
5.80842
 21
7.77353
 31
0.0
  0
LINE
  8
0
 62
     0
 10
5.80842
 20
7.77353
 30
0.0
 11
5.20347
 21
7.84243
 31
0.0
  0
ENDSEC
  0
EOF
