  0
SECTION
  2
HEADER
  9
$ACADVER
  1
AC1009
  9
$EXTMIN
 10
0.0
 20
0.0
 30
0.0
  9
$EXTMAX
 10
1000.0
 20
1000.0
 30
0.0
  9
$FILLMODE
 70
 0
  9
$SPLFRAME
 70
 1
  0
ENDSEC
  0
SECTION
  2
TABLES
  0
TABLE
  2
LAYER
 70
1
  0
LAYER
  2
0
 70
     0
 62
     7
  6
CONTINUOUS
  0
ENDTAB
  0
ENDSEC
  0
SECTION
  2
ENTITIES
  0
LINE
  8
0
 62
     0
 10
7.68809
 20
0.355533
 30
0.0
 11
7.02388
 21
1.20992
 31
0.0
  0
LINE
  8
0
 62
     0
 10
7.02388
 20
1.20992
 30
0.0
 11
6.24526
 21
2.07395
 31
0.0
  0
LINE
  8
0
 62
     0
 10
6.24526
 20
2.07395
 30
0.0
 11
5.2765
 21
3.02617
 31
0.0
  0
LINE
  8
0
 62
     0
 10
5.2765
 20
3.02617
 30
0.0
 11
4.04594
 21
4.13826
 31
0.0
  0
LINE
  8
0
 62
     0
 10
4.04594
 20
4.13826
 30
0.0
 11
2.89388
 21
5.17454
 31
0.0
  0
LINE
  8
0
 62
     0
 10
2.89388
 20
5.17454
 30
0.0
 11
2.07395
 21
5.97105
 31
0.0
  0
LINE
  8
0
 62
     0
 10
2.07395
 20
5.97105
 30
0.0
 11
1.48415
 21
6.63526
 31
0.0
  0
LINE
  8
0
 62
     0
 10
1.48415
 20
6.63526
 30
0.0
 11
1.02664
 21
7.26641
 31
0.0
  0
LINE
  8
0
 62
     0
 10
1.02664
 20
7.26641
 30
0.0
 11
0.429948
 21
8.42257
 31
0.0
  0
LINE
  8
0
 62
     0
 10
0.429948
 20
8.42257
 30
0.0
 11
0.104731
 21
9.68072
 31
0.0
  0
LINE
  8
0
 62
     0
 10
0.104731
 20
9.68072
 30
0.0
 11
0.0578778
 21
10.4662
 31
0.0
  0
LINE
  8
0
 62
     0
 10
0.0578778
 20
10.4662
 30
0.0
 11
0.0923286
 21
11.1911
 31
0.0
  0
LINE
  8
0
 62
     0
 10
0.0923286
 20
11.1911
 30
0.0
 11
0.71658
 21
12.8447
 31
0.0
  0
LINE
  8
0
 62
     0
 10
0.71658
 20
12.8447
 30
0.0
 11
1.66467
 21
13.8961
 31
0.0
  0
LINE
  8
0
 62
     0
 10
1.66467
 20
13.8961
 30
0.0
 11
2.85667
 21
14.5645
 31
0.0
  0
LINE
  8
0
 62
     0
 10
2.85667
 20
14.5645
 30
0.0
 11
4.19749
 21
14.8167
 31
0.0
  0
LINE
  8
0
 62
     0
 10
4.19749
 20
14.8167
 30
0.0
 11
5.59622
 21
14.6196
 31
0.0
  0
LINE
  8
0
 62
     0
 10
5.59622
 20
14.6196
 30
0.0
 11
6.1626
 21
14.3812
 31
0.0
  0
LINE
  8
0
 62
     0
 10
6.1626
 20
14.3812
 30
0.0
 11
6.70966
 21
14.0711
 31
0.0
  0
LINE
  8
0
 62
     0
 10
6.70966
 20
14.0711
 30
0.0
 11
7.31601
 21
13.5571
 31
0.0
  0
LINE
  8
0
 62
     0
 10
7.31601
 20
13.5571
 30
0.0
 11
7.82038
 21
12.948
 31
0.0
  0
LINE
  8
0
 62
     0
 10
7.82038
 20
12.948
 30
0.0
 11
7.99539
 21
12.7152
 31
0.0
  0
LINE
  8
0
 62
     0
 10
7.99539
 20
12.7152
 30
0.0
 11
8.17178
 21
12.948
 31
0.0
  0
LINE
  8
0
 62
     0
 10
8.17178
 20
12.948
 30
0.0
 11
8.67473
 21
13.5571
 31
0.0
  0
LINE
  8
0
 62
     0
 10
8.67473
 20
13.5571
 30
0.0
 11
9.28247
 21
14.0711
 31
0.0
  0
LINE
  8
0
 62
     0
 10
9.28247
 20
14.0711
 30
0.0
 11
9.82818
 21
14.3812
 31
0.0
  0
LINE
  8
0
 62
     0
 10
9.82818
 20
14.3812
 30
0.0
 11
10.3959
 21
14.6196
 31
0.0
  0
LINE
  8
0
 62
     0
 10
10.3959
 20
14.6196
 30
0.0
 11
11.5741
 21
14.8167
 31
0.0
  0
LINE
  8
0
 62
     0
 10
11.5741
 20
14.8167
 30
0.0
 11
12.7675
 21
14.6775
 31
0.0
  0
LINE
  8
0
 62
     0
 10
12.7675
 20
14.6775
 30
0.0
 11
13.9333
 21
14.1718
 31
0.0
  0
LINE
  8
0
 62
     0
 10
13.9333
 20
14.1718
 30
0.0
 11
14.9076
 21
13.3408
 31
0.0
  0
LINE
  8
0
 62
     0
 10
14.9076
 20
13.3408
 30
0.0
 11
15.6656
 21
12.0661
 31
0.0
  0
LINE
  8
0
 62
     0
 10
15.6656
 20
12.0661
 30
0.0
 11
15.9177
 21
10.9747
 31
0.0
  0
LINE
  8
0
 62
     0
 10
15.9177
 20
10.9747
 30
0.0
 11
15.8984
 21
9.81301
 31
0.0
  0
LINE
  8
0
 62
     0
 10
15.8984
 20
9.81301
 30
0.0
 11
15.6118
 21
8.64306
 31
0.0
  0
LINE
  8
0
 62
     0
 10
15.6118
 20
8.64306
 30
0.0
 11
15.0688
 21
7.5227
 31
0.0
  0
LINE
  8
0
 62
     0
 10
15.0688
 20
7.5227
 30
0.0
 11
14.6044
 21
6.85987
 31
0.0
  0
LINE
  8
0
 62
     0
 10
14.6044
 20
6.85987
 30
0.0
 11
13.9871
 21
6.15431
 31
0.0
  0
LINE
  8
0
 62
     0
 10
13.9871
 20
6.15431
 30
0.0
 11
13.0969
 21
5.28066
 31
0.0
  0
LINE
  8
0
 62
     0
 10
13.0969
 20
5.28066
 30
0.0
 11
11.8139
 21
4.11346
 31
0.0
  0
LINE
  8
0
 62
     0
 10
11.8139
 20
4.11346
 30
0.0
 11
10.6564
 21
3.0496
 31
0.0
  0
LINE
  8
0
 62
     0
 10
10.6564
 20
3.0496
 30
0.0
 11
9.72756
 21
2.11805
 31
0.0
  0
LINE
  8
0
 62
     0
 10
9.72756
 20
2.11805
 30
0.0
 11
8.97378
 21
1.25953
 31
0.0
  0
LINE
  8
0
 62
     0
 10
8.97378
 20
1.25953
 30
0.0
 11
8.34125
 21
0.418924
 31
0.0
  0
LINE
  8
0
 62
     0
 10
8.34125
 20
0.418924
 30
0.0
 11
8.11114
 21
0.107487
 31
0.0
  0
LINE
  8
0
 62
     0
 10
8.11114
 20
0.107487
 30
0.0
 11
7.99677
 21
0.0564995
 31
0.0
  0
LINE
  8
0
 62
     0
 10
7.99677
 20
0.0564995
 30
0.0
 11
7.88515
 21
0.100597
 31
0.0
  0
LINE
  8
0
 62
     0
 10
7.88515
 20
0.100597
 30
0.0
 11
7.68809
 21
0.355533
 31
0.0
  0
ENDSEC
  0
EOF
