  0
SECTION
  2
HEADER
  9
$ACADVER
  1
AC1009
  9
$EXTMIN
 10
0.0
 20
0.0
 30
0.0
  9
$EXTMAX
 10
1000.0
 20
1000.0
 30
0.0
  9
$FILLMODE
 70
 0
  9
$SPLFRAME
 70
 1
  0
ENDSEC
  0
SECTION
  2
TABLES
  0
TABLE
  2
LAYER
 70
1
  0
LAYER
  2
0
 70
     0
 62
     7
  6
CONTINUOUS
  0
ENDTAB
  0
ENDSEC
  0
SECTION
  2
ENTITIES
  0
LINE
  8
0
 62
     0
 10
9.50708
 20
2.34129
 30
0.0
 11
9.49053
 21
2.34129
 31
0.0
  0
LINE
  8
0
 62
     0
 10
9.49053
 20
2.34129
 30
0.0
 11
9.49053
 21
2.32613
 31
0.0
  0
LINE
  8
0
 62
     0
 10
9.49053
 20
2.32613
 30
0.0
 11
9.47265
 21
2.32613
 31
0.0
  0
LINE
  8
0
 62
     0
 10
9.47265
 20
2.32613
 30
0.0
 11
9.47265
 21
2.30684
 31
0.0
  0
LINE
  8
0
 62
     0
 10
9.47265
 20
2.30684
 30
0.0
 11
9.45473
 21
2.30684
 31
0.0
  0
LINE
  8
0
 62
     0
 10
9.45473
 20
2.30684
 30
0.0
 11
9.45473
 21
2.2903
 31
0.0
  0
LINE
  8
0
 62
     0
 10
9.45473
 20
2.2903
 30
0.0
 11
9.43818
 21
2.2903
 31
0.0
  0
LINE
  8
0
 62
     0
 10
9.43818
 20
2.2903
 30
0.0
 11
9.43818
 21
2.27239
 31
0.0
  0
LINE
  8
0
 62
     0
 10
9.43818
 20
2.27239
 30
0.0
 11
9.38583
 21
2.27239
 31
0.0
  0
LINE
  8
0
 62
     0
 10
9.38583
 20
2.27239
 30
0.0
 11
9.38583
 21
2.2903
 31
0.0
  0
LINE
  8
0
 62
     0
 10
9.38583
 20
2.2903
 30
0.0
 11
9.40375
 21
2.30684
 31
0.0
  0
LINE
  8
0
 62
     0
 10
9.40375
 20
2.30684
 30
0.0
 11
9.40375
 21
2.34129
 31
0.0
  0
LINE
  8
0
 62
     0
 10
9.40375
 20
2.34129
 30
0.0
 11
9.42026
 21
2.34129
 31
0.0
  0
LINE
  8
0
 62
     0
 10
9.42026
 20
2.34129
 30
0.0
 11
9.42026
 21
2.3592
 31
0.0
  0
LINE
  8
0
 62
     0
 10
9.42026
 20
2.3592
 30
0.0
 11
9.43818
 21
2.3592
 31
0.0
  0
LINE
  8
0
 62
     0
 10
9.43818
 20
2.3592
 30
0.0
 11
9.43818
 21
2.37712
 31
0.0
  0
LINE
  8
0
 62
     0
 10
9.43818
 20
2.37712
 30
0.0
 11
9.47265
 21
2.41294
 31
0.0
  0
LINE
  8
0
 62
     0
 10
9.47265
 20
2.41294
 30
0.0
 11
9.47265
 21
2.4281
 31
0.0
  0
LINE
  8
0
 62
     0
 10
9.47265
 20
2.4281
 30
0.0
 11
9.525
 21
2.46393
 31
0.0
  0
LINE
  8
0
 62
     0
 10
9.525
 20
2.46393
 30
0.0
 11
9.69864
 21
2.5852
 31
0.0
  0
LINE
  8
0
 62
     0
 10
9.69864
 20
2.5852
 30
0.0
 11
9.99352
 21
2.6541
 31
0.0
  0
LINE
  8
0
 62
     0
 10
9.99352
 20
2.6541
 30
0.0
 11
10.2705
 21
2.60312
 31
0.0
  0
LINE
  8
0
 62
     0
 10
10.2705
 20
2.60312
 30
0.0
 11
10.531
 21
2.44602
 31
0.0
  0
LINE
  8
0
 62
     0
 10
10.531
 20
2.44602
 30
0.0
 11
10.7749
 21
2.18557
 31
0.0
  0
LINE
  8
0
 62
     0
 10
10.7749
 20
2.18557
 30
0.0
 11
10.9485
 21
1.85622
 31
0.0
  0
LINE
  8
0
 62
     0
 10
10.9485
 20
1.85622
 30
0.0
 11
10.9995
 21
1.4745
 31
0.0
  0
LINE
  8
0
 62
     0
 10
10.9995
 20
1.4745
 30
0.0
 11
10.9485
 21
1.09141
 31
0.0
  0
LINE
  8
0
 62
     0
 10
10.9485
 20
1.09141
 30
0.0
 11
10.757
 21
0.70969
 31
0.0
  0
LINE
  8
0
 62
     0
 10
10.757
 20
0.70969
 30
0.0
 11
10.5144
 21
0.39963
 31
0.0
  0
LINE
  8
0
 62
     0
 10
10.5144
 20
0.39963
 30
0.0
 11
10.1492
 21
0.15434
 31
0.0
  0
LINE
  8
0
 62
     0
 10
10.1492
 20
0.15434
 30
0.0
 11
9.62836
 21
-0.0537436
 31
0.0
  0
LINE
  8
0
 62
     0
 10
9.62836
 20
-0.0537436
 30
0.0
 11
8.9862
 21
-0.192925
 31
0.0
  0
LINE
  8
0
 62
     0
 10
8.9862
 20
-0.192925
 30
0.0
 11
8.22276
 21
-0.192925
 31
0.0
  0
LINE
  8
0
 62
     0
 10
8.22276
 20
-0.192925
 30
0.0
 11
7.28567
 21
-0.0868165
 31
0.0
  0
LINE
  8
0
 62
     0
 10
7.28567
 20
-0.0868165
 30
0.0
 11
6.38309
 21
0.15434
 31
0.0
  0
LINE
  8
0
 62
     0
 10
6.38309
 20
0.15434
 30
0.0
 11
5.65408
 21
0.467155
 31
0.0
  0
LINE
  8
0
 62
     0
 10
5.65408
 20
0.467155
 30
0.0
 11
5.2021
 21
0.781346
 31
0.0
  0
LINE
  8
0
 62
     0
 10
5.2021
 20
0.781346
 30
0.0
 11
4.99403
 21
0.935687
 31
0.0
  0
LINE
  8
0
 62
     0
 10
4.99403
 20
0.935687
 30
0.0
 11
4.89066
 21
0.901238
 31
0.0
  0
LINE
  8
0
 62
     0
 10
4.89066
 20
0.901238
 30
0.0
 11
4.61229
 21
0.675238
 31
0.0
  0
LINE
  8
0
 62
     0
 10
4.61229
 20
0.675238
 30
0.0
 11
4.07487
 21
0.362423
 31
0.0
  0
LINE
  8
0
 62
     0
 10
4.07487
 20
0.362423
 30
0.0
 11
3.32796
 21
0.0854385
 31
0.0
  0
LINE
  8
0
 62
     0
 10
3.32796
 20
0.0854385
 30
0.0
 11
2.39089
 21
-0.14056
 31
0.0
  0
LINE
  8
0
 62
     0
 10
2.39089
 20
-0.14056
 30
0.0
 11
1.52273
 21
-0.243913
 31
0.0
  0
LINE
  8
0
 62
     0
 10
1.52273
 20
-0.243913
 30
0.0
 11
1.03628
 21
-0.227376
 31
0.0
  0
LINE
  8
0
 62
     0
 10
1.03628
 20
-0.227376
 30
0.0
 11
0.551215
 21
-0.14056
 31
0.0
  0
LINE
  8
0
 62
     0
 10
0.551215
 20
-0.14056
 30
0.0
 11
-0.039963
 21
0.0509873
 31
0.0
  0
LINE
  8
0
 62
     0
 10
-0.039963
 20
0.0509873
 30
0.0
 11
-0.421679
 21
0.259071
 31
0.0
  0
LINE
  8
0
 62
     0
 10
-0.421679
 20
0.259071
 30
0.0
 11
-0.698666
 21
0.55397
 31
0.0
  0
LINE
  8
0
 62
     0
 10
-0.698666
 20
0.55397
 30
0.0
 11
-0.906748
 21
0.935687
 31
0.0
  0
LINE
  8
0
 62
     0
 10
-0.906748
 20
0.935687
 30
0.0
 11
-0.993567
 21
1.36977
 31
0.0
  0
LINE
  8
0
 62
     0
 10
-0.993567
 20
1.36977
 30
0.0
 11
-0.977029
 21
1.71704
 31
0.0
  0
LINE
  8
0
 62
     0
 10
-0.977029
 20
1.71704
 30
0.0
 11
-0.8723
 21
2.01194
 31
0.0
  0
LINE
  8
0
 62
     0
 10
-0.8723
 20
2.01194
 30
0.0
 11
-0.71658
 21
2.23793
 31
0.0
  0
LINE
  8
0
 62
     0
 10
-0.71658
 20
2.23793
 30
0.0
 11
-0.647679
 21
2.32613
 31
0.0
  0
LINE
  8
0
 62
     0
 10
-0.647679
 20
2.32613
 30
0.0
 11
-0.611851
 21
2.3592
 31
0.0
  0
LINE
  8
0
 62
     0
 10
-0.611851
 20
2.3592
 30
0.0
 11
-0.421679
 21
2.46393
 31
0.0
  0
LINE
  8
0
 62
     0
 10
-0.421679
 20
2.46393
 30
0.0
 11
-0.0744142
 21
2.54937
 31
0.0
  0
LINE
  8
0
 62
     0
 10
-0.0744142
 20
2.54937
 30
0.0
 11
0.272852
 21
2.49838
 31
0.0
  0
LINE
  8
0
 62
     0
 10
0.272852
 20
2.49838
 30
0.0
 11
0.412034
 21
2.44602
 31
0.0
  0
LINE
  8
0
 62
     0
 10
0.412034
 20
2.44602
 30
0.0
 11
0.412034
 21
2.4281
 31
0.0
  0
LINE
  8
0
 62
     0
 10
0.412034
 20
2.4281
 30
0.0
 11
0.428569
 21
2.4281
 31
0.0
  0
LINE
  8
0
 62
     0
 10
0.428569
 20
2.4281
 30
0.0
 11
0.428569
 21
2.41294
 31
0.0
  0
LINE
  8
0
 62
     0
 10
0.428569
 20
2.41294
 30
0.0
 11
0.446486
 21
2.41294
 31
0.0
  0
LINE
  8
0
 62
     0
 10
0.446486
 20
2.41294
 30
0.0
 11
0.480935
 21
2.37712
 31
0.0
  0
LINE
  8
0
 62
     0
 10
0.480935
 20
2.37712
 30
0.0
 11
0.498849
 21
2.37712
 31
0.0
  0
LINE
  8
0
 62
     0
 10
0.498849
 20
2.37712
 30
0.0
 11
0.498849
 21
2.3592
 31
0.0
  0
LINE
  8
0
 62
     0
 10
0.498849
 20
2.3592
 30
0.0
 11
0.515387
 21
2.3592
 31
0.0
  0
LINE
  8
0
 62
     0
 10
0.515387
 20
2.3592
 30
0.0
 11
0.515387
 21
2.32613
 31
0.0
  0
LINE
  8
0
 62
     0
 10
0.515387
 20
2.32613
 30
0.0
 11
0.480935
 21
2.32613
 31
0.0
  0
LINE
  8
0
 62
     0
 10
0.480935
 20
2.32613
 30
0.0
 11
0.428569
 21
2.34129
 31
0.0
  0
LINE
  8
0
 62
     0
 10
0.428569
 20
2.34129
 30
0.0
 11
0.39412
 21
2.34129
 31
0.0
  0
LINE
  8
0
 62
     0
 10
0.39412
 20
2.34129
 30
0.0
 11
0.39412
 21
2.3592
 31
0.0
  0
LINE
  8
0
 62
     0
 10
0.39412
 20
2.3592
 30
0.0
 11
0.377582
 21
2.3592
 31
0.0
  0
LINE
  8
0
 62
     0
 10
0.377582
 20
2.3592
 30
0.0
 11
0.377582
 21
2.37712
 31
0.0
  0
LINE
  8
0
 62
     0
 10
0.377582
 20
2.37712
 30
0.0
 11
0.307303
 21
2.37712
 31
0.0
  0
LINE
  8
0
 62
     0
 10
0.307303
 20
2.37712
 30
0.0
 11
0.117133
 21
2.39365
 31
0.0
  0
LINE
  8
0
 62
     0
 10
0.117133
 20
2.39365
 30
0.0
 11
-0.12678
 21
2.30684
 31
0.0
  0
LINE
  8
0
 62
     0
 10
-0.12678
 20
2.30684
 30
0.0
 11
-0.282498
 21
2.09875
 31
0.0
  0
LINE
  8
0
 62
     0
 10
-0.282498
 20
2.09875
 30
0.0
 11
-0.3514
 21
1.75286
 31
0.0
  0
LINE
  8
0
 62
     0
 10
-0.3514
 20
1.75286
 30
0.0
 11
-0.282498
 21
1.42214
 31
0.0
  0
LINE
  8
0
 62
     0
 10
-0.282498
 20
1.42214
 30
0.0
 11
-0.143316
 21
1.28295
 31
0.0
  0
LINE
  8
0
 62
     0
 10
-0.143316
 20
1.28295
 30
0.0
 11
0.0992188
 21
1.23059
 31
0.0
  0
LINE
  8
0
 62
     0
 10
0.0992188
 20
1.23059
 30
0.0
 11
0.515387
 21
1.33532
 31
0.0
  0
LINE
  8
0
 62
     0
 10
0.515387
 20
1.33532
 30
0.0
 11
1.17547
 21
1.66467
 31
0.0
  0
LINE
  8
0
 62
     0
 10
1.17547
 20
1.66467
 30
0.0
 11
1.99126
 21
2.13458
 31
0.0
  0
LINE
  8
0
 62
     0
 10
1.99126
 20
2.13458
 30
0.0
 11
2.70233
 21
2.5163
 31
0.0
  0
LINE
  8
0
 62
     0
 10
2.70233
 20
2.5163
 30
0.0
 11
3.22323
 21
2.68855
 31
0.0
  0
LINE
  8
0
 62
     0
 10
3.22323
 20
2.68855
 30
0.0
 11
3.72759
 21
2.74092
 31
0.0
  0
LINE
  8
0
 62
     0
 10
3.72759
 20
2.74092
 30
0.0
 11
4.26501
 21
2.6541
 31
0.0
  0
LINE
  8
0
 62
     0
 10
4.26501
 20
2.6541
 30
0.0
 11
4.71703
 21
2.4281
 31
0.0
  0
LINE
  8
0
 62
     0
 10
4.71703
 20
2.4281
 30
0.0
 11
4.94164
 21
2.2903
 31
0.0
  0
LINE
  8
0
 62
     0
 10
4.94164
 20
2.2903
 30
0.0
 11
5.15112
 21
2.41294
 31
0.0
  0
LINE
  8
0
 62
     0
 10
5.15112
 20
2.41294
 30
0.0
 11
5.60172
 21
2.61965
 31
0.0
  0
LINE
  8
0
 62
     0
 10
5.60172
 20
2.61965
 30
0.0
 11
5.98343
 21
2.723
 31
0.0
  0
LINE
  8
0
 62
     0
 10
5.98343
 20
2.723
 30
0.0
 11
6.41752
 21
2.74092
 31
0.0
  0
LINE
  8
0
 62
     0
 10
6.41752
 20
2.74092
 30
0.0
 11
6.97286
 21
2.67202
 31
0.0
  0
LINE
  8
0
 62
     0
 10
6.97286
 20
2.67202
 30
0.0
 11
7.52821
 21
2.44602
 31
0.0
  0
LINE
  8
0
 62
     0
 10
7.52821
 20
2.44602
 30
0.0
 11
8.48321
 21
1.85622
 31
0.0
  0
LINE
  8
0
 62
     0
 10
8.48321
 20
1.85622
 30
0.0
 11
9.00688
 21
1.52687
 31
0.0
  0
LINE
  8
0
 62
     0
 10
9.00688
 20
1.52687
 30
0.0
 11
9.33344
 21
1.36977
 31
0.0
  0
LINE
  8
0
 62
     0
 10
9.33344
 20
1.36977
 30
0.0
 11
9.73307
 21
1.26642
 31
0.0
  0
LINE
  8
0
 62
     0
 10
9.73307
 20
1.26642
 30
0.0
 11
10.0624
 21
1.33532
 31
0.0
  0
LINE
  8
0
 62
     0
 10
10.0624
 20
1.33532
 30
0.0
 11
10.2705
 21
1.4745
 31
0.0
  0
LINE
  8
0
 62
     0
 10
10.2705
 20
1.4745
 30
0.0
 11
10.3408
 21
1.7694
 31
0.0
  0
LINE
  8
0
 62
     0
 10
10.3408
 20
1.7694
 30
0.0
 11
10.2705
 21
2.09875
 31
0.0
  0
LINE
  8
0
 62
     0
 10
10.2705
 20
2.09875
 30
0.0
 11
10.1148
 21
2.30684
 31
0.0
  0
LINE
  8
0
 62
     0
 10
10.1148
 20
2.30684
 30
0.0
 11
9.95909
 21
2.41294
 31
0.0
  0
LINE
  8
0
 62
     0
 10
9.95909
 20
2.41294
 30
0.0
 11
9.74961
 21
2.44602
 31
0.0
  0
LINE
  8
0
 62
     0
 10
9.74961
 20
2.44602
 30
0.0
 11
9.57598
 21
2.39365
 31
0.0
  0
LINE
  8
0
 62
     0
 10
9.57598
 20
2.39365
 30
0.0
 11
9.50708
 21
2.34129
 31
0.0
  0
ENDSEC
  0
EOF
