  0
SECTION
  2
HEADER
  9
$ACADVER
  1
AC1009
  9
$EXTMIN
 10
0.0
 20
0.0
 30
0.0
  9
$EXTMAX
 10
1000.0
 20
1000.0
 30
0.0
  9
$FILLMODE
 70
 0
  9
$SPLFRAME
 70
 1
  0
ENDSEC
  0
SECTION
  2
TABLES
  0
TABLE
  2
LAYER
 70
1
  0
LAYER
  2
0
 70
     0
 62
     7
  6
CONTINUOUS
  0
ENDTAB
  0
ENDSEC
  0
SECTION
  2
ENTITIES
  0
LINE
  8
0
 62
     2
 10
2.72989
 20
0.374826
 30
0.0
 11
2.69682
 21
0.396875
 31
0.0
  0
LINE
  8
0
 62
     2
 10
2.69682
 20
0.396875
 30
0.0
 11
2.35369
 21
0.708311
 31
0.0
  0
LINE
  8
0
 62
     2
 10
2.35369
 20
0.708311
 30
0.0
 11
2.33164
 21
0.737249
 31
0.0
  0
LINE
  8
0
 62
     2
 10
2.33164
 20
0.737249
 30
0.0
 11
2.26412
 21
0.826823
 31
0.0
  0
LINE
  8
0
 62
     2
 10
2.26412
 20
0.826823
 30
0.0
 11
1.8576
 21
1.68534
 31
0.0
  0
LINE
  8
0
 62
     2
 10
1.8576
 20
1.68534
 30
0.0
 11
1.43729
 21
2.8925
 31
0.0
  0
LINE
  8
0
 62
     2
 10
1.43729
 20
2.8925
 30
0.0
 11
1.36426
 21
3.15571
 31
0.0
  0
LINE
  8
0
 62
     2
 10
1.36426
 20
3.15571
 30
0.0
 11
1.30914
 21
3.35001
 31
0.0
  0
LINE
  8
0
 62
     2
 10
1.30914
 20
3.35001
 30
0.0
 11
1.15342
 21
3.93153
 31
0.0
  0
LINE
  8
0
 62
     2
 10
1.15342
 20
3.93153
 30
0.0
 11
1.02113
 21
4.51997
 31
0.0
  0
LINE
  8
0
 62
     2
 10
1.02113
 20
4.51997
 30
0.0
 11
0.94947
 21
4.99816
 31
0.0
  0
LINE
  8
0
 62
     2
 10
0.94947
 20
4.99816
 30
0.0
 11
0.926042
 21
5.33439
 31
0.0
  0
LINE
  8
0
 62
     2
 10
0.926042
 20
5.33439
 30
0.0
 11
0.924662
 21
5.44601
 31
0.0
  0
LINE
  8
0
 62
     2
 10
0.924662
 20
5.44601
 30
0.0
 11
0.921907
 21
5.54662
 31
0.0
  0
LINE
  8
0
 62
     2
 10
0.921907
 20
5.54662
 30
0.0
 11
0.952225
 21
5.89523
 31
0.0
  0
LINE
  8
0
 62
     2
 10
0.952225
 20
5.89523
 30
0.0
 11
1.07625
 21
6.21771
 31
0.0
  0
LINE
  8
0
 62
     2
 10
1.07625
 20
6.21771
 30
0.0
 11
1.12172
 21
6.30453
 31
0.0
  0
LINE
  8
0
 62
     2
 10
1.12172
 20
6.30453
 30
0.0
 11
1.15066
 21
6.36104
 31
0.0
  0
LINE
  8
0
 62
     2
 10
1.15066
 20
6.36104
 30
0.0
 11
1.2678
 21
6.63801
 31
0.0
  0
LINE
  8
0
 62
     2
 10
1.2678
 20
6.63801
 30
0.0
 11
1.32843
 21
6.8144
 31
0.0
  0
LINE
  8
0
 62
     2
 10
1.32843
 20
6.8144
 30
0.0
 11
1.32843
 21
6.87229
 31
0.0
  0
LINE
  8
0
 62
     2
 10
1.32843
 20
6.87229
 30
0.0
 11
1.32843
 21
7.02663
 31
0.0
  0
LINE
  8
0
 62
     2
 10
1.32843
 20
7.02663
 30
0.0
 11
1.00873
 21
7.41384
 31
0.0
  0
LINE
  8
0
 62
     2
 10
1.00873
 20
7.41384
 30
0.0
 11
0.945335
 21
7.4869
 31
0.0
  0
LINE
  8
0
 62
     2
 10
0.945335
 20
7.4869
 30
0.0
 11
0.790995
 21
7.66879
 31
0.0
  0
LINE
  8
0
 62
     2
 10
0.790995
 20
7.66879
 30
0.0
 11
0.39274
 21
8.26685
 31
0.0
  0
LINE
  8
0
 62
     2
 10
0.39274
 20
8.26685
 30
0.0
 11
0.179145
 21
9.00546
 31
0.0
  0
LINE
  8
0
 62
     2
 10
0.179145
 20
9.00546
 30
0.0
 11
0.292144
 21
9.85986
 31
0.0
  0
LINE
  8
0
 62
     2
 10
0.292144
 20
9.85986
 30
0.0
 11
0.600826
 21
10.7087
 31
0.0
  0
LINE
  8
0
 62
     2
 10
0.600826
 20
10.7087
 30
0.0
 11
0.72347
 21
10.9816
 31
0.0
  0
LINE
  8
0
 62
     2
 10
0.72347
 20
10.9816
 30
0.0
 11
0.966004
 21
11.5273
 31
0.0
  0
LINE
  8
0
 62
     2
 10
0.966004
 20
11.5273
 30
0.0
 11
1.01148
 21
12.8433
 31
0.0
  0
LINE
  8
0
 62
     2
 10
1.01148
 20
12.8433
 30
0.0
 11
1.01975
 21
13.0955
 31
0.0
  0
LINE
  8
0
 62
     2
 10
1.01975
 20
13.0955
 30
0.0
 11
1.05971
 21
13.8493
 31
0.0
  0
LINE
  8
0
 62
     2
 10
1.05971
 20
13.8493
 30
0.0
 11
1.16169
 21
14.457
 31
0.0
  0
LINE
  8
0
 62
     2
 10
1.16169
 20
14.457
 30
0.0
 11
1.38493
 21
14.8814
 31
0.0
  0
LINE
  8
0
 62
     2
 10
1.38493
 20
14.8814
 30
0.0
 11
1.68947
 21
15.226
 31
0.0
  0
LINE
  8
0
 62
     2
 10
1.68947
 20
15.226
 30
0.0
 11
1.79696
 21
15.3348
 31
0.0
  0
LINE
  8
0
 62
     2
 10
1.79696
 20
15.3348
 30
0.0
 11
2.33577
 21
15.8874
 31
0.0
  0
LINE
  8
0
 62
     2
 10
2.33577
 20
15.8874
 30
0.0
 11
2.37436
 21
16.6577
 31
0.0
  0
LINE
  8
0
 62
     2
 10
2.37436
 20
16.6577
 30
0.0
 11
2.38401
 21
16.8892
 31
0.0
  0
LINE
  8
0
 62
     2
 10
2.38401
 20
16.8892
 30
0.0
 11
2.51079
 21
17.7794
 31
0.0
  0
LINE
  8
0
 62
     2
 10
2.51079
 20
17.7794
 30
0.0
 11
2.82498
 21
18.6476
 31
0.0
  0
LINE
  8
0
 62
     2
 10
2.82498
 20
18.6476
 30
0.0
 11
2.92971
 21
18.8681
 31
0.0
  0
LINE
  8
0
 62
     2
 10
2.92971
 20
18.8681
 30
0.0
 11
2.99861
 21
19.0169
 31
0.0
  0
LINE
  8
0
 62
     2
 10
2.99861
 20
19.0169
 30
0.0
 11
3.19291
 21
19.4689
 31
0.0
  0
LINE
  8
0
 62
     2
 10
3.19291
 20
19.4689
 30
0.0
 11
3.3321
 21
19.9485
 31
0.0
  0
LINE
  8
0
 62
     2
 10
3.3321
 20
19.9485
 30
0.0
 11
3.37619
 21
20.4956
 31
0.0
  0
LINE
  8
0
 62
     2
 10
3.37619
 20
20.4956
 30
0.0
 11
3.36655
 21
21.095
 31
0.0
  0
LINE
  8
0
 62
     2
 10
3.36655
 20
21.095
 30
0.0
 11
3.35966
 21
21.2935
 31
0.0
  0
LINE
  8
0
 62
     2
 10
3.35966
 20
21.2935
 30
0.0
 11
3.35414
 21
21.4492
 31
0.0
  0
LINE
  8
0
 62
     2
 10
3.35414
 20
21.4492
 30
0.0
 11
3.34863
 21
22.2112
 31
0.0
  0
LINE
  8
0
 62
     2
 10
3.34863
 20
22.2112
 30
0.0
 11
3.37068
 21
22.7803
 31
0.0
  0
LINE
  8
0
 62
     2
 10
3.37068
 20
22.7803
 30
0.0
 11
3.38033
 21
22.8382
 31
0.0
  0
LINE
  8
0
 62
     2
 10
3.38033
 20
22.8382
 30
0.0
 11
3.38722
 21
22.8961
 31
0.0
  0
LINE
  8
0
 62
     2
 10
3.38722
 20
22.8961
 30
0.0
 11
3.44234
 21
23.5231
 31
0.0
  0
LINE
  8
0
 62
     2
 10
3.44234
 20
23.5231
 30
0.0
 11
3.50022
 21
24.3954
 31
0.0
  0
LINE
  8
0
 62
     2
 10
3.50022
 20
24.3954
 30
0.0
 11
3.51124
 21
24.5759
 31
0.0
  0
LINE
  8
0
 62
     2
 10
3.51124
 20
24.5759
 30
0.0
 11
3.52089
 21
24.7565
 31
0.0
  0
LINE
  8
0
 62
     2
 10
3.52089
 20
24.7565
 30
0.0
 11
3.5898
 21
25.637
 31
0.0
  0
LINE
  8
0
 62
     2
 10
3.5898
 20
25.637
 30
0.0
 11
3.66557
 21
26.2778
 31
0.0
  0
LINE
  8
0
 62
     2
 10
3.66557
 20
26.2778
 30
0.0
 11
3.67937
 21
26.3385
 31
0.0
  0
LINE
  8
0
 62
     2
 10
3.67937
 20
26.3385
 30
0.0
 11
3.69729
 21
26.4197
 31
0.0
  0
LINE
  8
0
 62
     2
 10
3.69729
 20
26.4197
 30
0.0
 11
3.76068
 21
27.0412
 31
0.0
  0
LINE
  8
0
 62
     2
 10
3.76068
 20
27.0412
 30
0.0
 11
3.79236
 21
28.0527
 31
0.0
  0
LINE
  8
0
 62
     2
 10
3.79236
 20
28.0527
 30
0.0
 11
3.79511
 21
28.327
 31
0.0
  0
LINE
  8
0
 62
     2
 10
3.79511
 20
28.327
 30
0.0
 11
3.79786
 21
28.5392
 31
0.0
  0
LINE
  8
0
 62
     2
 10
3.79786
 20
28.5392
 30
0.0
 11
3.82266
 21
29.4694
 31
0.0
  0
LINE
  8
0
 62
     2
 10
3.82266
 20
29.4694
 30
0.0
 11
3.85576
 21
30.0288
 31
0.0
  0
LINE
  8
0
 62
     2
 10
3.85576
 20
30.0288
 30
0.0
 11
3.86263
 21
30.055
 31
0.0
  0
LINE
  8
0
 62
     2
 10
3.86263
 20
30.055
 30
0.0
 11
3.86955
 21
30.0826
 31
0.0
  0
LINE
  8
0
 62
     2
 10
3.86955
 20
30.0826
 30
0.0
 11
4.06799
 21
30.5649
 31
0.0
  0
LINE
  8
0
 62
     2
 10
4.06799
 20
30.5649
 30
0.0
 11
4.09416
 21
30.6145
 31
0.0
  0
LINE
  8
0
 62
     2
 10
4.09416
 20
30.6145
 30
0.0
 11
4.11896
 21
30.6655
 31
0.0
  0
LINE
  8
0
 62
     2
 10
4.11896
 20
30.6655
 30
0.0
 11
4.28156
 21
31.0155
 31
0.0
  0
LINE
  8
0
 62
     2
 10
4.28156
 20
31.0155
 30
0.0
 11
4.44419
 21
31.4
 31
0.0
  0
LINE
  8
0
 62
     2
 10
4.44419
 20
31.4
 30
0.0
 11
4.47174
 21
31.4661
 31
0.0
  0
LINE
  8
0
 62
     2
 10
4.47174
 20
31.4661
 30
0.0
 11
4.66189
 21
31.9526
 31
0.0
  0
LINE
  8
0
 62
     2
 10
4.66189
 20
31.9526
 30
0.0
 11
4.66189
 21
33.5676
 31
0.0
  0
LINE
  8
0
 62
     2
 10
4.66189
 20
33.5676
 30
0.0
 11
4.66189
 21
33.9287
 31
0.0
  0
LINE
  8
0
 62
     2
 10
4.66189
 20
33.9287
 30
0.0
 11
4.6881
 21
35.0077
 31
0.0
  0
LINE
  8
0
 62
     2
 10
4.6881
 20
35.0077
 30
0.0
 11
4.7432
 21
36.037
 31
0.0
  0
LINE
  8
0
 62
     2
 10
4.7432
 20
36.037
 30
0.0
 11
4.757
 21
36.1791
 31
0.0
  0
LINE
  8
0
 62
     2
 10
4.757
 20
36.1791
 30
0.0
 11
4.77767
 21
36.4148
 31
0.0
  0
LINE
  8
0
 62
     2
 10
4.77767
 20
36.4148
 30
0.0
 11
4.83277
 21
37.1203
 31
0.0
  0
LINE
  8
0
 62
     2
 10
4.83277
 20
37.1203
 30
0.0
 11
4.85895
 21
37.87
 31
0.0
  0
LINE
  8
0
 62
     2
 10
4.85895
 20
37.87
 30
0.0
 11
4.83415
 21
38.6031
 31
0.0
  0
LINE
  8
0
 62
     2
 10
4.83415
 20
38.6031
 30
0.0
 11
4.78042
 21
39.2698
 31
0.0
  0
LINE
  8
0
 62
     2
 10
4.78042
 20
39.2698
 30
0.0
 11
4.75975
 21
39.4903
 31
0.0
  0
LINE
  8
0
 62
     2
 10
4.75975
 20
39.4903
 30
0.0
 11
4.74183
 21
39.6614
 31
0.0
  0
LINE
  8
0
 62
     2
 10
4.74183
 20
39.6614
 30
0.0
 11
4.69498
 21
40.1754
 31
0.0
  0
LINE
  8
0
 62
     2
 10
4.69498
 20
40.1754
 30
0.0
 11
4.67155
 21
40.6012
 31
0.0
  0
LINE
  8
0
 62
     2
 10
4.67155
 20
40.6012
 30
0.0
 11
4.6881
 21
40.8947
 31
0.0
  0
LINE
  8
0
 62
     2
 10
4.6881
 20
40.8947
 30
0.0
 11
4.72666
 21
41.1124
 31
0.0
  0
LINE
  8
0
 62
     2
 10
4.72666
 20
41.1124
 30
0.0
 11
4.74183
 21
41.1826
 31
0.0
  0
LINE
  8
0
 62
     2
 10
4.74183
 20
41.1826
 30
0.0
 11
4.76663
 21
41.2983
 31
0.0
  0
LINE
  8
0
 62
     2
 10
4.76663
 20
41.2983
 30
0.0
 11
4.80935
 21
41.6856
 31
0.0
  0
LINE
  8
0
 62
     2
 10
4.80935
 20
41.6856
 30
0.0
 11
4.71978
 21
42.194
 31
0.0
  0
LINE
  8
0
 62
     2
 10
4.71978
 20
42.194
 30
0.0
 11
4.68256
 21
42.3609
 31
0.0
  0
LINE
  8
0
 62
     2
 10
4.68256
 20
42.3609
 30
0.0
 11
4.64813
 21
42.5125
 31
0.0
  0
LINE
  8
0
 62
     2
 10
4.64813
 20
42.5125
 30
0.0
 11
4.55581
 21
43.0735
 31
0.0
  0
LINE
  8
0
 62
     2
 10
4.55581
 20
43.0735
 30
0.0
 11
4.54477
 21
43.6383
 31
0.0
  0
LINE
  8
0
 62
     2
 10
4.54477
 20
43.6383
 30
0.0
 11
4.55164
 21
43.79
 31
0.0
  0
LINE
  8
0
 62
     2
 10
4.55164
 20
43.79
 30
0.0
 11
4.55856
 21
43.9554
 31
0.0
  0
LINE
  8
0
 62
     2
 10
4.55856
 20
43.9554
 30
0.0
 11
4.61504
 21
44.45
 31
0.0
  0
LINE
  8
0
 62
     2
 10
4.61504
 20
44.45
 30
0.0
 11
4.81485
 21
44.8165
 31
0.0
  0
LINE
  8
0
 62
     2
 10
4.81485
 20
44.8165
 30
0.0
 11
5.27099
 21
44.9873
 31
0.0
  0
LINE
  8
0
 62
     2
 10
5.27099
 20
44.9873
 30
0.0
 11
5.89523
 21
45.0465
 31
0.0
  0
LINE
  8
0
 62
     2
 10
5.89523
 20
45.0465
 30
0.0
 11
6.10471
 21
45.0564
 31
0.0
  0
LINE
  8
0
 62
     2
 10
6.10471
 20
45.0564
 30
0.0
 11
6.22875
 21
45.0617
 31
0.0
  0
LINE
  8
0
 62
     2
 10
6.22875
 20
45.0617
 30
0.0
 11
6.93568
 21
45.1157
 31
0.0
  0
LINE
  8
0
 62
     2
 10
6.93568
 20
45.1157
 30
0.0
 11
7.58335
 21
45.1859
 31
0.0
  0
LINE
  8
0
 62
     2
 10
7.58335
 20
45.1859
 30
0.0
 11
7.67704
 21
45.1982
 31
0.0
  0
LINE
  8
0
 62
     2
 10
7.67704
 20
45.1982
 30
0.0
 11
7.9072
 21
45.2328
 31
0.0
  0
LINE
  8
0
 62
     2
 10
7.9072
 20
45.2328
 30
0.0
 11
8.88834
 21
45.3249
 31
0.0
  0
LINE
  8
0
 62
     2
 10
8.88834
 20
45.3249
 30
0.0
 11
9.46023
 21
45.3125
 31
0.0
  0
LINE
  8
0
 62
     2
 10
9.46023
 20
45.3125
 30
0.0
 11
9.48641
 21
45.2935
 31
0.0
  0
LINE
  8
0
 62
     2
 10
9.48641
 20
45.2935
 30
0.0
 11
9.59252
 21
45.2078
 31
0.0
  0
LINE
  8
0
 62
     2
 10
9.59252
 20
45.2078
 30
0.0
 11
9.98114
 21
44.8412
 31
0.0
  0
LINE
  8
0
 62
     2
 10
9.98114
 20
44.8412
 30
0.0
 11
10.2181
 21
44.5121
 31
0.0
  0
LINE
  8
0
 62
     2
 10
10.2181
 20
44.5121
 30
0.0
 11
10.2499
 21
44.4444
 31
0.0
  0
LINE
  8
0
 62
     2
 10
10.2499
 20
44.4444
 30
0.0
 11
10.2691
 21
44.4017
 31
0.0
  0
LINE
  8
0
 62
     2
 10
10.2691
 20
44.4017
 30
0.0
 11
10.389
 21
44.1318
 31
0.0
  0
LINE
  8
0
 62
     2
 10
10.389
 20
44.1318
 30
0.0
 11
10.429
 21
44.1318
 31
0.0
  0
LINE
  8
0
 62
     2
 10
10.429
 20
44.1318
 30
0.0
 11
10.5337
 21
44.1318
 31
0.0
  0
LINE
  8
0
 62
     2
 10
10.5337
 20
44.1318
 30
0.0
 11
10.7942
 21
44.2143
 31
0.0
  0
LINE
  8
0
 62
     2
 10
10.7942
 20
44.2143
 30
0.0
 11
10.8479
 21
44.2267
 31
0.0
  0
LINE
  8
0
 62
     2
 10
10.8479
 20
44.2267
 30
0.0
 11
10.9016
 21
44.2404
 31
0.0
  0
LINE
  8
0
 62
     2
 10
10.9016
 20
44.2404
 30
0.0
 11
11.3675
 21
44.3177
 31
0.0
  0
LINE
  8
0
 62
     2
 10
11.3675
 20
44.3177
 30
0.0
 11
11.5232
 21
44.3177
 31
0.0
  0
LINE
  8
0
 62
     2
 10
11.5232
 20
44.3177
 30
0.0
 11
11.6844
 21
44.3177
 31
0.0
  0
LINE
  8
0
 62
     2
 10
11.6844
 20
44.3177
 30
0.0
 11
12.1722
 21
44.2186
 31
0.0
  0
LINE
  8
0
 62
     2
 10
12.1722
 20
44.2186
 30
0.0
 11
12.8006
 21
44.0436
 31
0.0
  0
LINE
  8
0
 62
     2
 10
12.8006
 20
44.0436
 30
0.0
 11
12.8957
 21
44.0048
 31
0.0
  0
LINE
  8
0
 62
     2
 10
12.8957
 20
44.0048
 30
0.0
 11
12.966
 21
43.9773
 31
0.0
  0
LINE
  8
0
 62
     2
 10
12.966
 20
43.9773
 30
0.0
 11
13.5144
 21
43.6192
 31
0.0
  0
LINE
  8
0
 62
     2
 10
13.5144
 20
43.6192
 30
0.0
 11
14.1194
 21
43.119
 31
0.0
  0
LINE
  8
0
 62
     2
 10
14.1194
 20
43.119
 30
0.0
 11
14.2186
 21
43.0195
 31
0.0
  0
LINE
  8
0
 62
     2
 10
14.2186
 20
43.0195
 30
0.0
 11
14.3247
 21
42.9137
 31
0.0
  0
LINE
  8
0
 62
     2
 10
14.3247
 20
42.9137
 30
0.0
 11
14.61
 21
42.5595
 31
0.0
  0
LINE
  8
0
 62
     2
 10
14.61
 20
42.5595
 30
0.0
 11
14.8883
 21
42.0095
 31
0.0
  0
LINE
  8
0
 62
     2
 10
14.8883
 20
42.0095
 30
0.0
 11
15.1102
 21
41.2171
 31
0.0
  0
LINE
  8
0
 62
     2
 10
15.1102
 20
41.2171
 30
0.0
 11
15.2838
 21
40.3243
 31
0.0
  0
LINE
  8
0
 62
     2
 10
15.2838
 20
40.3243
 30
0.0
 11
15.3348
 21
40.0251
 31
0.0
  0
LINE
  8
0
 62
     2
 10
15.3348
 20
40.0251
 30
0.0
 11
15.3651
 21
39.8431
 31
0.0
  0
LINE
  8
0
 62
     2
 10
15.3651
 20
39.8431
 30
0.0
 11
15.4643
 21
39.2977
 31
0.0
  0
LINE
  8
0
 62
     2
 10
15.4643
 20
39.2977
 30
0.0
 11
15.5677
 21
38.8606
 31
0.0
  0
LINE
  8
0
 62
     2
 10
15.5677
 20
38.8606
 30
0.0
 11
15.6766
 21
38.6059
 31
0.0
  0
LINE
  8
0
 62
     2
 10
15.6766
 20
38.6059
 30
0.0
 11
15.7854
 21
38.4651
 31
0.0
  0
LINE
  8
0
 62
     2
 10
15.7854
 20
38.4651
 30
0.0
 11
15.8268
 21
38.4238
 31
0.0
  0
LINE
  8
0
 62
     2
 10
15.8268
 20
38.4238
 30
0.0
 11
15.8874
 21
38.3632
 31
0.0
  0
LINE
  8
0
 62
     2
 10
15.8874
 20
38.3632
 30
0.0
 11
16.1341
 21
38.2323
 31
0.0
  0
LINE
  8
0
 62
     2
 10
16.1341
 20
38.2323
 30
0.0
 11
16.6233
 21
38.0436
 31
0.0
  0
LINE
  8
0
 62
     2
 10
16.6233
 20
38.0436
 30
0.0
 11
17.1924
 21
37.8904
 31
0.0
  0
LINE
  8
0
 62
     2
 10
17.1924
 20
37.8904
 30
0.0
 11
17.603
 21
37.8146
 31
0.0
  0
LINE
  8
0
 62
     2
 10
17.603
 20
37.8146
 30
0.0
 11
17.7423
 21
37.8037
 31
0.0
  0
LINE
  8
0
 62
     2
 10
17.7423
 20
37.8037
 30
0.0
 11
17.8442
 21
37.797
 31
0.0
  0
LINE
  8
0
 62
     2
 10
17.8442
 20
37.797
 30
0.0
 11
18.1543
 21
37.8037
 31
0.0
  0
LINE
  8
0
 62
     2
 10
18.1543
 20
37.8037
 30
0.0
 11
18.5525
 21
37.9003
 31
0.0
  0
LINE
  8
0
 62
     2
 10
18.5525
 20
37.9003
 30
0.0
 11
19.0624
 21
38.1413
 31
0.0
  0
LINE
  8
0
 62
     2
 10
19.0624
 20
38.1413
 30
0.0
 11
19.6288
 21
38.4651
 31
0.0
  0
LINE
  8
0
 62
     2
 10
19.6288
 20
38.4651
 30
0.0
 11
19.8148
 21
38.5755
 31
0.0
  0
LINE
  8
0
 62
     2
 10
19.8148
 20
38.5755
 30
0.0
 11
19.9885
 21
38.6803
 31
0.0
  0
LINE
  8
0
 62
     2
 10
19.9885
 20
38.6803
 30
0.0
 11
20.5231
 21
38.9791
 31
0.0
  0
LINE
  8
0
 62
     2
 10
20.5231
 20
38.9791
 30
0.0
 11
21.0564
 21
39.2053
 31
0.0
  0
LINE
  8
0
 62
     2
 10
21.0564
 20
39.2053
 30
0.0
 11
21.5415
 21
39.2949
 31
0.0
  0
LINE
  8
0
 62
     2
 10
21.5415
 20
39.2949
 30
0.0
 11
21.9645
 21
39.2949
 31
0.0
  0
LINE
  8
0
 62
     2
 10
21.9645
 20
39.2949
 30
0.0
 11
22.1051
 21
39.285
 31
0.0
  0
LINE
  8
0
 62
     2
 10
22.1051
 20
39.285
 30
0.0
 11
22.2429
 21
39.2769
 31
0.0
  0
LINE
  8
0
 62
     2
 10
22.2429
 20
39.2769
 30
0.0
 11
22.7073
 21
39.2811
 31
0.0
  0
LINE
  8
0
 62
     2
 10
22.7073
 20
39.2811
 30
0.0
 11
23.1469
 21
39.3802
 31
0.0
  0
LINE
  8
0
 62
     2
 10
23.1469
 20
39.3802
 30
0.0
 11
23.2737
 21
39.4187
 31
0.0
  0
LINE
  8
0
 62
     2
 10
23.2737
 20
39.4187
 30
0.0
 11
23.829
 21
39.5923
 31
0.0
  0
LINE
  8
0
 62
     2
 10
23.829
 20
39.5923
 30
0.0
 11
24.744
 21
39.4187
 31
0.0
  0
LINE
  8
0
 62
     2
 10
24.744
 20
39.4187
 30
0.0
 11
24.8695
 21
39.3954
 31
0.0
  0
LINE
  8
0
 62
     2
 10
24.8695
 20
39.3954
 30
0.0
 11
25.535
 21
39.2617
 31
0.0
  0
LINE
  8
0
 62
     2
 10
25.535
 20
39.2617
 30
0.0
 11
26.0835
 21
39.1403
 31
0.0
  0
LINE
  8
0
 62
     2
 10
26.0835
 20
39.1403
 30
0.0
 11
26.1524
 21
39.1238
 31
0.0
  0
LINE
  8
0
 62
     2
 10
26.1524
 20
39.1238
 30
0.0
 11
26.3136
 21
39.0839
 31
0.0
  0
LINE
  8
0
 62
     2
 10
26.3136
 20
39.0839
 30
0.0
 11
27.2259
 21
38.9654
 31
0.0
  0
LINE
  8
0
 62
     2
 10
27.2259
 20
38.9654
 30
0.0
 11
28.1836
 21
38.9668
 31
0.0
  0
LINE
  8
0
 62
     2
 10
28.1836
 20
38.9668
 30
0.0
 11
28.3697
 21
38.9862
 31
0.0
  0
LINE
  8
0
 62
     2
 10
28.3697
 20
38.9862
 30
0.0
 11
28.5047
 21
39.0013
 31
0.0
  0
LINE
  8
0
 62
     2
 10
28.5047
 20
39.0013
 30
0.0
 11
28.9526
 21
39.0867
 31
0.0
  0
LINE
  8
0
 62
     2
 10
28.9526
 20
39.0867
 30
0.0
 11
29.3701
 21
39.2864
 31
0.0
  0
LINE
  8
0
 62
     2
 10
29.3701
 20
39.2864
 30
0.0
 11
29.4914
 21
39.3569
 31
0.0
  0
LINE
  8
0
 62
     2
 10
29.4914
 20
39.3569
 30
0.0
 11
29.6058
 21
39.4243
 31
0.0
  0
LINE
  8
0
 62
     2
 10
29.6058
 20
39.4243
 30
0.0
 11
29.9696
 21
39.5951
 31
0.0
  0
LINE
  8
0
 62
     2
 10
29.9696
 20
39.5951
 30
0.0
 11
30.434
 21
39.6984
 31
0.0
  0
LINE
  8
0
 62
     2
 10
30.434
 20
39.6984
 30
0.0
 11
31.0003
 21
39.678
 31
0.0
  0
LINE
  8
0
 62
     2
 10
31.0003
 20
39.678
 30
0.0
 11
31.5929
 21
39.5799
 31
0.0
  0
LINE
  8
0
 62
     2
 10
31.5929
 20
39.5799
 30
0.0
 11
31.79
 21
39.5386
 31
0.0
  0
LINE
  8
0
 62
     2
 10
31.79
 20
39.5386
 30
0.0
 11
31.9815
 21
39.5002
 31
0.0
  0
LINE
  8
0
 62
     2
 10
31.9815
 20
39.5002
 30
0.0
 11
32.5699
 21
39.4021
 31
0.0
  0
LINE
  8
0
 62
     2
 10
32.5699
 20
39.4021
 30
0.0
 11
32.8965
 21
39.4173
 31
0.0
  0
LINE
  8
0
 62
     2
 10
32.8965
 20
39.4173
 30
0.0
 11
32.9585
 21
39.4339
 31
0.0
  0
LINE
  8
0
 62
     2
 10
32.9585
 20
39.4339
 30
0.0
 11
33.1722
 21
39.4917
 31
0.0
  0
LINE
  8
0
 62
     2
 10
33.1722
 20
39.4917
 30
0.0
 11
33.9562
 21
39.7563
 31
0.0
  0
LINE
  8
0
 62
     2
 10
33.9562
 20
39.7563
 30
0.0
 11
35.3716
 21
40.2678
 31
0.0
  0
LINE
  8
0
 62
     2
 10
35.3716
 20
40.2678
 30
0.0
 11
36.7591
 21
40.8037
 31
0.0
  0
LINE
  8
0
 62
     2
 10
36.7591
 20
40.8037
 30
0.0
 11
37.4978
 21
41.1081
 31
0.0
  0
LINE
  8
0
 62
     2
 10
37.4978
 20
41.1081
 30
0.0
 11
37.6742
 21
41.1963
 31
0.0
  0
LINE
  8
0
 62
     2
 10
37.6742
 20
41.1963
 30
0.0
 11
38.4694
 21
41.5974
 31
0.0
  0
LINE
  8
0
 62
     2
 10
38.4694
 20
41.5974
 30
0.0
 11
40.0142
 21
41.6334
 31
0.0
  0
LINE
  8
0
 62
     2
 10
40.0142
 20
41.6334
 30
0.0
 11
40.2512
 21
41.6387
 31
0.0
  0
LINE
  8
0
 62
     2
 10
40.2512
 20
41.6387
 30
0.0
 11
40.9663
 21
41.6609
 31
0.0
  0
LINE
  8
0
 62
     2
 10
40.9663
 20
41.6609
 30
0.0
 11
41.5272
 21
41.7117
 31
0.0
  0
LINE
  8
0
 62
     2
 10
41.5272
 20
41.7117
 30
0.0
 11
41.9255
 21
41.8275
 31
0.0
  0
LINE
  8
0
 62
     2
 10
41.9255
 20
41.8275
 30
0.0
 11
42.2769
 21
41.9915
 31
0.0
  0
LINE
  8
0
 62
     2
 10
42.2769
 20
41.9915
 30
0.0
 11
42.3926
 21
42.0479
 31
0.0
  0
LINE
  8
0
 62
     2
 10
42.3926
 20
42.0479
 30
0.0
 11
42.4727
 21
42.0896
 31
0.0
  0
LINE
  8
0
 62
     2
 10
42.4727
 20
42.0896
 30
0.0
 11
43.3684
 21
42.3541
 31
0.0
  0
LINE
  8
0
 62
     2
 10
43.3684
 20
42.3541
 30
0.0
 11
43.4841
 21
42.3718
 31
0.0
  0
LINE
  8
0
 62
     2
 10
43.4841
 20
42.3718
 30
0.0
 11
43.6975
 21
42.4064
 31
0.0
  0
LINE
  8
0
 62
     2
 10
43.6975
 20
42.4064
 30
0.0
 11
44.5766
 21
42.4614
 31
0.0
  0
LINE
  8
0
 62
     2
 10
44.5766
 20
42.4614
 30
0.0
 11
46.6467
 21
42.5263
 31
0.0
  0
LINE
  8
0
 62
     2
 10
46.6467
 20
42.5263
 30
0.0
 11
49.7939
 21
42.5732
 31
0.0
  0
LINE
  8
0
 62
     2
 10
49.7939
 20
42.5732
 30
0.0
 11
53.0419
 21
42.5965
 31
0.0
  0
LINE
  8
0
 62
     2
 10
53.0419
 20
42.5965
 30
0.0
 11
54.1253
 21
42.6007
 31
0.0
  0
LINE
  8
0
 62
     2
 10
54.1253
 20
42.6007
 30
0.0
 11
54.6255
 21
42.6036
 31
0.0
  0
LINE
  8
0
 62
     2
 10
54.6255
 20
42.6036
 30
0.0
 11
56.1277
 21
42.6117
 31
0.0
  0
LINE
  8
0
 62
     2
 10
56.1277
 20
42.6117
 30
0.0
 11
57.5867
 21
42.6145
 31
0.0
  0
LINE
  8
0
 62
     2
 10
57.5867
 20
42.6145
 30
0.0
 11
58.5971
 21
42.5993
 31
0.0
  0
LINE
  8
0
 62
     2
 10
58.5971
 20
42.5993
 30
0.0
 11
59.2473
 21
42.5552
 31
0.0
  0
LINE
  8
0
 62
     2
 10
59.2473
 20
42.5552
 30
0.0
 11
59.629
 21
42.4684
 31
0.0
  0
LINE
  8
0
 62
     2
 10
59.629
 20
42.4684
 30
0.0
 11
59.8357
 21
42.3305
 31
0.0
  0
LINE
  8
0
 62
     2
 10
59.8357
 20
42.3305
 30
0.0
 11
59.9571
 21
42.128
 31
0.0
  0
LINE
  8
0
 62
     2
 10
59.9571
 20
42.128
 30
0.0
 11
60.0509
 21
41.9171
 31
0.0
  0
LINE
  8
0
 62
     2
 10
60.0509
 20
41.9171
 30
0.0
 11
60.0865
 21
41.8483
 31
0.0
  0
LINE
  8
0
 62
     2
 10
60.0865
 20
41.8483
 30
0.0
 11
60.1775
 21
41.6676
 31
0.0
  0
LINE
  8
0
 62
     2
 10
60.1775
 20
41.6676
 30
0.0
 11
60.5123
 21
41.1565
 31
0.0
  0
LINE
  8
0
 62
     2
 10
60.5123
 20
41.1565
 30
0.0
 11
61.0097
 21
40.5765
 31
0.0
  0
LINE
  8
0
 62
     2
 10
61.0097
 20
40.5765
 30
0.0
 11
61.51
 21
40.1768
 31
0.0
  0
LINE
  8
0
 62
     2
 10
61.51
 20
40.1768
 30
0.0
 11
61.8352
 21
40.0265
 31
0.0
  0
LINE
  8
0
 62
     2
 10
61.8352
 20
40.0265
 30
0.0
 11
61.9442
 21
40.0251
 31
0.0
  0
LINE
  8
0
 62
     2
 10
61.9442
 20
40.0251
 30
0.0
 11
62.0007
 21
40.0251
 31
0.0
  0
LINE
  8
0
 62
     2
 10
62.0007
 20
40.0251
 30
0.0
 11
62.3701
 21
39.8847
 31
0.0
  0
LINE
  8
0
 62
     2
 10
62.3701
 20
39.8847
 30
0.0
 11
62.6925
 21
39.6505
 31
0.0
  0
LINE
  8
0
 62
     2
 10
62.6925
 20
39.6505
 30
0.0
 11
62.7257
 21
39.6021
 31
0.0
  0
LINE
  8
0
 62
     2
 10
62.7257
 20
39.6021
 30
0.0
 11
62.7422
 21
39.5774
 31
0.0
  0
LINE
  8
0
 62
     2
 10
62.7422
 20
39.5774
 30
0.0
 11
62.8855
 21
39.2878
 31
0.0
  0
LINE
  8
0
 62
     2
 10
62.8855
 20
39.2878
 30
0.0
 11
63.0562
 21
38.8786
 31
0.0
  0
LINE
  8
0
 62
     2
 10
63.0562
 20
38.8786
 30
0.0
 11
63.088
 21
38.7932
 31
0.0
  0
LINE
  8
0
 62
     2
 10
63.088
 20
38.7932
 30
0.0
 11
63.1349
 21
38.669
 31
0.0
  0
LINE
  8
0
 62
     2
 10
63.1349
 20
38.669
 30
0.0
 11
63.2767
 21
38.2062
 31
0.0
  0
LINE
  8
0
 62
     2
 10
63.2767
 20
38.2062
 30
0.0
 11
63.3236
 21
37.8506
 31
0.0
  0
LINE
  8
0
 62
     2
 10
63.3236
 20
37.8506
 30
0.0
 11
63.3236
 21
37.7306
 31
0.0
  0
LINE
  8
0
 62
     2
 10
63.3236
 20
37.7306
 30
0.0
 11
63.3236
 21
37.6301
 31
0.0
  0
LINE
  8
0
 62
     2
 10
63.3236
 20
37.6301
 30
0.0
 11
63.2933
 21
37.3242
 31
0.0
  0
LINE
  8
0
 62
     2
 10
63.2933
 20
37.3242
 30
0.0
 11
63.1652
 21
36.8681
 31
0.0
  0
LINE
  8
0
 62
     2
 10
63.1652
 20
36.8681
 30
0.0
 11
62.877
 21
36.2052
 31
0.0
  0
LINE
  8
0
 62
     2
 10
62.877
 20
36.2052
 30
0.0
 11
62.4981
 21
35.4266
 31
0.0
  0
LINE
  8
0
 62
     2
 10
62.4981
 20
35.4266
 30
0.0
 11
62.3701
 21
35.1689
 31
0.0
  0
LINE
  8
0
 62
     2
 10
62.3701
 20
35.1689
 30
0.0
 11
62.2734
 21
34.9774
 31
0.0
  0
LINE
  8
0
 62
     2
 10
62.2734
 20
34.9774
 30
0.0
 11
61.9883
 21
34.3958
 31
0.0
  0
LINE
  8
0
 62
     2
 10
61.9883
 20
34.3958
 30
0.0
 11
61.7636
 21
33.8983
 31
0.0
  0
LINE
  8
0
 62
     2
 10
61.7636
 20
33.8983
 30
0.0
 11
61.6465
 21
33.5552
 31
0.0
  0
LINE
  8
0
 62
     2
 10
61.6465
 20
33.5552
 30
0.0
 11
61.5982
 21
33.3251
 31
0.0
  0
LINE
  8
0
 62
     2
 10
61.5982
 20
33.3251
 30
0.0
 11
61.5887
 21
33.2466
 31
0.0
  0
LINE
  8
0
 62
     2
 10
61.5887
 20
33.2466
 30
0.0
 11
61.5707
 21
33.1156
 31
0.0
  0
LINE
  8
0
 62
     2
 10
61.5707
 20
33.1156
 30
0.0
 11
61.5019
 21
32.7243
 31
0.0
  0
LINE
  8
0
 62
     2
 10
61.5019
 20
32.7243
 30
0.0
 11
61.3805
 21
32.3439
 31
0.0
  0
LINE
  8
0
 62
     2
 10
61.3805
 20
32.3439
 30
0.0
 11
61.1875
 21
32.027
 31
0.0
  0
LINE
  8
0
 62
     2
 10
61.1875
 20
32.027
 30
0.0
 11
60.9646
 21
31.7693
 31
0.0
  0
LINE
  8
0
 62
     2
 10
60.9646
 20
31.7693
 30
0.0
 11
60.8859
 21
31.688
 31
0.0
  0
LINE
  8
0
 62
     2
 10
60.8859
 20
31.688
 30
0.0
 11
60.766
 21
31.5667
 31
0.0
  0
LINE
  8
0
 62
     2
 10
60.766
 20
31.5667
 30
0.0
 11
60.4188
 21
31.0872
 31
0.0
  0
LINE
  8
0
 62
     2
 10
60.4188
 20
31.0872
 30
0.0
 11
60.3112
 21
30.5883
 31
0.0
  0
LINE
  8
0
 62
     2
 10
60.3112
 20
30.5883
 30
0.0
 11
60.3112
 21
30.4216
 31
0.0
  0
LINE
  8
0
 62
     2
 10
60.3112
 20
30.4216
 30
0.0
 11
60.3112
 21
30.3485
 31
0.0
  0
LINE
  8
0
 62
     2
 10
60.3112
 20
30.3485
 30
0.0
 11
60.2823
 21
30.1253
 31
0.0
  0
LINE
  8
0
 62
     2
 10
60.2823
 20
30.1253
 30
0.0
 11
60.1719
 21
29.8304
 31
0.0
  0
LINE
  8
0
 62
     2
 10
60.1719
 20
29.8304
 30
0.0
 11
59.9391
 21
29.4597
 31
0.0
  0
LINE
  8
0
 62
     2
 10
59.9391
 20
29.4597
 30
0.0
 11
59.6417
 21
29.0628
 31
0.0
  0
LINE
  8
0
 62
     2
 10
59.6417
 20
29.0628
 30
0.0
 11
59.5408
 21
28.9333
 31
0.0
  0
LINE
  8
0
 62
     2
 10
59.5408
 20
28.9333
 30
0.0
 11
59.4678
 21
28.841
 31
0.0
  0
LINE
  8
0
 62
     2
 10
59.4678
 20
28.841
 30
0.0
 11
59.1591
 21
28.4303
 31
0.0
  0
LINE
  8
0
 62
     2
 10
59.1591
 20
28.4303
 30
0.0
 11
58.9855
 21
28.1795
 31
0.0
  0
LINE
  8
0
 62
     2
 10
58.9855
 20
28.1795
 30
0.0
 11
58.9813
 21
28.1657
 31
0.0
  0
LINE
  8
0
 62
     2
 10
58.9813
 20
28.1657
 30
0.0
 11
58.947
 21
28.0651
 31
0.0
  0
LINE
  8
0
 62
     2
 10
58.947
 20
28.0651
 30
0.0
 11
58.6285
 21
27.4298
 31
0.0
  0
LINE
  8
0
 62
     2
 10
58.6285
 20
27.4298
 30
0.0
 11
58.2207
 21
26.8015
 31
0.0
  0
LINE
  8
0
 62
     2
 10
58.2207
 20
26.8015
 30
0.0
 11
58.141
 21
26.7022
 31
0.0
  0
LINE
  8
0
 62
     2
 10
58.141
 20
26.7022
 30
0.0
 11
58.0224
 21
26.5589
 31
0.0
  0
LINE
  8
0
 62
     2
 10
58.0224
 20
26.5589
 30
0.0
 11
57.6943
 21
26.0201
 31
0.0
  0
LINE
  8
0
 62
     2
 10
57.6943
 20
26.0201
 30
0.0
 11
57.628
 21
25.4758
 31
0.0
  0
LINE
  8
0
 62
     2
 10
57.628
 20
25.4758
 30
0.0
 11
57.6407
 21
25.3297
 31
0.0
  0
LINE
  8
0
 62
     2
 10
57.6407
 20
25.3297
 30
0.0
 11
57.6488
 21
25.2167
 31
0.0
  0
LINE
  8
0
 62
     2
 10
57.6488
 20
25.2167
 30
0.0
 11
57.7024
 21
24.8777
 31
0.0
  0
LINE
  8
0
 62
     2
 10
57.7024
 20
24.8777
 30
0.0
 11
57.8541
 21
24.5649
 31
0.0
  0
LINE
  8
0
 62
     2
 10
57.8541
 20
24.5649
 30
0.0
 11
58.1766
 21
24.2948
 31
0.0
  0
LINE
  8
0
 62
     2
 10
58.1766
 20
24.2948
 30
0.0
 11
58.6066
 21
24.0426
 31
0.0
  0
LINE
  8
0
 62
     2
 10
58.6066
 20
24.0426
 30
0.0
 11
58.7527
 21
23.9641
 31
0.0
  0
LINE
  8
0
 62
     2
 10
58.7527
 20
23.9641
 30
0.0
 11
58.8959
 21
23.8883
 31
0.0
  0
LINE
  8
0
 62
     2
 10
58.8959
 20
23.8883
 30
0.0
 11
59.3259
 21
23.6499
 31
0.0
  0
LINE
  8
0
 62
     2
 10
59.3259
 20
23.6499
 30
0.0
 11
59.6692
 21
23.4308
 31
0.0
  0
LINE
  8
0
 62
     2
 10
59.6692
 20
23.4308
 30
0.0
 11
59.8579
 21
23.2517
 31
0.0
  0
LINE
  8
0
 62
     2
 10
59.8579
 20
23.2517
 30
0.0
 11
59.9447
 21
23.1083
 31
0.0
  0
LINE
  8
0
 62
     2
 10
59.9447
 20
23.1083
 30
0.0
 11
59.9666
 21
23.056
 31
0.0
  0
LINE
  8
0
 62
     2
 10
59.9666
 20
23.056
 30
0.0
 11
60.0054
 21
22.9636
 31
0.0
  0
LINE
  8
0
 62
     2
 10
60.0054
 20
22.9636
 30
0.0
 11
59.8936
 21
22.0431
 31
0.0
  0
LINE
  8
0
 62
     2
 10
59.8936
 20
22.0431
 30
0.0
 11
59.8329
 21
21.9508
 31
0.0
  0
LINE
  8
0
 62
     2
 10
59.8329
 20
21.9508
 30
0.0
 11
59.6113
 21
21.6201
 31
0.0
  0
LINE
  8
0
 62
     2
 10
59.6113
 20
21.6201
 30
0.0
 11
59.7697
 21
21.3238
 31
0.0
  0
LINE
  8
0
 62
     2
 10
59.7697
 20
21.3238
 30
0.0
 11
59.8371
 21
21.197
 31
0.0
  0
LINE
  8
0
 62
     2
 10
59.8371
 20
21.197
 30
0.0
 11
59.9172
 21
20.5893
 31
0.0
  0
LINE
  8
0
 62
     2
 10
59.9172
 20
20.5893
 30
0.0
 11
59.6403
 21
19.9636
 31
0.0
  0
LINE
  8
0
 62
     2
 10
59.6403
 20
19.9636
 30
0.0
 11
59.5313
 21
19.8258
 31
0.0
  0
LINE
  8
0
 62
     2
 10
59.5313
 20
19.8258
 30
0.0
 11
59.4981
 21
19.7872
 31
0.0
  0
LINE
  8
0
 62
     2
 10
59.4981
 20
19.7872
 30
0.0
 11
59.4018
 21
19.6674
 31
0.0
  0
LINE
  8
0
 62
     2
 10
59.4018
 20
19.6674
 30
0.0
 11
59.3065
 21
19.4662
 31
0.0
  0
LINE
  8
0
 62
     2
 10
59.3065
 20
19.4662
 30
0.0
 11
59.2406
 21
19.0886
 31
0.0
  0
LINE
  8
0
 62
     2
 10
59.2406
 20
19.0886
 30
0.0
 11
59.1979
 21
18.4051
 31
0.0
  0
LINE
  8
0
 62
     2
 10
59.1979
 20
18.4051
 30
0.0
 11
59.1714
 21
17.2792
 31
0.0
  0
LINE
  8
0
 62
     2
 10
59.1714
 20
17.2792
 30
0.0
 11
59.1605
 21
15.5801
 31
0.0
  0
LINE
  8
0
 62
     2
 10
59.1605
 20
15.5801
 30
0.0
 11
59.1566
 21
13.1754
 31
0.0
  0
LINE
  8
0
 62
     2
 10
59.1566
 20
13.1754
 30
0.0
 11
59.1577
 21
10.7418
 31
0.0
  0
LINE
  8
0
 62
     2
 10
59.1577
 20
10.7418
 30
0.0
 11
59.1577
 21
9.93013
 31
0.0
  0
LINE
  8
0
 62
     2
 10
59.1577
 20
9.93013
 30
0.0
 11
59.1577
 21
9.21082
 31
0.0
  0
LINE
  8
0
 62
     2
 10
59.1577
 20
9.21082
 30
0.0
 11
59.1566
 21
7.05143
 31
0.0
  0
LINE
  8
0
 62
     2
 10
59.1566
 20
7.05143
 30
0.0
 11
59.1552
 21
4.85482
 31
0.0
  0
LINE
  8
0
 62
     2
 10
59.1552
 20
4.85482
 30
0.0
 11
59.1495
 21
3.24666
 31
0.0
  0
LINE
  8
0
 62
     2
 10
59.1495
 20
3.24666
 30
0.0
 11
59.1414
 21
2.13045
 31
0.0
  0
LINE
  8
0
 62
     2
 10
59.1414
 20
2.13045
 30
0.0
 11
59.1273
 21
1.41111
 31
0.0
  0
LINE
  8
0
 62
     2
 10
59.1273
 20
1.41111
 30
0.0
 11
59.1069
 21
0.994943
 31
0.0
  0
LINE
  8
0
 62
     2
 10
59.1069
 20
0.994943
 30
0.0
 11
59.0779
 21
0.78686
 31
0.0
  0
LINE
  8
0
 62
     2
 10
59.0779
 20
0.78686
 30
0.0
 11
59.0543
 21
0.713825
 31
0.0
  0
LINE
  8
0
 62
     2
 10
59.0543
 20
0.713825
 30
0.0
 11
59.0419
 21
0.691776
 31
0.0
  0
LINE
  8
0
 62
     2
 10
59.0419
 20
0.691776
 30
0.0
 11
59.0243
 21
0.665593
 31
0.0
  0
LINE
  8
0
 62
     2
 10
59.0243
 20
0.665593
 30
0.0
 11
58.6863
 21
0.377582
 31
0.0
  0
LINE
  8
0
 62
     2
 10
58.6863
 20
0.377582
 30
0.0
 11
58.6507
 21
0.358292
 31
0.0
  0
LINE
  8
0
 62
     2
 10
58.6507
 20
0.358292
 30
0.0
 11
58.3766
 21
0.213596
 31
0.0
  0
LINE
  8
0
 62
     2
 10
58.3766
 20
0.213596
 30
0.0
 11
30.671
 21
0.21773
 31
0.0
  0
LINE
  8
0
 62
     2
 10
30.671
 20
0.21773
 30
0.0
 11
2.96554
 21
0.220486
 31
0.0
  0
LINE
  8
0
 62
     2
 10
2.96554
 20
0.220486
 30
0.0
 11
2.72989
 21
0.374826
 31
0.0
  0
ENDSEC
  0
EOF
