<?xml version="1.0" encoding="UTF-8" standalone="no"?>
<!-- Created with Inkscape (http://www.inkscape.org/) -->
<svg id="svg2" xmlns:rdf="http://www.w3.org/1999/02/22-rdf-syntax-ns#" xmlns="http://www.w3.org/2000/svg" xmlns:osb="http://www.openswatchbook.org/uri/2009/osb" height="36.185mm" width="50.645mm" version="1.1" xmlns:cc="http://creativecommons.org/ns#" viewBox="0 0 179.44917 128.21565" xmlns:dc="http://purl.org/dc/elements/1.1/">
 <metadata id="metadata7">
  <rdf:RDF>
   <cc:Work rdf:about="">
    <dc:format>image/svg+xml</dc:format>
    <dc:type rdf:resource="http://purl.org/dc/dcmitype/StillImage"/>
    <dc:title/>
   </cc:Work>
  </rdf:RDF>
 </metadata>
 <g id="layer1" transform="translate(-186.62 -397.83)">
  <path id="path4182" d="m193.87 525.58c-0.37-0.24-0.88-0.7-1.13-1.03-0.76-1.01-1.91-3.88-2.75-6.87-0.96-3.39-1.22-4.77-1.25-6.51-0.02-1.13 0.05-1.45 0.56-2.44 0.33-0.63 0.59-1.35 0.59-1.61 0-0.32-0.37-0.91-1.09-1.75-2.74-3.22-2.85-4.97-0.63-9.93l0.69-1.55 0.13-3.74c0.17-4.83 0.23-5.03 2.23-7.08l1.53-1.57 0.11-2.19c0.12-2.63 0.4-3.77 1.58-6.28 1.28-2.74 1.36-3.15 1.22-6.89-0.06-1.76-0.04-3.73 0.06-4.39 0.09-0.66 0.26-2.88 0.37-4.94 0.11-2.05 0.33-4.31 0.48-5.01 0.21-0.91 0.3-2.52 0.33-5.65 0.03-2.4 0.11-4.61 0.19-4.91s0.37-1.02 0.66-1.59 0.77-1.66 1.07-2.42l0.54-1.38v-4.59c0-2.63 0.12-5.81 0.27-7.42 0.39-4.14 0.39-5.54 0.01-9.41-0.32-3.25-0.32-3.56-0.05-4.81 0.29-1.31 0.28-1.38-0.17-3.35-0.39-1.71-0.44-2.33-0.37-4.06 0.13-3.18 0.39-3.4 4.41-3.6 1.41-0.06 3.41-0.25 4.47-0.4 2.62-0.38 4.85-0.49 5.14-0.27 1.21 0.97 1.82 1.65 2.17 2.41 0.22 0.49 0.45 0.89 0.51 0.89 0.05 0 0.59-0.13 1.19-0.27 0.61-0.15 1.47-0.26 1.92-0.26 0.8 0 2.82 0.46 3.9 0.89 0.81 0.32 2.63 1.67 3.76 2.8 1.77 1.77 2.25 3.05 3.17 8.51 0.59 3.45 0.71 3.86 1.4 4.55s3.53 1.61 5.44 1.76c1.75 0.13 2.43-0.12 5.89-2.19 3.18-1.91 4.07-2.19 6.51-2.02 1.57 0.1 1.89 0.07 3.32-0.38l1.58-0.49 2.6 0.49c1.43 0.27 3.23 0.65 4 0.84 1.84 0.46 4.2 0.61 6.3 0.39 1.54-0.16 1.82-0.25 3.19-1.05 1.99-1.17 2.97-1.25 6.53-0.52 2.19 0.45 2.62 0.49 3.32 0.3 2.43-0.65 11.4-4 13.4-5.01l2.26-1.14 4.39-0.1c4.65-0.11 4.57-0.09 6.76-1.18 0.92-0.46 1.79-0.71 3.1-0.92 2.43-0.38 11.46-0.57 30.24-0.65 17.46-0.07 15.71-0.29 16.94 2.14 1.39 2.75 3.85 5.16 5.28 5.18 0.64 0.01 1.85 0.66 2.22 1.2 0.2 0.29 0.67 1.33 1.03 2.3 0.54 1.42 0.67 2.03 0.67 3.02 0 1.66-0.29 2.45-2.71 7.28-1.8 3.6-2.05 4.21-2.22 5.46-0.31 2.36-0.6 3.01-2 4.43-1.36 1.38-1.63 1.98-1.63 3.6 0 1.23-0.32 1.84-2.19 4.23-0.82 1.05-1.54 2.03-1.59 2.18-0.39 1.15-1.48 3.04-2.39 4.16-1.34 1.63-1.56 2.24-1.42 3.9 0.17 2.11 0.4 2.39 3.16 3.88 2.7 1.44 3.1 1.74 3.45 2.58 0.45 1.06 0.32 2.1-0.38 3.14l-0.63 0.94 0.45 0.84c0.77 1.45 0.57 2.7-0.68 4.26-1.11 1.38-1.06 0.02-1.06 28.12 0 24.64-0.01 25.72-0.33 26.25-0.19 0.3-0.69 0.73-1.11 0.95l-0.78 0.41-78.73-0.01-78.73-0.01z" stroke="#000" fill="none"/>
 </g>
</svg>
