<?xml version="1.0" encoding="UTF-8" standalone="no"?>
<!-- Created with Inkscape (http://www.inkscape.org/) -->

<svg
   xmlns:dc="http://purl.org/dc/elements/1.1/"
   xmlns:cc="http://creativecommons.org/ns#"
   xmlns:rdf="http://www.w3.org/1999/02/22-rdf-syntax-ns#"
   xmlns:svg="http://www.w3.org/2000/svg"
   xmlns="http://www.w3.org/2000/svg"
   xmlns:sodipodi="http://sodipodi.sourceforge.net/DTD/sodipodi-0.dtd"
   xmlns:inkscape="http://www.inkscape.org/namespaces/inkscape"
   id="svg2"
   height="45.470753mm"
   width="63.500015mm"
   version="1.1"
   viewBox="0 0 224.99802 161.1182"
   sodipodi:docname="OR_TOP.svg"
   inkscape:version="0.92.3 (2405546, 2018-03-11)">
  <defs
     id="defs63" />
  <sodipodi:namedview
     pagecolor="#ffffff"
     bordercolor="#666666"
     borderopacity="1"
     objecttolerance="10"
     gridtolerance="10"
     guidetolerance="10"
     inkscape:pageopacity="0"
     inkscape:pageshadow="2"
     inkscape:window-width="1920"
     inkscape:window-height="1144"
     id="namedview61"
     showgrid="false"
     fit-margin-top="0"
     fit-margin-left="0"
     fit-margin-right="0"
     fit-margin-bottom="0"
     inkscape:zoom="1.7256229"
     inkscape:cx="9.9027095"
     inkscape:cy="109.1047"
     inkscape:window-x="0"
     inkscape:window-y="26"
     inkscape:window-maximized="1"
     inkscape:current-layer="layer4" />
  <metadata
     id="metadata7">
    <rdf:RDF>
      <cc:Work
         rdf:about="">
        <dc:format>image/svg+xml</dc:format>
        <dc:type
           rdf:resource="http://purl.org/dc/dcmitype/StillImage" />
        <dc:title></dc:title>
      </cc:Work>
    </rdf:RDF>
  </metadata>
  <g
     id="layer1"
     transform="translate(-163.83782,-381.37468)" />
  <g
     inkscape:groupmode="layer"
     id="layer3"
     inkscape:label="Edge.Cuts"
     style="display:inline">
    <path
       transform="translate(-163.83782,-381.37468)"
       id="path4182"
       d="m 173.50708,541.29562 c -0.46137,-0.29926 -1.0973,-0.87285 -1.40903,-1.28433 -0.94766,-1.25939 -2.38162,-4.83805 -3.42903,-8.56635 -1.19704,-4.22706 -1.52124,-5.94782 -1.55865,-8.11746 -0.0249,-1.40902 0.0623,-1.80803 0.69827,-3.04249 0.41149,-0.78556 0.73569,-1.68334 0.73569,-2.00754 0,-0.39902 -0.46136,-1.1347 -1.35915,-2.18211 -3.41656,-4.01509 -3.55372,-6.1972 -0.78556,-12.38193 l 0.86038,-1.93273 0.1621,-4.66349 c 0.21198,-6.02263 0.28679,-6.27201 2.78063,-8.8282 l 1.90779,-1.95767 0.13716,-2.73076 c 0.14964,-3.2794 0.49877,-4.70089 1.97014,-7.83066 1.59606,-3.41657 1.69581,-3.92781 1.52124,-8.59129 -0.0748,-2.19459 -0.0499,-4.65102 0.0748,-5.47399 0.11222,-0.82297 0.3242,-3.59113 0.46136,-6.15979 0.13716,-2.55619 0.41149,-5.37423 0.59852,-6.24708 0.26186,-1.1347 0.37408,-3.14224 0.41149,-7.0451 0.0374,-2.99262 0.13716,-5.74831 0.23691,-6.12239 0.0998,-0.37408 0.46136,-1.27186 0.82297,-1.9826 0.36161,-0.71075 0.96013,-2.06989 1.33421,-3.01755 l 0.67333,-1.72076 v -5.72337 c 0,-3.2794 0.14963,-7.24461 0.33667,-9.25215 0.4863,-5.16226 0.4863,-6.90795 0.0125,-11.73353 -0.39901,-4.0525 -0.39901,-4.43905 -0.0623,-5.9977 0.3616,-1.63346 0.34913,-1.72075 -0.21198,-4.17718 -0.4863,-2.13224 -0.54865,-2.90533 -0.46136,-5.06251 0.1621,-3.96521 0.4863,-4.23953 5.49892,-4.48891 1.75816,-0.0748 4.252,-0.31173 5.57374,-0.49877 3.26694,-0.47383 6.04757,-0.61099 6.40918,-0.33667 1.50877,1.20951 2.2694,2.05742 2.70582,3.00508 0.27432,0.61099 0.56111,1.10976 0.63593,1.10976 0.0623,0 0.73568,-0.1621 1.48383,-0.33667 0.76063,-0.18704 1.83298,-0.3242 2.39409,-0.3242 0.99754,0 3.51632,0.57359 4.863,1.10976 1.01,0.39902 3.2794,2.08236 4.68842,3.49138 2.20705,2.20705 2.80558,3.80311 3.95274,10.6113 0.73569,4.30188 0.88532,4.81312 1.74569,5.6735 0.86038,0.86037 4.40164,2.00754 6.78326,2.19458 2.18211,0.1621 3.03002,-0.14963 7.34436,-2.73076 3.96521,-2.38162 5.07497,-2.73076 8.11746,-2.51878 1.95767,0.12469 2.35668,0.0873 4.13978,-0.47383 l 1.97014,-0.61099 3.24199,0.61099 c 1.7831,0.33667 4.02756,0.8105 4.98769,1.04741 2.29434,0.57359 5.23707,0.76063 7.85561,0.4863 1.92025,-0.1995 2.26939,-0.31173 3.97768,-1.30926 2.48137,-1.4589 3.70335,-1.55866 8.14239,-0.6484 2.73076,0.56111 3.26694,0.61099 4.13978,0.37407 3.03002,-0.8105 14.21491,-4.98768 16.70875,-6.24707 l 2.81804,-1.42149 5.47399,-0.1247 c 5.79818,-0.13716 5.69843,-0.11222 8.42919,-1.47136 1.14717,-0.57359 2.23199,-0.88532 3.86545,-1.14717 3.03002,-0.47383 14.28972,-0.71075 37.70691,-0.8105 21.77125,-0.0873 19.58914,-0.36161 21.12285,2.66841 1.73322,3.42904 4.80065,6.43412 6.58375,6.45905 0.79803,0.0125 2.3068,0.82297 2.76816,1.49631 0.24939,0.36161 0.83544,1.65841 1.28433,2.86792 0.67334,1.77063 0.83544,2.53125 0.83544,3.7657 0,2.06989 -0.36161,3.05496 -3.37916,9.07759 -2.24446,4.48892 -2.55619,5.24954 -2.76816,6.80819 -0.38655,2.94274 -0.74816,3.75324 -2.49385,5.52387 -1.69581,1.72075 -2.03248,2.4689 -2.03248,4.48891 0,1.53372 -0.39901,2.29434 -2.73076,5.27448 -1.02247,1.30927 -1.92026,2.53125 -1.9826,2.71829 -0.4863,1.43396 -1.84545,3.79064 -2.98015,5.18719 -1.67087,2.03248 -1.94519,2.79311 -1.77062,4.863 0.21197,2.631 0.49876,2.98014 3.94027,4.83805 3.36669,1.79557 3.86545,2.16965 4.30188,3.21706 0.56111,1.32174 0.39901,2.61853 -0.47383,3.91533 l -0.78556,1.17211 0.56111,1.04741 c 0.96013,1.80804 0.71075,3.36669 -0.84791,5.31189 -1.38408,1.72075 -1.32173,0.0249 -1.32173,35.06343 0,30.72415 -0.0125,32.07082 -0.41149,32.73169 -0.23691,0.37408 -0.86037,0.91025 -1.38408,1.18458 l -0.9726,0.51123 -98.17013,-0.0125 -98.17013,-0.0125 z"
       style="fill:none;stroke:#ffff00;stroke-width:1.24732161;stroke-miterlimit:4;stroke-dasharray:none"
       inkscape:connector-curvature="0" />
  </g>
  <g
     inkscape:groupmode="layer"
     id="layer4"
     inkscape:label="Mustache" />
</svg>
