  0
SECTION
  2
HEADER
  9
$ACADVER
  1
AC1009
  9
$EXTMIN
 10
0.0
 20
0.0
 30
0.0
  9
$EXTMAX
 10
1000.0
 20
1000.0
 30
0.0
  9
$FILLMODE
 70
 0
  9
$SPLFRAME
 70
 1
  0
ENDSEC
  0
SECTION
  2
TABLES
  0
TABLE
  2
LAYER
 70
1
  0
LAYER
  2
0
 70
     0
 62
     7
  6
CONTINUOUS
  0
ENDTAB
  0
ENDSEC
  0
SECTION
  2
ENTITIES
  0
LINE
  8
0
 62
     0
 10
0.0923286
 20
-1.37666
 30
0.0
 11
-0.252181
 21
-1.06109
 31
0.0
  0
LINE
  8
0
 62
     0
 10
-0.252181
 20
-1.06109
 30
0.0
 11
-0.664214
 21
-0.237023
 31
0.0
  0
LINE
  8
0
 62
     0
 10
-0.664214
 20
-0.237023
 30
0.0
 11
-1.09416
 21
1.04042
 31
0.0
  0
LINE
  8
0
 62
     0
 10
-1.09416
 20
1.04042
 30
0.0
 11
-1.3932
 21
2.22553
 31
0.0
  0
LINE
  8
0
 62
     0
 10
-1.3932
 20
2.22553
 30
0.0
 11
-1.47588
 21
3.03168
 31
0.0
  0
LINE
  8
0
 62
     0
 10
-1.47588
 20
3.03168
 30
0.0
 11
-1.45245
 21
3.42167
 31
0.0
  0
LINE
  8
0
 62
     0
 10
-1.45245
 20
3.42167
 30
0.0
 11
-1.305
 21
3.77719
 31
0.0
  0
LINE
  8
0
 62
     0
 10
-1.305
 20
3.77719
 30
0.0
 11
-1.12448
 21
4.27055
 31
0.0
  0
LINE
  8
0
 62
     0
 10
-1.12448
 20
4.27055
 30
0.0
 11
-1.45796
 21
4.80522
 31
0.0
  0
LINE
  8
0
 62
     0
 10
-1.45796
 20
4.80522
 30
0.0
 11
-1.93752
 21
5.48323
 31
0.0
  0
LINE
  8
0
 62
     0
 10
-1.93752
 20
5.48323
 30
0.0
 11
-2.12356
 21
6.12539
 31
0.0
  0
LINE
  8
0
 62
     0
 10
-2.12356
 20
6.12539
 30
0.0
 11
-2.02572
 21
6.86816
 31
0.0
  0
LINE
  8
0
 62
     0
 10
-2.02572
 20
6.86816
 30
0.0
 11
-1.65089
 21
7.8438
 31
0.0
  0
LINE
  8
0
 62
     0
 10
-1.65089
 20
7.8438
 30
0.0
 11
-1.44005
 21
8.31783
 31
0.0
  0
LINE
  8
0
 62
     0
 10
-1.44005
 20
8.31783
 30
0.0
 11
-1.40009
 21
9.46161
 31
0.0
  0
LINE
  8
0
 62
     0
 10
-1.40009
 20
9.46161
 30
0.0
 11
-1.35874
 21
10.3353
 31
0.0
  0
LINE
  8
0
 62
     0
 10
-1.35874
 20
10.3353
 30
0.0
 11
-1.26917
 21
10.8645
 31
0.0
  0
LINE
  8
0
 62
     0
 10
-1.26917
 20
10.8645
 30
0.0
 11
-1.07625
 21
11.2338
 31
0.0
  0
LINE
  8
0
 62
     0
 10
-1.07625
 20
11.2338
 30
0.0
 11
-0.717959
 21
11.6279
 31
0.0
  0
LINE
  8
0
 62
     0
 10
-0.717959
 20
11.6279
 30
0.0
 11
-0.249425
 21
12.1074
 31
0.0
  0
LINE
  8
0
 62
     0
 10
-0.249425
 20
12.1074
 30
0.0
 11
-0.216352
 21
12.7772
 31
0.0
  0
LINE
  8
0
 62
     0
 10
-0.216352
 20
12.7772
 30
0.0
 11
-0.0964629
 21
13.7528
 31
0.0
  0
LINE
  8
0
 62
     0
 10
-0.0964629
 20
13.7528
 30
0.0
 11
0.26734
 21
14.6982
 31
0.0
  0
LINE
  8
0
 62
     0
 10
0.26734
 20
14.6982
 30
0.0
 11
0.496094
 21
15.2218
 31
0.0
  0
LINE
  8
0
 62
     0
 10
0.496094
 20
15.2218
 30
0.0
 11
0.615982
 21
15.6393
 31
0.0
  0
LINE
  8
0
 62
     0
 10
0.615982
 20
15.6393
 30
0.0
 11
0.654569
 21
16.1134
 31
0.0
  0
LINE
  8
0
 62
     0
 10
0.654569
 20
16.1134
 30
0.0
 11
0.640789
 21
16.8065
 31
0.0
  0
LINE
  8
0
 62
     0
 10
0.640789
 20
16.8065
 30
0.0
 11
0.631141
 21
17.6044
 31
0.0
  0
LINE
  8
0
 62
     0
 10
0.631141
 20
17.6044
 30
0.0
 11
0.658703
 21
18.1488
 31
0.0
  0
LINE
  8
0
 62
     0
 10
0.658703
 20
18.1488
 30
0.0
 11
0.712445
 21
18.7454
 31
0.0
  0
LINE
  8
0
 62
     0
 10
0.712445
 20
18.7454
 30
0.0
 11
0.771701
 21
19.6605
 31
0.0
  0
LINE
  8
0
 62
     0
 10
0.771701
 20
19.6605
 30
0.0
 11
0.840602
 21
20.5824
 31
0.0
  0
LINE
  8
0
 62
     0
 10
0.840602
 20
20.5824
 30
0.0
 11
0.919152
 21
21.1928
 31
0.0
  0
LINE
  8
0
 62
     0
 10
0.919152
 20
21.1928
 30
0.0
 11
0.989432
 21
21.8033
 31
0.0
  0
LINE
  8
0
 62
     0
 10
0.989432
 20
21.8033
 30
0.0
 11
1.01975
 21
22.9209
 31
0.0
  0
LINE
  8
0
 62
     0
 10
1.01975
 20
22.9209
 30
0.0
 11
1.0418
 21
23.9145
 31
0.0
  0
LINE
  8
0
 62
     0
 10
1.0418
 20
23.9145
 30
0.0
 11
1.07763
 21
24.423
 31
0.0
  0
LINE
  8
0
 62
     0
 10
1.07763
 20
24.423
 30
0.0
 11
1.2802
 21
24.9094
 31
0.0
  0
LINE
  8
0
 62
     0
 10
1.2802
 20
24.9094
 30
0.0
 11
1.60679
 21
25.6508
 31
0.0
  0
LINE
  8
0
 62
     0
 10
1.60679
 20
25.6508
 30
0.0
 11
1.77216
 21
26.0725
 31
0.0
  0
LINE
  8
0
 62
     0
 10
1.77216
 20
26.0725
 30
0.0
 11
1.77216
 21
27.4767
 31
0.0
  0
LINE
  8
0
 62
     0
 10
1.77216
 20
27.4767
 30
0.0
 11
1.79558
 21
28.7293
 31
0.0
  0
LINE
  8
0
 62
     0
 10
1.79558
 20
28.7293
 30
0.0
 11
1.85484
 21
29.7463
 31
0.0
  0
LINE
  8
0
 62
     0
 10
1.85484
 20
29.7463
 30
0.0
 11
1.92098
 21
30.5649
 31
0.0
  0
LINE
  8
0
 62
     0
 10
1.92098
 20
30.5649
 30
0.0
 11
1.94441
 21
31.2167
 31
0.0
  0
LINE
  8
0
 62
     0
 10
1.94441
 20
31.2167
 30
0.0
 11
1.92236
 21
31.8547
 31
0.0
  0
LINE
  8
0
 62
     0
 10
1.92236
 20
31.8547
 30
0.0
 11
1.8576
 21
32.6251
 31
0.0
  0
LINE
  8
0
 62
     0
 10
1.8576
 20
32.6251
 30
0.0
 11
1.8011
 21
33.2204
 31
0.0
  0
LINE
  8
0
 62
     0
 10
1.8011
 20
33.2204
 30
0.0
 11
1.7818
 21
33.5911
 31
0.0
  0
LINE
  8
0
 62
     0
 10
1.7818
 20
33.5911
 30
0.0
 11
1.79558
 21
33.846
 31
0.0
  0
LINE
  8
0
 62
     0
 10
1.79558
 20
33.846
 30
0.0
 11
1.84244
 21
34.0968
 31
0.0
  0
LINE
  8
0
 62
     0
 10
1.84244
 20
34.0968
 30
0.0
 11
1.90032
 21
34.5336
 31
0.0
  0
LINE
  8
0
 62
     0
 10
1.90032
 20
34.5336
 30
0.0
 11
1.79007
 21
35.1207
 31
0.0
  0
LINE
  8
0
 62
     0
 10
1.79007
 20
35.1207
 30
0.0
 11
1.68121
 21
35.741
 31
0.0
  0
LINE
  8
0
 62
     0
 10
1.68121
 20
35.741
 30
0.0
 11
1.67707
 21
36.3636
 31
0.0
  0
LINE
  8
0
 62
     0
 10
1.67707
 20
36.3636
 30
0.0
 11
1.73082
 21
36.9383
 31
0.0
  0
LINE
  8
0
 62
     0
 10
1.73082
 20
36.9383
 30
0.0
 11
1.90445
 21
37.2565
 31
0.0
  0
LINE
  8
0
 62
     0
 10
1.90445
 20
37.2565
 30
0.0
 11
2.30132
 21
37.404
 31
0.0
  0
LINE
  8
0
 62
     0
 10
2.30132
 20
37.404
 30
0.0
 11
3.02617
 21
37.4646
 31
0.0
  0
LINE
  8
0
 62
     0
 10
3.02617
 20
37.4646
 30
0.0
 11
3.74964
 21
37.5158
 31
0.0
  0
LINE
  8
0
 62
     0
 10
3.74964
 20
37.5158
 30
0.0
 11
4.39455
 21
37.5874
 31
0.0
  0
LINE
  8
0
 62
     0
 10
4.39455
 20
37.5874
 30
0.0
 11
5.44738
 21
37.6975
 31
0.0
  0
LINE
  8
0
 62
     0
 10
5.44738
 20
37.6975
 30
0.0
 11
5.96692
 21
37.67
 31
0.0
  0
LINE
  8
0
 62
     0
 10
5.96692
 20
37.67
 30
0.0
 11
6.39685
 21
37.2773
 31
0.0
  0
LINE
  8
0
 62
     0
 10
6.39685
 20
37.2773
 30
0.0
 11
6.62975
 21
36.9327
 31
0.0
  0
LINE
  8
0
 62
     0
 10
6.62975
 20
36.9327
 30
0.0
 11
6.78684
 21
36.66
 31
0.0
  0
LINE
  8
0
 62
     0
 10
6.78684
 20
36.66
 30
0.0
 11
7.15063
 21
36.7425
 31
0.0
  0
LINE
  8
0
 62
     0
 10
7.15063
 20
36.7425
 30
0.0
 11
7.73769
 21
36.8226
 31
0.0
  0
LINE
  8
0
 62
     0
 10
7.73769
 20
36.8226
 30
0.0
 11
8.30132
 21
36.7358
 31
0.0
  0
LINE
  8
0
 62
     0
 10
8.30132
 20
36.7358
 30
0.0
 11
8.93106
 21
36.5495
 31
0.0
  0
LINE
  8
0
 62
     0
 10
8.93106
 20
36.5495
 30
0.0
 11
9.46848
 21
36.2148
 31
0.0
  0
LINE
  8
0
 62
     0
 10
9.46848
 20
36.2148
 30
0.0
 11
10.0803
 21
35.6941
 31
0.0
  0
LINE
  8
0
 62
     0
 10
10.0803
 20
35.6941
 30
0.0
 11
10.4207
 21
35.2944
 31
0.0
  0
LINE
  8
0
 62
     0
 10
10.4207
 20
35.2944
 30
0.0
 11
10.6619
 21
34.8161
 31
0.0
  0
LINE
  8
0
 62
     0
 10
10.6619
 20
34.8161
 30
0.0
 11
10.8562
 21
34.1257
 31
0.0
  0
LINE
  8
0
 62
     0
 10
10.8562
 20
34.1257
 30
0.0
 11
11.0505
 21
33.0895
 31
0.0
  0
LINE
  8
0
 62
     0
 10
11.0505
 20
33.0895
 30
0.0
 11
11.1635
 21
32.4583
 31
0.0
  0
LINE
  8
0
 62
     0
 10
11.1635
 20
32.4583
 30
0.0
 11
11.253
 21
32.078
 31
0.0
  0
LINE
  8
0
 62
     0
 10
11.253
 20
32.078
 30
0.0
 11
11.3482
 21
31.8575
 31
0.0
  0
LINE
  8
0
 62
     0
 10
11.3482
 20
31.8575
 30
0.0
 11
11.4791
 21
31.6976
 31
0.0
  0
LINE
  8
0
 62
     0
 10
11.4791
 20
31.6976
 30
0.0
 11
12.1695
 21
31.3669
 31
0.0
  0
LINE
  8
0
 62
     0
 10
12.1695
 20
31.3669
 30
0.0
 11
13.1423
 21
31.1602
 31
0.0
  0
LINE
  8
0
 62
     0
 10
13.1423
 20
31.1602
 30
0.0
 11
13.5006
 21
31.1602
 31
0.0
  0
LINE
  8
0
 62
     0
 10
13.5006
 20
31.1602
 30
0.0
 11
13.8465
 21
31.2429
 31
0.0
  0
LINE
  8
0
 62
     0
 10
13.8465
 20
31.2429
 30
0.0
 11
14.2916
 21
31.4524
 31
0.0
  0
LINE
  8
0
 62
     0
 10
14.2916
 20
31.4524
 30
0.0
 11
14.9448
 21
31.8299
 31
0.0
  0
LINE
  8
0
 62
     0
 10
14.9448
 20
31.8299
 30
0.0
 11
15.5608
 21
32.1813
 31
0.0
  0
LINE
  8
0
 62
     0
 10
15.5608
 20
32.1813
 30
0.0
 11
16.0252
 21
32.3784
 31
0.0
  0
LINE
  8
0
 62
     0
 10
16.0252
 20
32.3784
 30
0.0
 11
16.4455
 21
32.4556
 31
0.0
  0
LINE
  8
0
 62
     0
 10
16.4455
 20
32.4556
 30
0.0
 11
16.9361
 21
32.4473
 31
0.0
  0
LINE
  8
0
 62
     0
 10
16.9361
 20
32.4473
 30
0.0
 11
17.4597
 21
32.4431
 31
0.0
  0
LINE
  8
0
 62
     0
 10
17.4597
 20
32.4431
 30
0.0
 11
17.9517
 21
32.5644
 31
0.0
  0
LINE
  8
0
 62
     0
 10
17.9517
 20
32.5644
 30
0.0
 11
18.4354
 21
32.7133
 31
0.0
  0
LINE
  8
0
 62
     0
 10
18.4354
 20
32.7133
 30
0.0
 11
19.2305
 21
32.5644
 31
0.0
  0
LINE
  8
0
 62
     0
 10
19.2305
 20
32.5644
 30
0.0
 11
19.9182
 21
32.4266
 31
0.0
  0
LINE
  8
0
 62
     0
 10
19.9182
 20
32.4266
 30
0.0
 11
20.4542
 21
32.3067
 31
0.0
  0
LINE
  8
0
 62
     0
 10
20.4542
 20
32.3067
 30
0.0
 11
21.3872
 21
32.1703
 31
0.0
  0
LINE
  8
0
 62
     0
 10
21.3872
 20
32.1703
 30
0.0
 11
22.3821
 21
32.1882
 31
0.0
  0
LINE
  8
0
 62
     0
 10
22.3821
 20
32.1882
 30
0.0
 11
22.8878
 21
32.275
 31
0.0
  0
LINE
  8
0
 62
     0
 10
22.8878
 20
32.275
 30
0.0
 11
23.3577
 21
32.5093
 31
0.0
  0
LINE
  8
0
 62
     0
 10
23.3577
 20
32.5093
 30
0.0
 11
23.7725
 21
32.7174
 31
0.0
  0
LINE
  8
0
 62
     0
 10
23.7725
 20
32.7174
 30
0.0
 11
24.1749
 21
32.807
 31
0.0
  0
LINE
  8
0
 62
     0
 10
24.1749
 20
32.807
 30
0.0
 11
24.6683
 21
32.7877
 31
0.0
  0
LINE
  8
0
 62
     0
 10
24.6683
 20
32.7877
 30
0.0
 11
25.3545
 21
32.6678
 31
0.0
  0
LINE
  8
0
 62
     0
 10
25.3545
 20
32.6678
 30
0.0
 11
26.0325
 21
32.5493
 31
0.0
  0
LINE
  8
0
 62
     0
 10
26.0325
 20
32.5493
 30
0.0
 11
26.3701
 21
32.5754
 31
0.0
  0
LINE
  8
0
 62
     0
 10
26.3701
 20
32.5754
 30
0.0
 11
27.2383
 21
32.8566
 31
0.0
  0
LINE
  8
0
 62
     0
 10
27.2383
 20
32.8566
 30
0.0
 11
28.4689
 21
33.3017
 31
0.0
  0
LINE
  8
0
 62
     0
 10
28.4689
 20
33.3017
 30
0.0
 11
29.6747
 21
33.7675
 31
0.0
  0
LINE
  8
0
 62
     0
 10
29.6747
 20
33.7675
 30
0.0
 11
30.4698
 21
34.1092
 31
0.0
  0
LINE
  8
0
 62
     0
 10
30.4698
 20
34.1092
 30
0.0
 11
31.1616
 21
34.4579
 31
0.0
  0
LINE
  8
0
 62
     0
 10
31.1616
 20
34.4579
 30
0.0
 11
32.5038
 21
34.4882
 31
0.0
  0
LINE
  8
0
 62
     0
 10
32.5038
 20
34.4882
 30
0.0
 11
33.332
 21
34.513
 31
0.0
  0
LINE
  8
0
 62
     0
 10
33.332
 20
34.513
 30
0.0
 11
33.8198
 21
34.5571
 31
0.0
  0
LINE
  8
0
 62
     0
 10
33.8198
 20
34.5571
 30
0.0
 11
34.1657
 21
34.6577
 31
0.0
  0
LINE
  8
0
 62
     0
 10
34.1657
 20
34.6577
 30
0.0
 11
34.5722
 21
34.8492
 31
0.0
  0
LINE
  8
0
 62
     0
 10
34.5722
 20
34.8492
 30
0.0
 11
35.5205
 21
35.1303
 31
0.0
  0
LINE
  8
0
 62
     0
 10
35.5205
 20
35.1303
 30
0.0
 11
36.4712
 21
35.2075
 31
0.0
  0
LINE
  8
0
 62
     0
 10
36.4712
 20
35.2075
 30
0.0
 11
38.2693
 21
35.2654
 31
0.0
  0
LINE
  8
0
 62
     0
 10
38.2693
 20
35.2654
 30
0.0
 11
41.0062
 21
35.3053
 31
0.0
  0
LINE
  8
0
 62
     0
 10
41.0062
 20
35.3053
 30
0.0
 11
44.771
 21
35.3289
 31
0.0
  0
LINE
  8
0
 62
     0
 10
44.771
 20
35.3289
 30
0.0
 11
46.5116
 21
35.3385
 31
0.0
  0
LINE
  8
0
 62
     0
 10
46.5116
 20
35.3385
 30
0.0
 11
47.7806
 21
35.3413
 31
0.0
  0
LINE
  8
0
 62
     0
 10
47.7806
 20
35.3413
 30
0.0
 11
48.6586
 21
35.3289
 31
0.0
  0
LINE
  8
0
 62
     0
 10
48.6586
 20
35.3289
 30
0.0
 11
49.2234
 21
35.2887
 31
0.0
  0
LINE
  8
0
 62
     0
 10
49.2234
 20
35.2887
 30
0.0
 11
49.5558
 21
35.2144
 31
0.0
  0
LINE
  8
0
 62
     0
 10
49.5558
 20
35.2144
 30
0.0
 11
49.7346
 21
35.0945
 31
0.0
  0
LINE
  8
0
 62
     0
 10
49.7346
 20
35.0945
 30
0.0
 11
49.8408
 21
34.9181
 31
0.0
  0
LINE
  8
0
 62
     0
 10
49.8408
 20
34.9181
 30
0.0
 11
49.9526
 21
34.6742
 31
0.0
  0
LINE
  8
0
 62
     0
 10
49.9526
 20
34.6742
 30
0.0
 11
50.322
 21
34.0734
 31
0.0
  0
LINE
  8
0
 62
     0
 10
50.322
 20
34.0734
 30
0.0
 11
50.7559
 21
33.5704
 31
0.0
  0
LINE
  8
0
 62
     0
 10
50.7559
 20
33.5704
 30
0.0
 11
51.1912
 21
33.2231
 31
0.0
  0
LINE
  8
0
 62
     0
 10
51.1912
 20
33.2231
 30
0.0
 11
51.5691
 21
33.0895
 31
0.0
  0
LINE
  8
0
 62
     0
 10
51.5691
 20
33.0895
 30
0.0
 11
51.9384
 21
32.9682
 31
0.0
  0
LINE
  8
0
 62
     0
 10
51.9384
 20
32.9682
 30
0.0
 11
52.2471
 21
32.7229
 31
0.0
  0
LINE
  8
0
 62
     0
 10
52.2471
 20
32.7229
 30
0.0
 11
52.3861
 21
32.4501
 31
0.0
  0
LINE
  8
0
 62
     0
 10
52.3861
 20
32.4501
 30
0.0
 11
52.5625
 21
32.0187
 31
0.0
  0
LINE
  8
0
 62
     0
 10
52.5625
 20
32.0187
 30
0.0
 11
52.7265
 21
31.5088
 31
0.0
  0
LINE
  8
0
 62
     0
 10
52.7265
 20
31.5088
 30
0.0
 11
52.7678
 21
31.0954
 31
0.0
  0
LINE
  8
0
 62
     0
 10
52.7678
 20
31.0954
 30
0.0
 11
52.7417
 21
30.7413
 31
0.0
  0
LINE
  8
0
 62
     0
 10
52.7417
 20
30.7413
 30
0.0
 11
52.6302
 21
30.3458
 31
0.0
  0
LINE
  8
0
 62
     0
 10
52.6302
 20
30.3458
 30
0.0
 11
52.3794
 21
29.7684
 31
0.0
  0
LINE
  8
0
 62
     0
 10
52.3794
 20
29.7684
 30
0.0
 11
51.9384
 21
28.8685
 31
0.0
  0
LINE
  8
0
 62
     0
 10
51.9384
 20
28.8685
 30
0.0
 11
51.6061
 21
28.1974
 31
0.0
  0
LINE
  8
0
 62
     0
 10
51.6061
 20
28.1974
 30
0.0
 11
51.4117
 21
27.7647
 31
0.0
  0
LINE
  8
0
 62
     0
 10
51.4117
 20
27.7647
 30
0.0
 11
51.3084
 21
27.4657
 31
0.0
  0
LINE
  8
0
 62
     0
 10
51.3084
 20
27.4657
 30
0.0
 11
51.259
 21
27.1984
 31
0.0
  0
LINE
  8
0
 62
     0
 10
51.259
 20
27.1984
 30
0.0
 11
51.0783
 21
26.4129
 31
0.0
  0
LINE
  8
0
 62
     0
 10
51.0783
 20
26.4129
 30
0.0
 11
50.6469
 21
25.8423
 31
0.0
  0
LINE
  8
0
 62
     0
 10
50.6469
 20
25.8423
 30
0.0
 11
50.2405
 21
25.3201
 31
0.0
  0
LINE
  8
0
 62
     0
 10
50.2405
 20
25.3201
 30
0.0
 11
50.1481
 21
24.7413
 31
0.0
  0
LINE
  8
0
 62
     0
 10
50.1481
 20
24.7413
 30
0.0
 11
50.1234
 21
24.4836
 31
0.0
  0
LINE
  8
0
 62
     0
 10
50.1234
 20
24.4836
 30
0.0
 11
50.0271
 21
24.2287
 31
0.0
  0
LINE
  8
0
 62
     0
 10
50.0271
 20
24.2287
 30
0.0
 11
49.8242
 21
23.9062
 31
0.0
  0
LINE
  8
0
 62
     0
 10
49.8242
 20
23.9062
 30
0.0
 11
49.4785
 21
23.4473
 31
0.0
  0
LINE
  8
0
 62
     0
 10
49.4785
 20
23.4473
 30
0.0
 11
49.1465
 21
23.0119
 31
0.0
  0
LINE
  8
0
 62
     0
 10
49.1465
 20
23.0119
 30
0.0
 11
48.992
 21
22.7803
 31
0.0
  0
LINE
  8
0
 62
     0
 10
48.992
 20
22.7803
 30
0.0
 11
48.6862
 21
22.1423
 31
0.0
  0
LINE
  8
0
 62
     0
 10
48.6862
 20
22.1423
 30
0.0
 11
48.2618
 21
21.5084
 31
0.0
  0
LINE
  8
0
 62
     0
 10
48.2618
 20
21.5084
 30
0.0
 11
47.8744
 21
20.9159
 31
0.0
  0
LINE
  8
0
 62
     0
 10
47.8744
 20
20.9159
 30
0.0
 11
47.8275
 21
20.315
 31
0.0
  0
LINE
  8
0
 62
     0
 10
47.8275
 20
20.315
 30
0.0
 11
47.8801
 21
19.9223
 31
0.0
  0
LINE
  8
0
 62
     0
 10
47.8801
 20
19.9223
 30
0.0
 11
48.0124
 21
19.6522
 31
0.0
  0
LINE
  8
0
 62
     0
 10
48.0124
 20
19.6522
 30
0.0
 11
48.2935
 21
19.4166
 31
0.0
  0
LINE
  8
0
 62
     0
 10
48.2935
 20
19.4166
 30
0.0
 11
48.7938
 21
19.1286
 31
0.0
  0
LINE
  8
0
 62
     0
 10
48.7938
 20
19.1286
 30
0.0
 11
49.2912
 21
18.8557
 31
0.0
  0
LINE
  8
0
 62
     0
 10
49.2912
 20
18.8557
 30
0.0
 11
49.59
 21
18.6655
 31
0.0
  0
LINE
  8
0
 62
     0
 10
49.59
 20
18.6655
 30
0.0
 11
49.754
 21
18.5098
 31
0.0
  0
LINE
  8
0
 62
     0
 10
49.754
 20
18.5098
 30
0.0
 11
49.8493
 21
18.3389
 31
0.0
  0
LINE
  8
0
 62
     0
 10
49.8493
 20
18.3389
 30
0.0
 11
49.7336
 21
17.3784
 31
0.0
  0
LINE
  8
0
 62
     0
 10
49.7336
 20
17.3784
 30
0.0
 11
49.5406
 21
17.0904
 31
0.0
  0
LINE
  8
0
 62
     0
 10
49.5406
 20
17.0904
 30
0.0
 11
49.6782
 21
16.8341
 31
0.0
  0
LINE
  8
0
 62
     0
 10
49.6782
 20
16.8341
 30
0.0
 11
49.8052
 21
16.1961
 31
0.0
  0
LINE
  8
0
 62
     0
 10
49.8052
 20
16.1961
 30
0.0
 11
49.47
 21
15.5305
 31
0.0
  0
LINE
  8
0
 62
     0
 10
49.47
 20
15.5305
 30
0.0
 11
49.3571
 21
15.3927
 31
0.0
  0
LINE
  8
0
 62
     0
 10
49.3571
 20
15.3927
 30
0.0
 11
49.2746
 21
15.2177
 31
0.0
  0
LINE
  8
0
 62
     0
 10
49.2746
 20
15.2177
 30
0.0
 11
49.2167
 21
14.8911
 31
0.0
  0
LINE
  8
0
 62
     0
 10
49.2167
 20
14.8911
 30
0.0
 11
49.1793
 21
14.2958
 31
0.0
  0
LINE
  8
0
 62
     0
 10
49.1793
 20
14.2958
 30
0.0
 11
49.1575
 21
13.3174
 31
0.0
  0
LINE
  8
0
 62
     0
 10
49.1575
 20
13.3174
 30
0.0
 11
49.1476
 21
11.8401
 31
0.0
  0
LINE
  8
0
 62
     0
 10
49.1476
 20
11.8401
 30
0.0
 11
49.1451
 21
9.74961
 31
0.0
  0
LINE
  8
0
 62
     0
 10
49.1451
 20
9.74961
 30
0.0
 11
49.1451
 21
6.92877
 31
0.0
  0
LINE
  8
0
 62
     0
 10
49.1451
 20
6.92877
 30
0.0
 11
49.1423
 21
2.51768
 31
0.0
  0
LINE
  8
0
 62
     0
 10
49.1423
 20
2.51768
 30
0.0
 11
49.1314
 21
0.148828
 31
0.0
  0
LINE
  8
0
 62
     0
 10
49.1314
 20
0.148828
 30
0.0
 11
49.101
 21
-0.837847
 31
0.0
  0
LINE
  8
0
 62
     0
 10
49.101
 20
-0.837847
 30
0.0
 11
49.0442
 21
-1.10105
 31
0.0
  0
LINE
  8
0
 62
     0
 10
49.0442
 20
-1.10105
 30
0.0
 11
48.7056
 21
-1.39182
 31
0.0
  0
LINE
  8
0
 62
     0
 10
48.7056
 20
-1.39182
 30
0.0
 11
48.4671
 21
-1.51722
 31
0.0
  0
LINE
  8
0
 62
     0
 10
48.4671
 20
-1.51722
 30
0.0
 11
24.3816
 21
-1.51446
 31
0.0
  0
LINE
  8
0
 62
     0
 10
24.3816
 20
-1.51446
 30
0.0
 11
0.297656
 21
-1.51171
 31
0.0
  0
LINE
  8
0
 62
     0
 10
0.297656
 20
-1.51171
 30
0.0
 11
0.0923286
 21
-1.37666
 31
0.0
  0
ENDSEC
  0
EOF
