  0
SECTION
  2
HEADER
  9
$ACADVER
  1
AC1009
  9
$EXTMIN
 10
0.0
 20
0.0
 30
0.0
  9
$EXTMAX
 10
1000.0
 20
1000.0
 30
0.0
  9
$FILLMODE
 70
 0
  9
$SPLFRAME
 70
 1
  0
ENDSEC
  0
SECTION
  2
TABLES
  0
TABLE
  2
LAYER
 70
1
  0
LAYER
  2
0
 70
     0
 62
     7
  6
CONTINUOUS
  0
ENDTAB
  0
ENDSEC
  0
SECTION
  2
ENTITIES
  0
LINE
  8
0
 62
     0
 10
2.04639
 20
0.130914
 30
0.0
 11
1.72806
 21
0.421679
 31
0.0
  0
LINE
  8
0
 62
     0
 10
1.72806
 20
0.421679
 30
0.0
 11
1.34772
 21
1.18236
 31
0.0
  0
LINE
  8
0
 62
     0
 10
1.34772
 20
1.18236
 30
0.0
 11
0.950846
 21
2.36058
 31
0.0
  0
LINE
  8
0
 62
     0
 10
0.950846
 20
2.36058
 30
0.0
 11
0.676617
 21
3.45474
 31
0.0
  0
LINE
  8
0
 62
     0
 10
0.676617
 20
3.45474
 30
0.0
 11
0.598068
 21
4.19749
 31
0.0
  0
LINE
  8
0
 62
     0
 10
0.598068
 20
4.19749
 30
0.0
 11
0.621496
 21
4.55718
 31
0.0
  0
LINE
  8
0
 62
     0
 10
0.621496
 20
4.55718
 30
0.0
 11
0.756543
 21
4.88654
 31
0.0
  0
LINE
  8
0
 62
     0
 10
0.756543
 20
4.88654
 30
0.0
 11
0.923286
 21
5.34127
 31
0.0
  0
LINE
  8
0
 62
     0
 10
0.923286
 20
5.34127
 30
0.0
 11
0.615982
 21
5.83463
 31
0.0
  0
LINE
  8
0
 62
     0
 10
0.615982
 20
5.83463
 30
0.0
 11
0.173633
 21
6.45887
 31
0.0
  0
LINE
  8
0
 62
     0
 10
0.173633
 20
6.45887
 30
0.0
 11
0.00137804
 21
7.0528
 31
0.0
  0
LINE
  8
0
 62
     0
 10
0.00137804
 20
7.0528
 30
0.0
 11
0.0923286
 21
7.73769
 31
0.0
  0
LINE
  8
0
 62
     0
 10
0.0923286
 20
7.73769
 30
0.0
 11
0.438217
 21
8.63755
 31
0.0
  0
LINE
  8
0
 62
     0
 10
0.438217
 20
8.63755
 30
0.0
 11
0.63252
 21
9.0744
 31
0.0
  0
LINE
  8
0
 62
     0
 10
0.63252
 20
9.0744
 30
0.0
 11
0.669727
 21
10.1299
 31
0.0
  0
LINE
  8
0
 62
     0
 10
0.669727
 20
10.1299
 30
0.0
 11
0.708311
 21
10.9361
 31
0.0
  0
LINE
  8
0
 62
     0
 10
0.708311
 20
10.9361
 30
0.0
 11
0.789615
 21
11.4239
 31
0.0
  0
LINE
  8
0
 62
     0
 10
0.789615
 20
11.4239
 30
0.0
 11
0.96876
 21
11.7643
 31
0.0
  0
LINE
  8
0
 62
     0
 10
0.96876
 20
11.7643
 30
0.0
 11
1.29811
 21
12.1281
 31
0.0
  0
LINE
  8
0
 62
     0
 10
1.29811
 20
12.1281
 30
0.0
 11
1.73082
 21
12.5718
 31
0.0
  0
LINE
  8
0
 62
     0
 10
1.73082
 20
12.5718
 30
0.0
 11
1.76113
 21
13.1892
 31
0.0
  0
LINE
  8
0
 62
     0
 10
1.76113
 20
13.1892
 30
0.0
 11
1.87138
 21
14.0891
 31
0.0
  0
LINE
  8
0
 62
     0
 10
1.87138
 20
14.0891
 30
0.0
 11
2.20762
 21
14.9614
 31
0.0
  0
LINE
  8
0
 62
     0
 10
2.20762
 20
14.9614
 30
0.0
 11
2.41846
 21
15.4437
 31
0.0
  0
LINE
  8
0
 62
     0
 10
2.41846
 20
15.4437
 30
0.0
 11
2.5287
 21
15.8282
 31
0.0
  0
LINE
  8
0
 62
     0
 10
2.5287
 20
15.8282
 30
0.0
 11
2.56453
 21
16.2664
 31
0.0
  0
LINE
  8
0
 62
     0
 10
2.56453
 20
16.2664
 30
0.0
 11
2.55213
 21
16.9058
 31
0.0
  0
LINE
  8
0
 62
     0
 10
2.55213
 20
16.9058
 30
0.0
 11
2.54248
 21
17.643
 31
0.0
  0
LINE
  8
0
 62
     0
 10
2.54248
 20
17.643
 30
0.0
 11
2.56866
 21
18.1446
 31
0.0
  0
LINE
  8
0
 62
     0
 10
2.56866
 20
18.1446
 30
0.0
 11
2.61827
 21
18.6945
 31
0.0
  0
LINE
  8
0
 62
     0
 10
2.61827
 20
18.6945
 30
0.0
 11
2.6734
 21
19.5392
 31
0.0
  0
LINE
  8
0
 62
     0
 10
2.6734
 20
19.5392
 30
0.0
 11
2.73541
 21
20.3895
 31
0.0
  0
LINE
  8
0
 62
     0
 10
2.73541
 20
20.3895
 30
0.0
 11
2.80844
 21
20.9531
 31
0.0
  0
LINE
  8
0
 62
     0
 10
2.80844
 20
20.9531
 30
0.0
 11
2.87321
 21
21.5153
 31
0.0
  0
LINE
  8
0
 62
     0
 10
2.87321
 20
21.5153
 30
0.0
 11
2.90215
 21
22.5475
 31
0.0
  0
LINE
  8
0
 62
     0
 10
2.90215
 20
22.5475
 30
0.0
 11
2.92282
 21
23.4639
 31
0.0
  0
LINE
  8
0
 62
     0
 10
2.92282
 20
23.4639
 30
0.0
 11
2.95589
 21
23.9338
 31
0.0
  0
LINE
  8
0
 62
     0
 10
2.95589
 20
23.9338
 30
0.0
 11
3.14193
 21
24.3816
 31
0.0
  0
LINE
  8
0
 62
     0
 10
3.14193
 20
24.3816
 30
0.0
 11
3.44372
 21
25.0651
 31
0.0
  0
LINE
  8
0
 62
     0
 10
3.44372
 20
25.0651
 30
0.0
 11
3.5953
 21
25.4551
 31
0.0
  0
LINE
  8
0
 62
     0
 10
3.5953
 20
25.4551
 30
0.0
 11
3.5953
 21
26.7505
 31
0.0
  0
LINE
  8
0
 62
     0
 10
3.5953
 20
26.7505
 30
0.0
 11
3.61735
 21
27.9053
 31
0.0
  0
LINE
  8
0
 62
     0
 10
3.61735
 20
27.9053
 30
0.0
 11
3.67249
 21
28.8437
 31
0.0
  0
LINE
  8
0
 62
     0
 10
3.67249
 20
28.8437
 30
0.0
 11
3.75514
 21
30.2011
 31
0.0
  0
LINE
  8
0
 62
     0
 10
3.75514
 20
30.2011
 30
0.0
 11
3.67524
 21
31.4992
 31
0.0
  0
LINE
  8
0
 62
     0
 10
3.67524
 20
31.4992
 30
0.0
 11
3.60497
 21
32.3908
 31
0.0
  0
LINE
  8
0
 62
     0
 10
3.60497
 20
32.3908
 30
0.0
 11
3.66145
 21
32.8566
 31
0.0
  0
LINE
  8
0
 62
     0
 10
3.66145
 20
32.8566
 30
0.0
 11
3.71521
 21
33.2603
 31
0.0
  0
LINE
  8
0
 62
     0
 10
3.71521
 20
33.2603
 30
0.0
 11
3.61322
 21
33.8033
 31
0.0
  0
LINE
  8
0
 62
     0
 10
3.61322
 20
33.8033
 30
0.0
 11
3.51124
 21
34.3738
 31
0.0
  0
LINE
  8
0
 62
     0
 10
3.51124
 20
34.3738
 30
0.0
 11
3.50848
 21
34.9484
 31
0.0
  0
LINE
  8
0
 62
     0
 10
3.50848
 20
34.9484
 30
0.0
 11
3.55808
 21
35.4789
 31
0.0
  0
LINE
  8
0
 62
     0
 10
3.55808
 20
35.4789
 30
0.0
 11
3.71934
 21
35.7724
 31
0.0
  0
LINE
  8
0
 62
     0
 10
3.71934
 20
35.7724
 30
0.0
 11
4.0845
 21
35.9089
 31
0.0
  0
LINE
  8
0
 62
     0
 10
4.0845
 20
35.9089
 30
0.0
 11
4.75287
 21
35.9639
 31
0.0
  0
LINE
  8
0
 62
     0
 10
4.75287
 20
35.9639
 30
0.0
 11
5.41983
 21
36.0123
 31
0.0
  0
LINE
  8
0
 62
     0
 10
5.41983
 20
36.0123
 30
0.0
 11
6.01514
 21
36.0772
 31
0.0
  0
LINE
  8
0
 62
     0
 10
6.01514
 20
36.0772
 30
0.0
 11
6.98528
 21
36.1791
 31
0.0
  0
LINE
  8
0
 62
     0
 10
6.98528
 20
36.1791
 30
0.0
 11
7.46485
 21
36.1527
 31
0.0
  0
LINE
  8
0
 62
     0
 10
7.46485
 20
36.1527
 30
0.0
 11
7.86172
 21
35.7918
 31
0.0
  0
LINE
  8
0
 62
     0
 10
7.86172
 20
35.7918
 30
0.0
 11
8.07805
 21
35.4736
 31
0.0
  0
LINE
  8
0
 62
     0
 10
8.07805
 20
35.4736
 30
0.0
 11
8.22138
 21
35.2227
 31
0.0
  0
LINE
  8
0
 62
     0
 10
8.22138
 20
35.2227
 30
0.0
 11
8.55761
 21
35.2986
 31
0.0
  0
LINE
  8
0
 62
     0
 10
8.55761
 20
35.2986
 30
0.0
 11
9.0992
 21
35.3716
 31
0.0
  0
LINE
  8
0
 62
     0
 10
9.0992
 20
35.3716
 30
0.0
 11
9.62007
 21
35.2915
 31
0.0
  0
LINE
  8
0
 62
     0
 10
9.62007
 20
35.2915
 30
0.0
 11
10.2003
 21
35.1207
 31
0.0
  0
LINE
  8
0
 62
     0
 10
10.2003
 20
35.1207
 30
0.0
 11
10.6963
 21
34.812
 31
0.0
  0
LINE
  8
0
 62
     0
 10
10.6963
 20
34.812
 30
0.0
 11
11.2613
 21
34.3297
 31
0.0
  0
LINE
  8
0
 62
     0
 10
11.2613
 20
34.3297
 30
0.0
 11
11.5741
 21
33.9617
 31
0.0
  0
LINE
  8
0
 62
     0
 10
11.5741
 20
33.9617
 30
0.0
 11
11.7974
 21
33.5208
 31
0.0
  0
LINE
  8
0
 62
     0
 10
11.7974
 20
33.5208
 30
0.0
 11
11.9765
 21
32.8841
 31
0.0
  0
LINE
  8
0
 62
     0
 10
11.9765
 20
32.8841
 30
0.0
 11
12.1557
 21
31.9291
 31
0.0
  0
LINE
  8
0
 62
     0
 10
12.1557
 20
31.9291
 30
0.0
 11
12.259
 21
31.3449
 31
0.0
  0
LINE
  8
0
 62
     0
 10
12.259
 20
31.3449
 30
0.0
 11
12.3417
 21
30.9948
 31
0.0
  0
LINE
  8
0
 62
     0
 10
12.3417
 20
30.9948
 30
0.0
 11
12.4299
 21
30.7909
 31
0.0
  0
LINE
  8
0
 62
     0
 10
12.4299
 20
30.7909
 30
0.0
 11
12.5512
 21
30.6448
 31
0.0
  0
LINE
  8
0
 62
     0
 10
12.5512
 20
30.6448
 30
0.0
 11
13.1892
 21
30.3389
 31
0.0
  0
LINE
  8
0
 62
     0
 10
13.1892
 20
30.3389
 30
0.0
 11
14.0863
 21
30.1473
 31
0.0
  0
LINE
  8
0
 62
     0
 10
14.0863
 20
30.1473
 30
0.0
 11
14.4157
 21
30.1473
 31
0.0
  0
LINE
  8
0
 62
     0
 10
14.4157
 20
30.1473
 30
0.0
 11
14.7354
 21
30.2245
 31
0.0
  0
LINE
  8
0
 62
     0
 10
14.7354
 20
30.2245
 30
0.0
 11
15.1446
 21
30.4188
 31
0.0
  0
LINE
  8
0
 62
     0
 10
15.1446
 20
30.4188
 30
0.0
 11
15.7482
 21
30.7661
 31
0.0
  0
LINE
  8
0
 62
     0
 10
15.7482
 20
30.7661
 30
0.0
 11
16.316
 21
31.0899
 31
0.0
  0
LINE
  8
0
 62
     0
 10
16.316
 20
31.0899
 30
0.0
 11
16.7445
 21
31.2718
 31
0.0
  0
LINE
  8
0
 62
     0
 10
16.7445
 20
31.2718
 30
0.0
 11
17.1331
 21
31.3435
 31
0.0
  0
LINE
  8
0
 62
     0
 10
17.1331
 20
31.3435
 30
0.0
 11
17.5852
 21
31.3366
 31
0.0
  0
LINE
  8
0
 62
     0
 10
17.5852
 20
31.3366
 30
0.0
 11
18.0674
 21
31.3325
 31
0.0
  0
LINE
  8
0
 62
     0
 10
18.0674
 20
31.3325
 30
0.0
 11
18.5222
 21
31.4427
 31
0.0
  0
LINE
  8
0
 62
     0
 10
18.5222
 20
31.4427
 30
0.0
 11
18.9687
 21
31.5819
 31
0.0
  0
LINE
  8
0
 62
     0
 10
18.9687
 20
31.5819
 30
0.0
 11
19.7018
 21
31.4427
 31
0.0
  0
LINE
  8
0
 62
     0
 10
19.7018
 20
31.4427
 30
0.0
 11
20.3357
 21
31.3159
 31
0.0
  0
LINE
  8
0
 62
     0
 10
20.3357
 20
31.3159
 30
0.0
 11
20.8304
 21
31.2057
 31
0.0
  0
LINE
  8
0
 62
     0
 10
20.8304
 20
31.2057
 30
0.0
 11
21.6917
 21
31.0789
 31
0.0
  0
LINE
  8
0
 62
     0
 10
21.6917
 20
31.0789
 30
0.0
 11
22.6095
 21
31.0954
 31
0.0
  0
LINE
  8
0
 62
     0
 10
22.6095
 20
31.0954
 30
0.0
 11
23.0766
 21
31.1767
 31
0.0
  0
LINE
  8
0
 62
     0
 10
23.0766
 20
31.1767
 30
0.0
 11
23.5093
 21
31.3931
 31
0.0
  0
LINE
  8
0
 62
     0
 10
23.5093
 20
31.3931
 30
0.0
 11
23.8924
 21
31.5847
 31
0.0
  0
LINE
  8
0
 62
     0
 10
23.8924
 20
31.5847
 30
0.0
 11
24.2645
 21
31.6673
 31
0.0
  0
LINE
  8
0
 62
     0
 10
24.2645
 20
31.6673
 30
0.0
 11
24.7179
 21
31.6508
 31
0.0
  0
LINE
  8
0
 62
     0
 10
24.7179
 20
31.6508
 30
0.0
 11
25.3518
 21
31.5391
 31
0.0
  0
LINE
  8
0
 62
     0
 10
25.3518
 20
31.5391
 30
0.0
 11
25.9774
 21
31.4303
 31
0.0
  0
LINE
  8
0
 62
     0
 10
25.9774
 20
31.4303
 30
0.0
 11
26.2888
 21
31.4551
 31
0.0
  0
LINE
  8
0
 62
     0
 10
26.2888
 20
31.4551
 30
0.0
 11
27.0895
 21
31.7142
 31
0.0
  0
LINE
  8
0
 62
     0
 10
27.0895
 20
31.7142
 30
0.0
 11
28.225
 21
32.1248
 31
0.0
  0
LINE
  8
0
 62
     0
 10
28.225
 20
32.1248
 30
0.0
 11
29.3384
 21
32.5548
 31
0.0
  0
LINE
  8
0
 62
     0
 10
29.3384
 20
32.5548
 30
0.0
 11
30.0716
 21
32.869
 31
0.0
  0
LINE
  8
0
 62
     0
 10
30.0716
 20
32.869
 30
0.0
 11
30.7082
 21
33.19
 31
0.0
  0
LINE
  8
0
 62
     0
 10
30.7082
 20
33.19
 30
0.0
 11
31.9471
 21
33.219
 31
0.0
  0
LINE
  8
0
 62
     0
 10
31.9471
 20
33.219
 30
0.0
 11
32.7119
 21
33.2411
 31
0.0
  0
LINE
  8
0
 62
     0
 10
32.7119
 20
33.2411
 30
0.0
 11
33.1611
 21
33.2824
 31
0.0
  0
LINE
  8
0
 62
     0
 10
33.1611
 20
33.2824
 30
0.0
 11
33.4808
 21
33.3747
 31
0.0
  0
LINE
  8
0
 62
     0
 10
33.4808
 20
33.3747
 30
0.0
 11
33.8557
 21
33.5511
 31
0.0
  0
LINE
  8
0
 62
     0
 10
33.8557
 20
33.5511
 30
0.0
 11
34.7307
 21
33.8116
 31
0.0
  0
LINE
  8
0
 62
     0
 10
34.7307
 20
33.8116
 30
0.0
 11
35.6073
 21
33.8818
 31
0.0
  0
LINE
  8
0
 62
     0
 10
35.6073
 20
33.8818
 30
0.0
 11
37.2664
 21
33.9342
 31
0.0
  0
LINE
  8
0
 62
     0
 10
37.2664
 20
33.9342
 30
0.0
 11
39.7909
 21
33.9714
 31
0.0
  0
LINE
  8
0
 62
     0
 10
39.7909
 20
33.9714
 30
0.0
 11
43.265
 21
33.9948
 31
0.0
  0
LINE
  8
0
 62
     0
 10
43.265
 20
33.9948
 30
0.0
 11
44.8702
 21
34.0031
 31
0.0
  0
LINE
  8
0
 62
     0
 10
44.8702
 20
34.0031
 30
0.0
 11
46.0417
 21
34.0058
 31
0.0
  0
LINE
  8
0
 62
     0
 10
46.0417
 20
34.0058
 30
0.0
 11
46.8507
 21
33.9935
 31
0.0
  0
LINE
  8
0
 62
     0
 10
46.8507
 20
33.9935
 30
0.0
 11
47.3728
 21
33.9576
 31
0.0
  0
LINE
  8
0
 62
     0
 10
47.3728
 20
33.9576
 30
0.0
 11
47.6786
 21
33.8887
 31
0.0
  0
LINE
  8
0
 62
     0
 10
47.6786
 20
33.8887
 30
0.0
 11
47.8441
 21
33.7771
 31
0.0
  0
LINE
  8
0
 62
     0
 10
47.8441
 20
33.7771
 30
0.0
 11
47.9418
 21
33.6145
 31
0.0
  0
LINE
  8
0
 62
     0
 10
47.9418
 20
33.6145
 30
0.0
 11
48.0452
 21
33.3899
 31
0.0
  0
LINE
  8
0
 62
     0
 10
48.0452
 20
33.3899
 30
0.0
 11
48.387
 21
32.8359
 31
0.0
  0
LINE
  8
0
 62
     0
 10
48.387
 20
32.8359
 30
0.0
 11
48.7867
 21
32.3715
 31
0.0
  0
LINE
  8
0
 62
     0
 10
48.7867
 20
32.3715
 30
0.0
 11
49.1878
 21
32.0518
 31
0.0
  0
LINE
  8
0
 62
     0
 10
49.1878
 20
32.0518
 30
0.0
 11
49.5363
 21
31.9291
 31
0.0
  0
LINE
  8
0
 62
     0
 10
49.5363
 20
31.9291
 30
0.0
 11
49.8768
 21
31.8161
 31
0.0
  0
LINE
  8
0
 62
     0
 10
49.8768
 20
31.8161
 30
0.0
 11
50.1618
 21
31.5902
 31
0.0
  0
LINE
  8
0
 62
     0
 10
50.1618
 20
31.5902
 30
0.0
 11
50.2902
 21
31.338
 31
0.0
  0
LINE
  8
0
 62
     0
 10
50.2902
 20
31.338
 30
0.0
 11
50.4529
 21
30.9411
 31
0.0
  0
LINE
  8
0
 62
     0
 10
50.4529
 20
30.9411
 30
0.0
 11
50.6042
 21
30.4698
 31
0.0
  0
LINE
  8
0
 62
     0
 10
50.6042
 20
30.4698
 30
0.0
 11
50.6416
 21
30.0881
 31
0.0
  0
LINE
  8
0
 62
     0
 10
50.6416
 20
30.0881
 30
0.0
 11
50.618
 21
29.7615
 31
0.0
  0
LINE
  8
0
 62
     0
 10
50.618
 20
29.7615
 30
0.0
 11
50.5146
 21
29.3977
 31
0.0
  0
LINE
  8
0
 62
     0
 10
50.5146
 20
29.3977
 30
0.0
 11
50.2832
 21
28.8644
 31
0.0
  0
LINE
  8
0
 62
     0
 10
50.2832
 20
28.8644
 30
0.0
 11
49.8768
 21
28.0334
 31
0.0
  0
LINE
  8
0
 62
     0
 10
49.8768
 20
28.0334
 30
0.0
 11
49.5709
 21
27.4147
 31
0.0
  0
LINE
  8
0
 62
     0
 10
49.5709
 20
27.4147
 30
0.0
 11
49.3903
 21
27.0151
 31
0.0
  0
LINE
  8
0
 62
     0
 10
49.3903
 20
27.0151
 30
0.0
 11
49.2965
 21
26.7408
 31
0.0
  0
LINE
  8
0
 62
     0
 10
49.2965
 20
26.7408
 30
0.0
 11
49.251
 21
26.4928
 31
0.0
  0
LINE
  8
0
 62
     0
 10
49.251
 20
26.4928
 30
0.0
 11
49.083
 21
25.7693
 31
0.0
  0
LINE
  8
0
 62
     0
 10
49.083
 20
25.7693
 30
0.0
 11
48.6862
 21
25.2429
 31
0.0
  0
LINE
  8
0
 62
     0
 10
48.6862
 20
25.2429
 30
0.0
 11
48.3112
 21
24.7606
 31
0.0
  0
LINE
  8
0
 62
     0
 10
48.3112
 20
24.7606
 30
0.0
 11
48.2258
 21
24.2273
 31
0.0
  0
LINE
  8
0
 62
     0
 10
48.2258
 20
24.2273
 30
0.0
 11
48.2025
 21
23.9903
 31
0.0
  0
LINE
  8
0
 62
     0
 10
48.2025
 20
23.9903
 30
0.0
 11
48.1143
 21
23.7532
 31
0.0
  0
LINE
  8
0
 62
     0
 10
48.1143
 20
23.7532
 30
0.0
 11
47.9266
 21
23.4556
 31
0.0
  0
LINE
  8
0
 62
     0
 10
47.9266
 20
23.4556
 30
0.0
 11
47.6084
 21
23.0325
 31
0.0
  0
LINE
  8
0
 62
     0
 10
47.6084
 20
23.0325
 30
0.0
 11
47.3012
 21
22.6301
 31
0.0
  0
LINE
  8
0
 62
     0
 10
47.3012
 20
22.6301
 30
0.0
 11
47.1593
 21
22.4179
 31
0.0
  0
LINE
  8
0
 62
     0
 10
47.1593
 20
22.4179
 30
0.0
 11
46.8768
 21
21.8281
 31
0.0
  0
LINE
  8
0
 62
     0
 10
46.8768
 20
21.8281
 30
0.0
 11
46.4855
 21
21.2439
 31
0.0
  0
LINE
  8
0
 62
     0
 10
46.4855
 20
21.2439
 30
0.0
 11
46.1271
 21
20.6968
 31
0.0
  0
LINE
  8
0
 62
     0
 10
46.1271
 20
20.6968
 30
0.0
 11
46.0844
 21
20.1428
 31
0.0
  0
LINE
  8
0
 62
     0
 10
46.0844
 20
20.1428
 30
0.0
 11
46.1338
 21
19.7804
 31
0.0
  0
LINE
  8
0
 62
     0
 10
46.1338
 20
19.7804
 30
0.0
 11
46.2552
 21
19.5309
 31
0.0
  0
LINE
  8
0
 62
     0
 10
46.2552
 20
19.5309
 30
0.0
 11
46.5145
 21
19.3132
 31
0.0
  0
LINE
  8
0
 62
     0
 10
46.5145
 20
19.3132
 30
0.0
 11
46.9759
 21
19.0486
 31
0.0
  0
LINE
  8
0
 62
     0
 10
46.9759
 20
19.0486
 30
0.0
 11
47.4349
 21
18.7978
 31
0.0
  0
LINE
  8
0
 62
     0
 10
47.4349
 20
18.7978
 30
0.0
 11
47.7104
 21
18.6214
 31
0.0
  0
LINE
  8
0
 62
     0
 10
47.7104
 20
18.6214
 30
0.0
 11
47.8621
 21
18.4767
 31
0.0
  0
LINE
  8
0
 62
     0
 10
47.8621
 20
18.4767
 30
0.0
 11
47.9503
 21
18.3196
 31
0.0
  0
LINE
  8
0
 62
     0
 10
47.9503
 20
18.3196
 30
0.0
 11
47.8427
 21
17.4336
 31
0.0
  0
LINE
  8
0
 62
     0
 10
47.8427
 20
17.4336
 30
0.0
 11
47.6649
 21
17.169
 31
0.0
  0
LINE
  8
0
 62
     0
 10
47.6649
 20
17.169
 30
0.0
 11
47.7919
 21
16.932
 31
0.0
  0
LINE
  8
0
 62
     0
 10
47.7919
 20
16.932
 30
0.0
 11
47.909
 21
16.3435
 31
0.0
  0
LINE
  8
0
 62
     0
 10
47.909
 20
16.3435
 30
0.0
 11
47.6003
 21
15.7289
 31
0.0
  0
LINE
  8
0
 62
     0
 10
47.6003
 20
15.7289
 30
0.0
 11
47.4969
 21
15.6022
 31
0.0
  0
LINE
  8
0
 62
     0
 10
47.4969
 20
15.6022
 30
0.0
 11
47.4197
 21
15.4409
 31
0.0
  0
LINE
  8
0
 62
     0
 10
47.4197
 20
15.4409
 30
0.0
 11
47.3675
 21
15.1391
 31
0.0
  0
LINE
  8
0
 62
     0
 10
47.3675
 20
15.1391
 30
0.0
 11
47.3329
 21
14.5893
 31
0.0
  0
LINE
  8
0
 62
     0
 10
47.3329
 20
14.5893
 30
0.0
 11
47.3121
 21
13.6867
 31
0.0
  0
LINE
  8
0
 62
     0
 10
47.3121
 20
13.6867
 30
0.0
 11
47.3026
 21
12.3252
 31
0.0
  0
LINE
  8
0
 62
     0
 10
47.3026
 20
12.3252
 30
0.0
 11
47.2997
 21
10.3959
 31
0.0
  0
LINE
  8
0
 62
     0
 10
47.2997
 20
10.3959
 30
0.0
 11
47.3012
 21
7.79279
 31
0.0
  0
LINE
  8
0
 62
     0
 10
47.3012
 20
7.79279
 30
0.0
 11
47.2983
 21
3.72346
 31
0.0
  0
LINE
  8
0
 62
     0
 10
47.2983
 20
3.72346
 30
0.0
 11
47.2874
 21
1.53789
 31
0.0
  0
LINE
  8
0
 62
     0
 10
47.2874
 20
1.53789
 30
0.0
 11
47.2599
 21
0.628385
 31
0.0
  0
LINE
  8
0
 62
     0
 10
47.2599
 20
0.628385
 30
0.0
 11
47.2073
 21
0.384471
 31
0.0
  0
LINE
  8
0
 62
     0
 10
47.2073
 20
0.384471
 30
0.0
 11
46.8947
 21
0.117133
 31
0.0
  0
LINE
  8
0
 62
     0
 10
46.8947
 20
0.117133
 30
0.0
 11
46.6743
 21
0.00137804
 31
0.0
  0
LINE
  8
0
 62
     0
 10
46.6743
 20
0.00137804
 30
0.0
 11
2.23518
 21
0.00689021
 31
0.0
  0
LINE
  8
0
 62
     0
 10
2.23518
 20
0.00689021
 30
0.0
 11
2.04639
 21
0.130914
 31
0.0
  0
ENDSEC
  0
EOF
