G04 #@! TF.FileFunction,Paste,Bot*
%FSLAX46Y46*%
G04 Gerber Fmt 4.6, Leading zero omitted, Abs format (unit mm)*
G04 Created by KiCad (PCBNEW 4.0.7-e2-6376~58~ubuntu16.04.1) date Mon Jul 30 12:24:29 2018*
%MOMM*%
%LPD*%
G01*
G04 APERTURE LIST*
%ADD10C,0.100000*%
%ADD11R,1.550000X0.600000*%
%ADD12R,1.300000X0.700000*%
%ADD13R,1.200000X2.600000*%
G04 APERTURE END LIST*
D10*
D11*
X164500000Y-92695000D03*
X164500000Y-93965000D03*
X164500000Y-95235000D03*
X164500000Y-96505000D03*
X159100000Y-96505000D03*
X159100000Y-95235000D03*
X159100000Y-93965000D03*
X159100000Y-92695000D03*
D12*
X167250000Y-88200000D03*
X167250000Y-86300000D03*
X163250000Y-88200000D03*
X163250000Y-86300000D03*
X159250000Y-88200000D03*
X159250000Y-86300000D03*
X155250000Y-88200000D03*
X155250000Y-86300000D03*
D13*
X193750000Y-93250000D03*
X199750000Y-93250000D03*
X150000000Y-70500000D03*
X156000000Y-70500000D03*
X193500000Y-104250000D03*
X199500000Y-104250000D03*
X147250000Y-93250000D03*
X153250000Y-93250000D03*
X163500000Y-75000000D03*
X169500000Y-75000000D03*
X192500000Y-81750000D03*
X198500000Y-81750000D03*
X146250000Y-104250000D03*
X152250000Y-104250000D03*
X196750000Y-72000000D03*
X202750000Y-72000000D03*
X180000000Y-104250000D03*
X186000000Y-104250000D03*
X163500000Y-104250000D03*
X169500000Y-104250000D03*
X148750000Y-81750000D03*
X154750000Y-81750000D03*
X180000000Y-73000000D03*
X186000000Y-73000000D03*
M02*
